<?xml version="1.0" encoding="UTF-8"?>
<!DOCTYPE svg PUBLIC "-//W3C//DTD SVG 1.1//EN" "http://www.w3.org/Graphics/SVG/1.1/DTD/svg11.dtd">
<!-- Creator: CorelDRAW X7 -->
<svg xmlns="http://www.w3.org/2000/svg" xml:space="preserve" width="297mm" height="210mm" version="1.1" style="shape-rendering:geometricPrecision; text-rendering:geometricPrecision; image-rendering:optimizeQuality; fill-rule:evenodd; clip-rule:evenodd"
viewBox="0 0 29700 21000"
 xmlns:xlink="http://www.w3.org/1999/xlink">
 <defs>
  <style type="text/css">
   <![CDATA[
    .str0 {stroke:#DCDDDD;stroke-width:150}
    .str4 {stroke:#F08519;stroke-width:195.43}
    .str2 {stroke:#E62129;stroke-width:181}
    .str3 {stroke:#A79CCB;stroke-width:181}
    .str6 {stroke:#A79CCB;stroke-width:181}
    .str5 {stroke:#62C3D0;stroke-width:181}
    .str1 {stroke:#009B4C;stroke-width:181}
    .fil0 {fill:none}
    .fil2 {fill:#FEFEFE}
    .fil1 {fill:#EEEEEF}
    .fil6 {fill:#F08519}
    .fil7 {fill:#E62129}
    .fil8 {fill:#A79CCB}
    .fil15 {fill:#A79CCB}
    .fil13 {fill:#62C3D0}
    .fil14 {fill:#009B4C}
    .fil9 {fill:#009B4C}
    .fil16 {fill:#B6B6B7;fill-rule:nonzero}
    .fil3 {fill:#E62129;fill-rule:nonzero}
    .fil4 {fill:#A79CCB;fill-rule:nonzero}
    .fil12 {fill:#62C3D0;fill-rule:nonzero}
    .fil10 {fill:#62C3D0;fill-rule:nonzero}
    .fil11 {fill:#009B4C;fill-rule:nonzero}
    .fil5 {fill:#009B4C;fill-rule:nonzero}
   ]]>
  </style>
 </defs>
 <g id="图层_x0020_1">
  <metadata id="CorelCorpID_0Corel-Layer"/>
  <polygon class="fil0" points="0,0 29700,0 29700,21000 0,21000 "/>
  <g id="_2545371233648">
   <path class="fil1" d="M7871 5739c2901,0 5252,2352 5252,5252 0,2901 -2351,5253 -5252,5253 -2901,0 -5252,-2352 -5252,-5253 0,-2900 2351,-5252 5252,-5252zm0 1363c2148,0 3889,1742 3889,3889 0,2148 -1741,3889 -3889,3889 -2148,0 -3889,-1741 -3889,-3889 0,-2147 1741,-3889 3889,-3889z"/>
   <path class="fil0 str0" d="M7883 7145c2128,0 3854,1726 3854,3855 0,2128 -1726,3854 -3854,3854 -2129,0 -3855,-1726 -3855,-3854 0,-2129 1726,-3855 3855,-3855z"/>
   <path class="fil2 str1" d="M7871 5923c723,0 1310,586 1310,1310 0,724 -587,1311 -1310,1311 -724,0 -1311,-587 -1311,-1311 0,-724 587,-1310 1311,-1310z"/>
   <path class="fil2 str2" d="M4476 11432c724,0 1311,586 1311,1310 0,724 -587,1311 -1311,1311 -724,0 -1311,-587 -1311,-1311 0,-724 587,-1310 1311,-1310z"/>
   <path class="fil2 str3" d="M11265 11432c724,0 1311,586 1311,1310 0,724 -587,1311 -1311,1311 -724,0 -1311,-587 -1311,-1311 0,-724 587,-1310 1311,-1310z"/>
   <g>
    <path class="fil3" d="M9213 12742l-2994 0 0 -58 2994 0 0 58zm204 -29l-405 174 5 -11 5 -11 4 -11 5 -10 4 -11 3 -11 3 -11 3 -11 3 -11 2 -11 2 -10 1 -11 2 -11 0 -11 1 -11 0 -11 0 -11 -1 -10 0 -11 -2 -11 -1 -11 -2 -11 -2 -11 -3 -11 -3 -10 -3 -11 -3 -11 -4 -11 -5 -11 -4 -11 -5 -11 -5 -11 0 0 405 174z"/>
   </g>
   <g>
    <path class="fil4" d="M6423 12983l0 -57 2994 0 0 57 -2994 0zm-204 -29l406 -173 -6 11 -5 10 -4 11 -4 11 -4 11 -4 11 -3 11 -3 11 -3 10 -2 11 -2 11 -1 11 -1 11 -1 11 -1 11 0 10 0 11 1 11 1 11 1 11 1 11 2 11 2 11 3 10 3 11 3 11 4 11 4 11 4 11 4 11 5 10 6 11 0 0 -406 -174z"/>
   </g>
   <g>
    <path class="fil3" d="M6509 8556l-1497 2593 -51 -29 1497 -2593 51 29zm76 -191l-52 438 -7 -10 -7 -9 -7 -10 -7 -9 -7 -9 -8 -8 -8 -8 -8 -8 -8 -8 -8 -7 -9 -7 -8 -7 -9 -7 -9 -6 -9 -6 -10 -5 -9 -5 -10 -5 -10 -5 -10 -5 -10 -4 -10 -3 -11 -4 -10 -3 -11 -3 -11 -3 -11 -2 -12 -2 -11 -2 -12 -1 -12 -2 -12 0 0 0 353 -265z"/>
   </g>
   <g>
    <path class="fil5" d="M5357 11181l-50 -29 1497 -2593 50 29 -1497 2593zm-127 162l53 -438 6 10 7 10 7 9 8 9 7 9 8 9 8 8 8 8 8 8 8 7 8 7 9 7 9 6 9 6 9 6 9 6 10 5 10 5 9 5 10 4 11 4 10 4 10 4 11 3 11 3 11 2 11 3 11 2 12 2 12 1 12 1 12 1 0 0 -354 264z"/>
   </g>
   <g>
    <path class="fil4" d="M9394 8556l50 -29 1497 2593 -50 29 -1497 -2593zm-77 -191l353 265 -12 0 -11 2 -12 1 -12 2 -11 2 -11 2 -11 3 -11 3 -11 3 -10 4 -11 3 -10 4 -10 5 -10 5 -9 5 -10 5 -9 5 -9 6 -9 6 -9 7 -9 7 -8 7 -8 7 -9 8 -8 8 -7 8 -8 8 -7 9 -8 9 -7 10 -7 9 -7 10 0 0 -52 -438z"/>
   </g>
   <g>
    <path class="fil5" d="M10545 11197l-1497 -2593 50 -29 1498 2593 -51 29zm127 162l-353 -264 12 -1 12 -1 12 -2 11 -1 12 -2 11 -3 11 -2 11 -3 10 -3 11 -4 10 -4 10 -4 10 -4 10 -5 10 -5 9 -5 10 -6 9 -6 9 -6 9 -6 8 -7 9 -7 8 -7 8 -8 8 -8 8 -8 8 -9 7 -9 7 -9 7 -9 7 -10 7 -10 0 0 52 438z"/>
   </g>
   <path class="fil0 str4" d="M7871 9828c462,0 837,375 837,837 0,463 -375,837 -837,837 -463,0 -838,-374 -838,-837 0,-462 375,-837 838,-837z"/>
   <path class="fil6" d="M7653 10838c-22,10 -50,16 -85,16 -45,0 -81,-14 -108,-41 -26,-27 -40,-63 -40,-108 0,-47 15,-86 45,-116 29,-30 68,-45 114,-45 30,0 54,3 74,11l0 62c-20,-12 -43,-18 -69,-18 -29,0 -53,9 -70,28 -18,19 -26,43 -26,73 0,30 8,53 25,71 16,18 39,27 67,27 27,0 51,-6 73,-19l0 59zm337 10l-70 0 -22 -68 -109 0 -22 68 -70 0 110 -299 75 0 108 299zm-107 -118l-34 -104c-3,-6 -4,-15 -5,-26l-2 0c-1,9 -2,18 -5,26l-34 104 80 0zm435 118l-65 0 -127 -194c-7,-10 -12,-18 -15,-24l-1 0c1,10 2,26 2,48l0 170 -61 0 0 -299 70 0 122 188c9,13 14,21 15,24l1 0c-1,-7 -2,-21 -2,-41l0 -171 61 0 0 299z"/>
   <g>
    <path class="fil3" d="M6881 11335l-1006 550 -28 -50 1006 -551 28 51zm165 -124l-273 347 0 -12 -1 -11 -1 -12 -2 -12 -2 -11 -2 -11 -2 -11 -3 -11 -3 -11 -3 -11 -4 -10 -3 -10 -5 -11 -4 -9 -5 -10 -5 -10 -5 -9 -6 -10 -6 -9 -6 -9 -7 -8 -7 -9 -7 -9 -7 -8 -8 -8 -8 -8 -8 -8 -9 -7 -9 -8 -9 -7 -10 -7 -10 -7 0 0 440 -43z"/>
   </g>
   <g>
    <path class="fil4" d="M8934 11335l28 -51 1006 551 -28 50 -1006 -550zm-164 -124l439 43 -10 7 -10 7 -9 7 -9 8 -8 7 -9 8 -8 8 -8 8 -7 8 -7 9 -7 9 -7 8 -6 9 -6 9 -5 10 -6 9 -5 10 -5 10 -4 9 -4 11 -4 10 -4 10 -3 11 -3 11 -3 11 -2 11 -2 11 -2 11 -2 12 -1 12 -1 11 0 12 0 0 -272 -347z"/>
   </g>
   <g>
    <path class="fil5" d="M7908 9460l-58 2 -24 -743 58 -2 24 743zm-22 205l-187 -400 11 5 11 5 11 4 11 4 11 3 11 4 11 3 11 2 11 2 11 2 11 2 11 1 11 1 10 0 11 0 11 0 11 0 11 -1 11 -1 10 -2 11 -2 11 -2 11 -3 11 -2 10 -4 11 -3 11 -4 11 -4 10 -5 11 -5 11 -5 10 -6 0 0 -160 411z"/>
   </g>
   <path class="fil7" d="M7299 12409l108 0 0 -35 20 0 0 35 104 0 0 17 -104 0 0 35 67 0 0 17c-14,32 -34,58 -61,80 26,14 60,24 101,30 -6,8 -10,15 -14,20 -45,-9 -80,-21 -105,-38 -26,16 -61,30 -107,42 -3,-7 -6,-14 -10,-19 43,-10 77,-21 101,-35 -23,-20 -41,-46 -53,-79l-24 0 0 -18 85 0 0 -35 -108 0 0 -17zm172 70l-105 0c12,29 28,51 50,68 25,-19 43,-41 55,-68zm154 -50l110 0 0 -52 19 0 0 52 35 0 0 18 -35 0 0 122c0,24 -11,37 -33,37 -8,1 -20,0 -36,0 -1,-6 -2,-13 -4,-21 15,1 27,1 35,1 8,1 13,-1 15,-4 3,-3 4,-10 4,-19l0 -116 -110 0 0 -18zm-69 60c22,-31 40,-69 54,-114l20 7c-7,18 -14,34 -20,50l0 178 -20 0 0 -140c-8,15 -18,29 -27,41 -3,-10 -5,-18 -7,-22zm85 -4l16 -10c10,14 21,33 34,55l-17 11c-11,-22 -22,-40 -33,-56zm307 86c-14,7 -31,11 -51,11 -27,0 -48,-9 -64,-26 -16,-17 -24,-39 -24,-67 0,-30 9,-54 27,-72 18,-18 41,-27 68,-27 18,0 33,2 44,7l0 25c-13,-7 -28,-11 -44,-11 -20,0 -37,7 -50,21 -13,14 -20,32 -20,56 0,22 6,40 19,53 12,13 28,19 47,19 19,0 35,-4 48,-12l0 23zm198 7l-27 0 -19 -50 -77 0 -18 50 -26 0 70 -185 26 0 71 185zm-53 -71l-28 -77c-1,-3 -2,-7 -3,-13l-1 0c-1,5 -2,10 -3,13l-28 77 63 0zm245 71l-28 0 -93 -144c-3,-4 -5,-8 -7,-12l0 0c0,4 1,13 1,26l0 130 -24 0 0 -185 30 0 91 142c4,6 7,11 7,13l1 0c-1,-6 -1,-15 -1,-28l0 -127 23 0 0 185z"/>
   <path class="fil8" d="M7124 13336c-14,7 -31,10 -52,10 -26,0 -47,-8 -63,-25 -16,-17 -24,-39 -24,-67 0,-30 9,-54 27,-72 18,-18 40,-27 68,-27 18,0 32,2 44,7l0 25c-13,-7 -28,-11 -44,-11 -21,0 -37,7 -50,21 -13,14 -20,32 -20,56 0,22 6,39 18,53 12,13 28,19 48,19 18,0 34,-4 48,-12l0 23zm197 7l-26 0 -19 -50 -77 0 -18 50 -27 0 71 -185 26 0 70 185zm-53 -71l-28 -78c-1,-2 -1,-6 -2,-12l-1 0c-1,5 -2,9 -3,12l-28 78 62 0zm246 71l-28 0 -94 -144c-2,-4 -4,-8 -6,-12l-1 0c1,4 1,13 1,26l0 130 -23 0 0 -185 30 0 90 142c5,6 7,11 8,12l1 0c-1,-5 -2,-14 -2,-27l0 -127 24 0 0 185zm47 -127l58 0c-5,-8 -11,-16 -18,-23l15 -10c8,9 14,17 21,25l-13 8 54 0c8,-10 16,-21 22,-32l19 10c-8,9 -14,17 -20,22l60 0 0 126c0,20 -9,30 -28,30 -9,1 -21,0 -33,0 -1,-9 -2,-16 -4,-20 13,1 23,2 32,2 10,0 15,-6 15,-17l0 -104 -162 0 0 142 -18 0 0 -159zm52 136l0 -78 96 0 0 65 -79 0 0 13 -17 0zm-69 -187l109 0c-3,-5 -7,-12 -11,-19l18 -8c5,8 10,17 15,27l103 0 0 17 -234 0 0 -17zm148 159l0 -34 -62 0 0 34 62 0zm-61 -88l13 12c-19,16 -36,30 -52,42 -5,-6 -9,-11 -12,-14 18,-12 35,-25 51,-40zm42 13l11 -13c23,14 41,26 53,35l-11 15c-16,-12 -34,-25 -53,-37zm229 -102l17 -10c8,9 16,19 23,30l-12 7 90 0 0 106 -19 0 0 -12 -152 0c-2,46 -14,82 -35,110 -5,-5 -9,-11 -14,-16 20,-25 31,-62 31,-112l0 -76 91 0c-6,-9 -13,-18 -20,-27zm-52 44l0 59 151 0 0 -59 -151 0zm217 -22l70 0c4,-10 8,-20 11,-30l20 5c-3,9 -6,17 -9,25l139 0 0 18 -147 0c-9,21 -20,41 -33,60l0 127 -19 0 0 -102c-8,11 -17,21 -27,31 -3,-5 -7,-11 -12,-17 30,-31 53,-64 70,-99l-63 0 0 -18zm59 170l75 0 0 -71 -62 0 0 -18 62 0 0 -48 20 0 0 48 63 0 0 18 -63 0 0 71 77 0 0 17 -172 0 0 -17zm267 18c30,-11 56,-24 78,-38 -6,-14 -10,-31 -14,-51l-51 7 -3 -17 52 -8c-2,-11 -3,-23 -3,-35l-44 5 -2 -18 45 -5c-1,-16 -2,-35 -3,-57l20 0c1,21 1,39 2,55l80 -9 2 17 -82 10c1,12 2,24 3,35l83 -12 2 17 -83 12c3,17 7,31 11,43 17,-13 31,-27 43,-42l15 12c-14,17 -31,33 -50,47 6,11 14,20 22,25 11,7 18,3 21,-9 2,-10 3,-22 5,-34 7,3 13,5 18,7 -3,17 -5,30 -8,39 -5,13 -13,20 -24,20 -11,0 -22,-5 -32,-14 -7,-6 -12,-14 -17,-23 -22,14 -47,26 -74,37 -3,-5 -7,-10 -12,-16zm-41 -73c14,-2 31,-5 50,-8 -1,6 -2,12 -2,19 -27,4 -50,7 -70,11l-4 -18c11,-12 23,-29 36,-51 -13,1 -25,2 -36,3l-5 -17c15,-20 30,-48 46,-85l18 7c-16,33 -30,58 -42,77 9,0 19,-1 29,-1 5,-10 11,-21 17,-32l18 9c-20,34 -38,62 -55,86zm-31 56c28,-6 57,-13 86,-20 -1,6 -1,12 -1,18 -27,6 -53,13 -79,20l-6 -18zm167 -187l11 -12c11,7 23,16 36,26l-12 14c-13,-12 -25,-21 -35,-28z"/>
   <path class="fil7" d="M5289 9970l18 -30c-12,1 -21,2 -29,3l-2 -15c9,-2 19,-4 30,-6l3 14 15 -27c-4,-13 -10,-25 -16,-37l16 -8c4,9 7,18 10,27l19 -31 79 46 -8 13 -6 -4 -49 84 7 4 -8 13 -79 -46zm94 43l54 -93 88 51 -8 14 -9 -6 -38 66 9 5 -8 14 -88 -51zm-156 25l37 -65 130 75 -8 14 -116 -68 -22 38 118 68 -8 14 -131 -76zm47 -7l8 -13 68 39c13,8 25,17 36,27l-2 -12c22,-5 43,-10 61,-13l3 19c-18,2 -38,5 -58,9 17,19 27,38 31,60 -6,0 -13,2 -19,3 -4,-32 -24,-58 -59,-79l-69 -40zm84 -150l-21 35 47 27 21 -35 -47 -27zm-2 110l21 -35 -47 -27 -21 35 47 27zm101 46l37 -66 -19 -11 -38 66 20 11zm-15 -96l-38 66 20 11 38 -65 -20 -12zm-74 -47c7,10 14,19 19,29l-13 7c-5,-8 -11,-18 -19,-29l13 -7zm-43 73l0 -14c14,0 25,0 36,1l-1 15c-12,-1 -23,-2 -35,-2zm140 -154l35 -62c-2,-2 -14,-9 -34,-20l-32 54 -14 -8 41 -71c-9,-23 -18,-41 -26,-54l20 -11c4,10 9,25 17,46l24 -43 15 9 -36 61c18,10 29,17 35,21l39 -67 14 8 -39 68c3,3 6,5 9,8 27,-13 54,-26 81,-38l8 19c-29,12 -55,23 -77,33 14,20 18,48 14,82 -7,1 -14,2 -20,4 7,-44 -2,-74 -25,-91l-35 60 -14 -8zm110 24c18,-30 41,-70 68,-120 5,5 9,11 12,16 -28,49 -50,87 -66,114 -15,25 -33,37 -54,38 1,6 5,20 13,40l-23 -1c-3,-13 -6,-26 -8,-39l-72 -42 -14 24 -15 -9 23 -40 91 53c17,-3 33,-14 45,-34zm-220 -40c18,-3 38,-6 59,-8l1 20c-19,1 -38,3 -58,7l-2 -19zm41 -54l-2 -18c11,-2 25,-5 42,-8l2 20c-17,2 -31,4 -42,6zm310 -168c0,16 -6,32 -16,50 -13,23 -31,37 -54,43 -22,5 -46,1 -70,-13 -26,-15 -42,-35 -49,-60 -7,-24 -3,-48 11,-72 9,-16 18,-27 28,-35l22 13c-13,8 -24,19 -32,32 -10,18 -12,36 -7,54 5,19 18,33 39,45 19,11 37,15 54,11 18,-4 31,-15 41,-32 9,-16 14,-31 13,-47l20 11zm106 -167l-14 23 -53 -9 -39 67 35 41 -13 23 -125 -154 13 -23 196 32zm-89 10l-81 -14c-2,-1 -6,-2 -12,-4l-1 0c5,4 8,7 10,9l53 63 31 -54zm185 -177l-14 25 -172 8c-5,0 -9,0 -13,0l-1 0c4,2 12,6 23,12l113 66 -12 20 -160 -93 15 -26 168 -7c8,-1 13,-1 15,-1l0 0c-5,-2 -13,-6 -24,-12l-110 -64 11 -21 161 93z"/>
   <path class="fil9" d="M6067 10356l9 -15 179 103c14,8 17,20 9,34 -6,9 -11,19 -17,29 -7,-3 -13,-6 -19,-7 7,-10 13,-19 17,-27 4,-7 3,-12 -4,-17l-174 -100zm141 113l-9 15 -132 -76 9 -16 132 77zm-47 175c-21,-22 -43,-44 -68,-66 4,-3 9,-7 15,-11 21,19 44,41 68,64l-15 13zm-131 -67l-7 -15c19,-8 34,-14 46,-19 3,8 5,14 6,19 -16,5 -31,10 -45,15zm-50 -38l-5 -17c22,-8 36,-13 43,-15 1,7 3,13 5,19 -11,2 -25,7 -43,13zm32 -75l1 -17c14,-1 26,-1 34,-1l0 19c-13,-1 -25,-1 -35,-1zm72 -23c29,23 51,45 66,67 24,0 46,0 68,1l-1 19c-18,0 -36,-1 -54,-2 14,25 23,51 27,79 -5,0 -12,2 -19,4 -4,-31 -15,-58 -31,-83 -24,-1 -49,-1 -75,0l0 -18c21,0 42,0 63,0 -14,-17 -31,-34 -53,-51l-35 61 -15 -8 50 -87 14 9 -5 9zm180 -173c9,6 17,11 23,17l8 -14 37 21c8,5 15,3 20,-7l22 -36c6,-11 5,-19 -2,-24 -7,-6 -15,-11 -24,-18 5,-4 10,-8 15,-13 8,6 16,12 22,18 13,11 15,25 4,43l-24 42c-10,18 -24,21 -41,12l-30 -18c9,10 16,21 18,32 5,21 2,53 -11,97 -6,0 -13,0 -20,0 12,-41 17,-71 13,-89 -3,-18 -16,-34 -40,-47l10 -16zm-68 67l83 -144 70 40 -10 16 -54 -32 -65 112 57 33 -10 16 -71 -41zm-37 -141l10 -18c6,8 11,15 16,22l44 -76 15 8 -49 84c9,15 16,30 22,44 -7,2 -13,5 -18,8 -8,-25 -22,-49 -40,-72zm-34 58l9 -16 80 46 -9 16 -80 -46zm-21 51l9 -16 73 42 -10 15 -72 -41zm105 -93c22,-16 43,-31 64,-44l9 16c-19,11 -40,25 -65,43l-8 -15zm60 -134l47 -83c-8,0 -19,1 -32,2l0 -20c13,-2 24,-3 36,-4l0 16 49 -85 17 10 -90 155 52 30c43,25 71,56 84,93 -6,2 -13,4 -22,8 -10,-33 -35,-61 -75,-84l-66 -38zm218 -175l86 -148 83 48 -10 17 -11 -7 -66 115 11 6 -9 17 -84 -48zm-53 6l57 -99 -35 -19 -32 56c8,12 14,24 20,36 -6,2 -12,5 -19,9 -11,-26 -26,-50 -45,-71l15 -14c6,8 12,15 18,23l28 -48 -33 -19 10 -17 33 19 41 -72 16 9 -42 72 34 19 51 -87 15 9 -117 203 -15 -9zm144 -129l-66 115 43 24 66 -114 -43 -25z"/>
   <path class="fil8" d="M10599 9058l59 103 -82 47 -8 -14 6 -4 -43 -74 -6 4 -8 -15 82 -47zm-205 75c28,10 57,7 89,-8l9 15c-10,5 -20,9 -30,12 -8,16 -10,33 -7,50l63 -36 -37 -64 13 -8 81 140 -14 8 -35 -61 -23 14 30 52 -13 8 -30 -53 -29 17c4,10 16,31 36,63 -1,0 -7,1 -18,4 -10,-16 -20,-33 -29,-52 -16,-28 -18,-54 -6,-78 -18,2 -35,1 -52,-4 1,-6 2,-13 2,-19zm56 -100c9,7 18,14 28,20l44 -25 -15 -25 14 -9 15 25 38 -22 10 16 -39 22 15 27 -14 8 -15 -27 -37 21c9,6 18,12 27,17 -6,4 -11,7 -16,11 -9,-6 -18,-12 -28,-18l-72 42c-13,8 -23,7 -30,-3 -5,-7 -10,-15 -15,-24 5,-4 10,-8 16,-12 3,8 6,14 10,20 2,5 6,5 11,2l63 -36c-9,-6 -18,-11 -27,-17l17 -13zm95 76l42 73 18 -10 -42 -74 -18 11zm91 45l-42 -74 -18 11 42 73 18 -10zm140 194l10 17 -46 26 17 30 -15 9 -17 -30 -57 33 21 37 -15 9 -87 -151 15 -9 20 35 58 -33 -16 -26 15 -9 16 27 45 -27 10 17 -46 27 26 44 46 -26zm-187 -97c42,4 85,2 129,-7l4 20c-23,4 -44,6 -64,7l-147 86 -10 -17 118 -68c-16,0 -31,-1 -45,-4 5,-5 10,-11 15,-17zm43 120l26 45 57 -33 -25 -45 -58 33zm-11 53l17 6c-7,34 -14,61 -21,81l-20 -6c8,-24 17,-51 24,-81zm-15 -24c-29,-5 -57,-12 -82,-20 2,-7 3,-13 4,-20 24,10 50,16 80,20l-2 20zm312 227l-186 48 -14 -24 97 -100c4,-4 9,-8 15,-12l0 0c-6,3 -12,5 -18,6l-135 35 -14 -24 134 -140 13 23 -102 103c-5,5 -10,9 -15,12l0 1c4,-2 11,-4 18,-6l142 -36 12 21 -103 104c-4,3 -8,7 -14,11l0 1c5,-3 11,-5 18,-6l140 -39 12 22zm33 57l-160 92 -12 -20 160 -93 12 21zm61 147l-36 -62 -54 31 33 58 -18 10 -33 -57 -70 40 -12 -20 160 -93 48 83 -18 10zm55 53l-161 93 -12 -21 161 -93 12 21zm-631 -89c-13,-8 -24,-21 -35,-39 -13,-23 -16,-46 -10,-68 7,-22 22,-40 47,-54 25,-15 51,-19 75,-13 25,7 44,22 58,45 9,16 14,30 16,42l-22 13c0,-15 -5,-30 -12,-44 -11,-17 -25,-29 -44,-33 -18,-4 -37,-1 -58,11 -19,11 -31,25 -36,42 -6,17 -3,34 7,51 9,16 20,28 34,35l-20 12zm92 175l-13 -23 35 -42 -39 -67 -53 10 -13 -23 196 -31 13 22 -126 154zm36 -82l53 -63c2,-2 5,-5 10,-9l-1 0c-5,2 -9,3 -12,4l-81 14 31 54zm61 249l-14 -25 78 -153c2,-4 5,-8 7,-11l0 -1c-3,3 -11,7 -22,14l-113 65 -12 -20 161 -93 15 26 -78 149c-3,7 -6,12 -7,13l0 1c4,-3 12,-8 23,-15l111 -64 11 21 -160 93zm-322 -901l18 31c4,-11 8,-20 11,-27l14 6c-3,9 -6,19 -10,29l-14 -5 16 28c14,2 27,3 40,4l-1 18c-9,-2 -19,-3 -29,-5l19 31 -80 46 -7 -13 6 -4 -48 -84 -7 4 -7 -13 79 -46zm-84 60l54 94 -89 51 -8 -14 10 -6 -38 -66 -10 6 -8 -14 89 -51zm56 -148l38 65 -130 75 -8 -13 116 -68 -22 -38 -117 68 -8 -13 131 -76zm-17 44l7 14 -68 39c-13,8 -27,14 -41,19l11 4c-6,21 -13,41 -19,59l-18 -7c8,-17 15,-35 21,-55 -25,6 -47,5 -67,-3 3,-6 5,-12 6,-18 30,13 63,9 98,-12l70 -40zm88 148l-20 -35 -47 27 20 35 47 -27zm-95 -56l20 35 47 -27 -20 -35 -47 27zm-90 64l38 65 20 -11 -38 -66 -20 12zm90 35l-38 -65 -19 11 38 65 19 -11zm79 -40c-13,1 -24,2 -35,2l0 -15c10,0 21,-1 34,-2l1 15zm-43 -74l13 7c-7,12 -13,22 -19,30l-13 -8c7,-10 14,-19 19,-29zm64 198l36 62c3,-2 15,-8 35,-20l-32 -55 15 -8 41 71c25,4 44,6 59,5l0 22c-11,-1 -27,-4 -49,-8l25 43 -14 8 -36 -62c-17,10 -29,17 -35,20l39 67 -14 8 -40 -68c-4,2 -7,3 -11,4 -2,31 -4,60 -8,90l-20 -3c4,-31 8,-59 10,-83 -25,2 -51,-8 -78,-29 2,-7 5,-13 6,-19 35,27 65,35 92,24l-35 -61 14 -8zm-76 83c17,31 40,71 70,120 -7,0 -13,1 -20,2 -29,-49 -51,-87 -66,-114 -13,-26 -15,-48 -6,-67 -5,-2 -19,-5 -40,-8l12 -20c13,5 25,9 38,13l72 -42 -14 -23 15 -9 23 40 -90 52c-7,17 -5,36 6,56zm145 -170c-7,17 -14,35 -22,55l-19 -9c9,-17 17,-35 24,-54l17 8zm26 62l17 7c-4,12 -9,25 -15,41l-18 -9c7,-15 12,-28 16,-39z"/>
   <path class="fil9" d="M9371 9617l40 70 29 -16 -35 -61 15 -8c19,0 39,-2 60,-4l-17 -30 14 -9 21 36c10,-2 21,-4 32,-6l6 19c-9,2 -19,3 -28,5l49 84 -15 9 -52 -91c-21,2 -40,4 -60,5l24 42 36 -21 10 17 -36 21 31 53 -15 8 -31 -53 -28 17 34 59 -15 8 -34 -59 -34 20 -10 -17 35 -19 -41 -70 15 -9zm-38 58l23 43 48 78c-7,1 -14,2 -20,2l-42 -71 -25 -45c-13,-23 -14,-44 -5,-64 -6,-2 -19,-5 -41,-9l13 -19c12,4 25,8 37,13l72 -42 -13 -24 15 -9 23 40 -91 52c-6,18 -4,36 6,55zm145 -164c-6,17 -13,33 -21,49l-19 -8c9,-16 16,-32 24,-49l16 8zm-37 363c20,25 39,43 58,55 -2,-16 -4,-34 -6,-52 11,1 22,2 33,3l-20 -34 14 -8 25 43c10,0 20,0 29,-1l3 19c-8,0 -15,0 -22,-1l46 80 -14 8 -16 -27c-18,3 -36,3 -52,-2 3,22 5,43 8,64l-21 0c-1,-21 -2,-44 -5,-71 -23,-11 -47,-31 -71,-59 4,-4 7,-10 11,-17zm45 -101c9,9 17,17 25,24l47 -27 -15 -26 15 -9 15 26 39 -22 9 15 -39 23 14 23 -15 9 -14 -24 -42 25c5,5 11,10 17,15 -6,4 -11,8 -15,11 -7,-6 -13,-11 -19,-17l-64 37c-15,9 -26,7 -34,-7 -3,-5 -7,-11 -11,-19 5,-4 10,-8 16,-13 3,9 6,15 8,19 4,6 9,7 17,2l54 -31c-9,-8 -17,-15 -24,-21l16 -13zm74 43l46 81c18,1 34,3 48,3l1 21c-13,-3 -26,-5 -39,-7l25 43 -14 8 -81 -141 14 -8zm55 -21l34 58c4,-6 8,-13 12,-21l15 11c-5,8 -10,17 -16,25l-5 -4 34 59 -14 8 -74 -128 14 -8zm-105 101c2,14 4,28 6,42 15,5 30,7 46,4l-26 -44c-9,-1 -18,-2 -26,-2zm91 -68l15 7c-4,11 -8,22 -13,33l-17 -8c6,-11 11,-21 15,-32zm225 313l-187 47 -14 -24 97 -99c4,-4 9,-8 15,-12l0 0c-6,2 -12,5 -18,6l-135 34 -14 -24 134 -139 13 23 -102 103c-5,4 -10,9 -15,12l0 1c5,-2 11,-4 19,-6l141 -36 12 21 -103 103c-4,4 -8,8 -14,12l0 0c5,-2 11,-4 18,-6l140 -39 13 23zm32 56l-160 93 -12 -21 160 -92 12 20zm61 148l-36 -62 -54 31 34 58 -19 10 -33 -57 -70 40 -12 -21 161 -92 47 82 -18 11zm55 53l-161 93 -12 -21 161 -93 12 21zm-1081 -869c-13,-8 -25,-22 -35,-39 -13,-23 -16,-46 -10,-68 7,-22 22,-40 46,-54 26,-15 52,-19 76,-13 25,6 44,21 58,45 9,16 14,30 15,42l-21 13c-1,-16 -5,-30 -13,-44 -10,-18 -24,-29 -43,-33 -18,-5 -38,-1 -58,11 -19,11 -31,25 -37,42 -5,17 -2,34 7,51 10,16 21,28 35,35l-20 12zm92 175l-13 -23 35 -42 -39 -67 -53 10 -13 -23 196 -32 13 23 -126 154zm36 -82l53 -63c1,-2 5,-5 10,-9l-1 0c-5,2 -9,3 -12,4l-81 14 31 54zm61 249l-15 -25 79 -153c2,-4 4,-8 7,-12l0 0c-4,2 -11,7 -22,14l-113 65 -12 -21 161 -92 15 26 -78 149c-3,7 -6,12 -7,13l0 1c4,-4 12,-9 23,-15l110 -64 12 21 -160 93zm-439 -855l16 9c-7,13 -11,26 -14,40 10,1 24,-2 41,-9l-31 -54 57 -33 32 56 20 -12 -38 -67 14 -8 39 67 28 -16 9 15 -28 17 38 67 -14 8 -38 -67 -21 12 32 55 -66 39 -9 -16 9 -5 -24 -42c-20,9 -37,13 -51,12 0,0 0,0 0,0 0,29 8,61 26,96 -8,-1 -16,-1 -24,-1 -15,-36 -22,-69 -21,-99 -17,-5 -37,-18 -59,-36 3,-6 5,-12 8,-19 20,18 38,30 53,36 3,-16 9,-31 16,-45zm-7 -92c39,2 81,-3 126,-15l4 18c-22,5 -43,9 -62,11l-149 86 -8 -15 117 -68c-14,1 -28,0 -41,-1 5,-6 9,-11 13,-16zm74 141l23 41 29 -17 -23 -40c-5,3 -15,8 -29,16zm-10 -16c7,-3 17,-9 30,-16l-23 -41 -29 17 22 40zm23 257l66 -38 -35 -60c-30,14 -58,19 -86,16 3,-6 5,-13 8,-21 18,2 35,0 52,-6 17,-5 39,-16 67,-32l74 -43 97 169 -165 96c-16,9 -29,6 -38,-10 -5,-9 -11,-20 -18,-32 4,-3 9,-8 16,-13 6,12 11,22 15,30 5,8 12,10 20,6l38 -22 -35 -61 -66 38 -10 -17zm91 -30l35 61 39 -22 -35 -61 -39 22zm127 8l-35 -61 -39 22 36 61 38 -22zm-171 -84l34 59 39 -22 -34 -58c-13,8 -26,15 -39,21zm93 -52l-39 22 34 58 38 -22 -33 -58zm403 663l41 70 -60 34c29,2 59,-1 90,-10l5 19c-11,2 -23,4 -34,6l46 79c-68,38 -113,63 -136,75 -23,11 -41,6 -53,-15 -7,-12 -14,-25 -21,-39 5,-4 10,-8 15,-13 6,14 12,27 19,39 8,14 20,17 34,10 24,-13 63,-34 117,-65l-40 -69c-15,2 -29,3 -42,3 0,-5 0,-12 -1,-19l-68 39 -8 -15 113 -65 -23 -40 -115 66 -8 -15 129 -75zm-13 175l13 11c-17,18 -34,36 -52,55l-14 -13c4,-3 7,-7 11,-10 -9,-14 -18,-27 -26,-38 -4,-5 -9,-11 -14,-16l10 -14c5,3 12,4 18,3 23,-3 49,-8 79,-17l5 18c-30,7 -58,12 -85,17 8,11 16,23 24,35 11,-10 21,-21 31,-31zm-4 -128l9 15 -42 24c-27,15 -49,25 -66,30l9 3c-6,22 -12,43 -18,60l-19 -7c7,-17 14,-35 20,-54 -19,4 -42,1 -69,-8 3,-6 5,-12 6,-18 22,9 41,12 57,9 15,-1 37,-10 65,-27l48 -27zm-34 276c37,42 73,64 108,64l-57 -99 15 -8 61 105c13,-1 43,-15 89,-42l10 17c-45,25 -75,39 -89,43l45 78 -15 8 -48 -83c-3,0 -6,0 -9,0 2,29 3,66 2,111l-20 -1c2,-42 2,-79 1,-111 -33,-5 -67,-26 -102,-62 3,-4 6,-11 9,-20zm165 -89l15 -9 106 185 -13 8c-22,3 -42,4 -59,4 0,-8 -1,-15 -2,-20 15,1 31,0 49,-2l-96 -166zm-48 39l16 3c0,24 -1,46 -3,67l-19 -2c3,-23 5,-46 6,-68zm45 2l16 2c0,22 -1,44 -3,64l-18 -2c2,-20 4,-42 5,-64zm12 353c21,11 44,18 66,22 20,-23 50,-47 91,-73l-65 -112 16 -9 64 111c11,-7 23,-14 35,-22l10 17c-13,7 -24,15 -36,22l43 73 -16 9 -42 -73c-34,21 -60,41 -78,60 27,3 54,1 82,-5l2 21c-34,5 -67,5 -98,1 -9,14 -14,27 -15,39 0,11 5,15 16,11 11,-4 23,-8 35,-13 0,7 1,13 3,19 -18,7 -31,11 -41,13 -12,4 -21,1 -27,-9 -5,-8 -6,-17 -5,-28 2,-12 7,-23 14,-35 -21,-4 -41,-11 -60,-20 2,-5 4,-11 6,-19zm81 -137l43 75 -73 42 -8 -15 9 -5 -26 -45 -14 8 -9 -15 78 -45zm-112 41c19,24 44,56 76,94 -6,4 -11,7 -15,10 -23,-29 -48,-59 -75,-90l14 -14zm132 28l-26 -45 -34 19 26 45 34 -19zm115 24l16 2c0,15 -1,31 -2,47l-18 -3c2,-15 3,-30 4,-46zm82 156c20,36 47,75 79,117l-12 15c-13,-19 -25,-37 -36,-53 -15,9 -32,20 -52,33l32 56 -15 8 -31 -55c-36,25 -57,47 -65,66 -3,9 -4,16 -1,19 1,3 4,3 10,1 8,-3 19,-7 30,-13 1,7 2,13 3,18 -13,6 -23,11 -32,13 -13,5 -23,3 -28,-6 -6,-10 -5,-24 2,-40 11,-23 35,-48 72,-73l-26 -45 -73 42c16,10 30,18 44,26 -6,5 -10,9 -14,13 -20,-13 -36,-22 -48,-28 -6,-3 -11,-5 -16,-7l7 -18c7,2 15,1 23,-4l147 -85zm-137 -19c9,7 18,13 27,20l47 -28 -14 -24 14 -9 15 25 38 -22 9 16 -38 22 13 23 -14 8 -14 -23 -40 23c7,6 15,11 23,16 -6,4 -12,8 -16,11 -8,-5 -16,-11 -25,-17l-68 40c-16,9 -27,7 -34,-5 -3,-5 -7,-12 -11,-19 5,-4 10,-8 15,-12 4,7 7,13 9,16 3,6 8,7 14,3l59 -34c-8,-6 -17,-11 -26,-17l17 -13zm158 83c-10,-15 -19,-28 -26,-40l-50 29 25 43c15,-10 32,-20 51,-32zm-161 71l15 6c-3,12 -6,24 -10,36l-17 -6c5,-11 9,-23 12,-36zm101 222l66 -38 -35 -61c-30,14 -59,20 -86,16 2,-6 5,-13 7,-20 18,2 36,-1 53,-6 17,-6 39,-17 66,-32l74 -43 98 169 -165 95c-17,10 -29,7 -38,-9 -6,-10 -12,-20 -18,-33 4,-3 9,-7 15,-13 6,13 12,23 16,30 5,9 11,11 19,6l39 -22 -36 -61 -66 38 -9 -16zm90 -31l36 61 38 -22 -35 -61 -39 22zm128 8l-35 -61 -39 22 35 61 39 -22zm-171 -83l34 59 39 -22 -34 -59c-13,8 -26,16 -39,22zm92 -53l-38 23 34 58 38 -22 -34 -59zm-23 366l-9 -17 145 -83 33 57 59 -34 9 17 -58 34 32 55 -120 70c-16,9 -29,6 -38,-10 -5,-9 -12,-21 -20,-36 5,-4 10,-8 15,-13 7,14 13,25 18,33 5,9 11,12 19,7l20 -11 -56 -97 -49 28zm64 -37l56 97 25 -15 -56 -97 -25 15zm122 59l-56 -97 -26 15 56 97 26 -15zm-131 -128c1,7 3,14 4,21 -31,9 -62,18 -91,27l-5 -21c29,-7 60,-16 92,-27zm151 86c17,5 34,8 52,9l-2 22c-16,-3 -33,-7 -54,-12l4 -19zm-99 -135c-2,15 -4,32 -7,53 -9,-2 -16,-4 -21,-5 5,-23 8,-41 10,-52l18 4zm58 -23c-2,15 -5,33 -10,53 -7,-2 -14,-4 -19,-5 5,-23 9,-41 12,-52l17 4zm13 50l16 6c-2,10 -7,27 -15,52l-19 -8c9,-24 15,-40 18,-50zm99 180l34 60c6,-3 12,-7 18,-10l8 15c-5,3 -11,6 -17,10l20 36 18 -10 9 15 -18 10 29 50 -47 27 -9 -15 5 -3 -20 -35 -19 11 35 59c-11,6 -19,10 -27,13 -11,4 -19,0 -26,-11 -1,-1 -2,-3 -3,-6l-51 29 -8 -15 42 -24 -60 -104 -45 26 -9 -15 45 -26c-8,-6 -17,-14 -27,-23 3,-4 6,-10 9,-17 25,28 48,42 69,44l-27 -46 47 -18 28 49c6,-2 12,-6 19,-9l-34 -60 12 -7zm-6 190c4,8 7,15 10,20 3,6 7,8 12,6 3,-1 6,-2 9,-4l-26 -44 -20 12 -9 -15 21 -12 -26 -45c-11,1 -22,-1 -34,-6l55 97c3,-3 5,-5 8,-9zm-67 -37l8 15c-8,5 -17,9 -25,11 9,36 17,70 22,101l-19 1c-6,-34 -12,-67 -19,-100 -19,0 -45,-23 -78,-68 5,-6 8,-12 10,-16 22,30 41,51 58,63 10,7 24,4 43,-7zm52 -48l24 41 18 -11 -21 -38c-8,4 -15,7 -21,8zm-29 -50l20 35c6,-2 13,-4 21,-8l-21 -35 -20 8zm62 36l21 37 18 -10 -20 -36c-7,3 -13,7 -19,9zm68 77l-20 -35 -18 10 20 35 18 -10z"/>
   <path class="fil9" d="M7894 7453c0,27 -6,48 -18,62 -13,15 -31,24 -57,26 -25,3 -59,4 -100,4 -8,-33 -16,-64 -26,-93 44,3 68,4 72,4 26,0 40,-13 40,-39l0 -58 -133 0 0 178 -90 0 0 -178 -138 0c-7,94 -25,159 -54,196 -27,-19 -55,-37 -83,-53 35,-47 52,-130 50,-250l0 -301 537 0 0 502zm-447 -338l135 0 0 -79 -135 0 0 79zm358 -79l-133 0 0 79 133 0 0 -79zm-358 240l135 0 0 -79 -135 0 0 79zm225 0l133 0 0 -79 -133 0 0 79zm390 -260l214 0c-12,-27 -22,-48 -30,-64l93 -31c11,21 26,53 46,95l203 0 0 330 -88 0 0 -33 -354 0c-10,101 -38,181 -84,240 -24,-31 -46,-57 -65,-78 43,-61 65,-140 65,-239l0 -220zm438 210l0 -124 -350 0 0 124 350 0z"/>
   <path class="fil7" d="M3654 12724c0,153 -28,268 -85,345 -1,-2 -25,-24 -73,-67 47,-59 70,-155 67,-289l0 -202 233 0c-7,-19 -15,-38 -22,-57l101 -22c10,26 20,53 29,79l218 0 0 84 -468 0 0 129zm541 -62l74 0c-19,-13 -40,-25 -63,-37 43,-54 76,-115 97,-183l85 23c-7,17 -13,34 -20,50l104 0 0 -82 92 0 0 82 221 0 0 77 -221 0 0 70 257 0 0 77 -626 0 0 -77zm93 0l184 0 0 -70 -141 0c-14,26 -28,49 -43,70zm-22 403l0 -280 484 0 0 280 -87 0 0 -34 -310 0 0 34 -87 0zm397 -201l-310 0 0 88 310 0 0 -88zm222 90l265 0 0 -119 -197 0 0 -83 197 0 0 -116 -227 0 0 -84 247 0c-14,-28 -30,-56 -48,-83l87 -40c19,29 39,60 58,94l-62 29 272 0 0 84 -231 0 0 116 201 0 0 83 -201 0 0 119 265 0 0 86 -626 0 0 -86z"/>
   <path class="fil8" d="M10691 12489l251 0 -13 -52 107 -4 7 56 255 0 0 71 -607 0 0 -71zm25 131l126 0 -36 -45 104 0 33 45 102 0c16,-19 28,-34 36,-45l103 0c-13,15 -27,30 -40,45l132 0 0 328c0,30 -6,53 -18,71 -11,17 -27,29 -48,34 -20,5 -64,7 -132,8 -6,-34 -11,-61 -16,-80 24,3 48,4 71,4 38,0 58,-18 58,-54l0 -115 -21 26 -46 -33 0 159 -180 0 0 30 -78 0 0 -181 -41 29c0,-1 -9,-12 -25,-33l0 247 -84 0 0 -440zm206 71l46 51c-17,13 -34,26 -51,39l165 0 -60 -39 42 -49c43,25 86,50 127,76l0 -82 -391 0 0 91c45,-30 85,-59 122,-87zm124 207l0 -51 -102 0 0 51 102 0zm394 -370l214 0c-12,-26 -22,-47 -30,-63l94 -32c10,22 26,54 46,95l203 0 0 331 -89 0 0 -34 -354 0c-10,102 -38,182 -83,241 -25,-31 -47,-57 -66,-78 43,-61 65,-140 65,-239l0 -221zm438 211l0 -124 -349 0 0 124 349 0z"/>
   <path class="fil1" d="M21829 5739c2901,0 5252,2352 5252,5252 0,2901 -2351,5253 -5252,5253 -2901,0 -5252,-2352 -5252,-5253 0,-2900 2351,-5252 5252,-5252zm0 1363c2148,0 3889,1742 3889,3889 0,2148 -1741,3889 -3889,3889 -2148,0 -3889,-1741 -3889,-3889 0,-2147 1741,-3889 3889,-3889z"/>
   <path class="fil0 str0" d="M21841 7145c2128,0 3854,1726 3854,3855 0,2128 -1726,3854 -3854,3854 -2129,0 -3855,-1726 -3855,-3854 0,-2129 1726,-3855 3855,-3855z"/>
   <path class="fil2 str1" d="M21828 5923c724,0 1311,586 1311,1310 0,724 -587,1311 -1311,1311 -723,0 -1310,-587 -1310,-1311 0,-724 587,-1310 1310,-1310z"/>
   <path class="fil2 str5" d="M18434 11432c724,0 1311,586 1311,1310 0,724 -587,1311 -1311,1311 -724,0 -1311,-587 -1311,-1311 0,-724 587,-1310 1311,-1310z"/>
   <path class="fil2 str6" d="M25223 11432c724,0 1311,586 1311,1310 0,724 -587,1311 -1311,1311 -724,0 -1311,-587 -1311,-1311 0,-724 587,-1310 1311,-1310z"/>
   <g>
    <path class="fil10" d="M23171 12983l-2994 0 0 -57 2994 0 0 57zm204 -29l-405 174 5 -11 5 -10 4 -11 5 -11 3 -11 4 -11 3 -11 3 -11 3 -10 2 -11 2 -11 1 -11 1 -11 1 -11 1 -11 0 -11 0 -10 -1 -11 -1 -11 -1 -11 -1 -11 -2 -11 -2 -11 -3 -10 -3 -11 -3 -11 -4 -11 -3 -11 -5 -11 -4 -11 -5 -10 -5 -11 0 0 405 173z"/>
   </g>
   <g>
    <path class="fil11" d="M18944 11135l53 -438 0 0 6 10 7 9 8 10 7 9 7 9 8 8 8 9 8 7 8 8 8 7 9 7 8 7 9 7 9 6 9 6 9 5 10 6 10 5 9 4 10 5 11 4 10 4 10 3 11 3 11 3 11 3 11 2 12 2 11 2 12 2 12 1 12 1 -354 264zm1624 -2755l-1497 2593 -50 -29 1497 -2593 50 29z"/>
   </g>
   <g>
    <path class="fil4" d="M23352 8556l50 -29 1497 2593 -50 29 -1497 -2593zm-77 -191l353 265 -12 0 -12 2 -11 1 -12 2 -11 2 -11 2 -11 3 -11 3 -11 3 -10 4 -11 3 -10 4 -10 5 -10 5 -9 5 -10 5 -9 5 -9 6 -9 6 -9 7 -9 7 -8 7 -9 7 -8 8 -8 8 -7 8 -8 8 -7 9 -8 9 -7 10 -7 9 -7 10 0 0 -52 -438z"/>
   </g>
   <path class="fil0 str4" d="M21828 9828c463,0 838,375 838,837 0,463 -375,837 -838,837 -462,0 -837,-374 -837,-837 0,-462 375,-837 837,-837z"/>
   <path class="fil6" d="M21611 10838c-22,10 -50,16 -85,16 -46,0 -81,-14 -108,-41 -26,-27 -40,-63 -40,-108 0,-47 15,-86 45,-116 29,-30 68,-45 114,-45 30,0 54,3 74,11l0 62c-20,-12 -43,-18 -69,-18 -29,0 -53,9 -70,28 -18,19 -27,43 -27,73 0,30 9,53 25,71 17,18 40,27 68,27 27,0 51,-6 73,-19l0 59zm337 10l-70 0 -22 -68 -109 0 -22 68 -70 0 110 -299 75 0 108 299zm-107 -118l-35 -104c-2,-6 -3,-15 -4,-26l-2 0c-1,9 -2,18 -5,26l-34 104 80 0zm435 118l-66 0 -126 -194c-7,-10 -12,-18 -15,-24l-1 0c1,10 2,26 2,48l0 170 -61 0 0 -299 70 0 122 188c8,13 13,21 15,24l1 0c-1,-7 -2,-21 -2,-41l0 -171 61 0 0 299z"/>
   <g>
    <path class="fil12" d="M20839 11335l-1006 550 -28 -50 1006 -551 28 51zm164 -124l-272 347 0 -12 -1 -11 -1 -12 -2 -12 -2 -11 -2 -11 -2 -11 -3 -11 -3 -11 -3 -11 -4 -10 -4 -10 -4 -11 -4 -9 -5 -10 -5 -10 -5 -9 -6 -10 -6 -9 -6 -9 -7 -8 -7 -9 -7 -9 -7 -8 -8 -8 -8 -8 -8 -8 -9 -7 -9 -8 -9 -7 -10 -7 -10 -7 0 0 439 -43z"/>
   </g>
   <g>
    <path class="fil4" d="M22892 11335l28 -51 1006 551 -28 50 -1006 -550zm-164 -124l439 43 -10 7 -10 7 -9 7 -9 8 -8 7 -9 8 -8 8 -8 8 -7 8 -7 9 -7 9 -7 8 -6 9 -6 9 -6 10 -5 9 -5 10 -5 10 -4 9 -4 11 -4 10 -4 10 -3 11 -3 11 -3 11 -2 11 -2 11 -2 11 -2 12 -1 12 -1 11 0 12 0 0 -272 -347z"/>
   </g>
   <g>
    <path class="fil5" d="M21866 9460l-58 2 -24 -743 58 -2 24 743zm-22 205l-187 -400 11 5 11 5 11 4 11 4 11 3 11 4 11 3 11 2 11 2 11 2 11 2 11 1 10 1 11 0 11 0 11 0 11 0 11 -1 11 -1 10 -2 11 -2 11 -2 11 -3 11 -2 10 -4 11 -3 11 -4 11 -4 10 -5 11 -5 11 -5 10 -6 0 0 -160 411z"/>
   </g>
   <path class="fil13" d="M21075 13199l145 0 0 -46 26 0 0 46 138 0 0 23 -138 0 0 47 90 0 0 22c-19,42 -46,78 -82,106 35,19 80,32 134,40 -7,11 -13,20 -18,28 -60,-12 -107,-29 -140,-51 -35,22 -82,40 -142,56 -5,-10 -9,-18 -14,-25 58,-13 103,-29 135,-47 -31,-27 -55,-62 -71,-106l-32 0 0 -23 114 0 0 -47 -145 0 0 -23zm230 93l-141 0c16,39 38,69 68,91 33,-25 57,-55 73,-91zm205 -66l147 0 0 -70 25 0 0 70 47 0 0 24 -47 0 0 162c0,33 -15,50 -45,50 -10,0 -26,0 -47,0 -2,-8 -3,-18 -6,-29 21,2 37,3 48,3 9,0 16,-2 19,-7 4,-4 6,-12 6,-25l0 -154 -147 0 0 -24zm-93 79c30,-41 54,-92 73,-152l26 10c-8,24 -17,46 -27,66l0 238 -25 0 0 -187c-12,21 -24,40 -37,56 -4,-14 -7,-25 -10,-31zm114 -4l21 -14c13,19 29,44 46,74l-23 14c-15,-29 -29,-54 -44,-74zm410 114c-18,9 -41,14 -69,14 -35,0 -63,-11 -85,-34 -21,-22 -31,-52 -31,-89 0,-40 12,-72 35,-96 24,-24 54,-36 91,-36 24,0 43,3 59,10l0 33c-18,-10 -37,-15 -58,-15 -28,0 -51,10 -68,28 -17,18 -26,43 -26,74 0,30 8,53 24,71 17,17 38,26 64,26 24,0 46,-6 64,-17l0 31zm263 10l-35 0 -26 -68 -103 0 -23 68 -36 0 95 -247 34 0 94 247zm-70 -96l-38 -102c-1,-4 -2,-9 -4,-18l0 0c-2,8 -3,14 -4,18l-37 102 83 0zm327 96l-38 0 -124 -192c-4,-6 -6,-11 -9,-16l-1 0c1,5 2,17 2,34l0 174 -32 0 0 -247 40 0 121 189c6,9 9,14 10,17l1 0c-1,-7 -2,-19 -2,-36l0 -170 32 0 0 247z"/>
   <path class="fil14" d="M19033 10200l68 -117 137 79 -57 97 18 10 -12 20 -154 -89zm-22 -44l-21 -12 93 -160 219 126c23,14 27,34 12,60 -7,11 -15,25 -25,42 -6,-3 -14,-5 -25,-9 10,-14 19,-29 27,-42 8,-14 5,-25 -8,-33l-192 -110 -80 138zm-34 97l12 -22 217 126 -12 21 -217 -125zm185 -5l44 -77 -39 -23 -45 77 40 23zm-53 -134l-45 78 39 22 45 -77 -39 -23zm-165 101l-5 -24c22,-6 42,-12 62,-16l5 27c-20,3 -40,8 -62,13zm438 -209c16,-39 24,-74 25,-103 -18,13 -37,26 -57,41 -5,-14 -11,-27 -18,-40l-26 46 -18 -11 33 -57c-7,-12 -14,-23 -21,-33l20 -16c5,9 10,17 14,26l62 -107 18 11 -21 36c16,19 27,40 33,62 23,-18 46,-35 68,-51l14 24c-23,14 -49,32 -78,52 2,35 -5,75 -21,121 -7,-1 -16,-1 -27,-1zm-147 15c4,-15 8,-30 12,-44l-64 -37 -20 35 -20 -11 20 -35 -51 -30 12 -21 51 30 19 -31 20 11 -19 32 57 33c2,-11 4,-21 6,-31 9,5 16,8 23,11 -2,11 -5,22 -7,32l85 50c20,11 25,26 15,44 -4,7 -9,15 -15,26 -8,-4 -16,-7 -25,-10 7,-11 13,-18 15,-23 5,-8 2,-15 -7,-20l-73 -42c-3,15 -6,29 -8,42l-26 -11zm1 -113l62 -108c-10,-21 -19,-40 -28,-57l23 -14c6,16 12,32 18,49l33 -58 19 11 -109 188 -18 -11zm-61 -49l45 -79c-11,0 -22,0 -33,0l2 -24c13,0 27,0 40,1l-1 9 45 -78 19 11 -99 170 -18 -10zm186 53c15,-12 30,-24 44,-35 -3,-21 -11,-40 -25,-55l-34 59c5,11 10,21 15,31zm-139 -60l-2 -22c15,-3 31,-5 47,-6l1 24c-15,1 -31,2 -46,4zm224 -246l39 -67c-13,-8 -30,-18 -50,-29l12 -22c16,9 33,19 50,30l46 -79 19 12 -44 77c59,18 110,12 153,-20 3,10 6,19 9,29 -41,25 -86,31 -137,19 34,34 51,78 52,134 -9,0 -18,2 -27,3 2,-61 -19,-108 -64,-141l-38 66 -20 -12zm26 155c0,-35 -8,-68 -24,-101 -8,-1 -16,-2 -24,-2 3,20 4,41 4,62 -6,0 -14,1 -24,3 1,-22 0,-44 -3,-64 -16,1 -33,4 -51,9l-5 -21c18,-6 35,-10 52,-11 -3,-16 -8,-32 -14,-47l21 -11c7,19 12,38 16,56 40,0 77,11 111,32 34,21 42,46 25,75 -5,8 -10,17 -17,28 -7,-3 -15,-6 -24,-9 8,-11 14,-21 19,-30 10,-16 5,-31 -15,-43 -14,-9 -29,-16 -44,-20 12,28 19,58 21,90 -7,1 -14,2 -24,4zm-180 -110l43 -76 -30 -18 13 -21 30 17 44 -76 -31 -17 13 -22 30 18 44 -76 20 11 -44 76 18 11 -12 21 -19 -10 -43 75 18 11 -13 22 -18 -11 -44 76 -19 -11zm177 -171l-8 -20c18,-9 34,-17 50,-24l9 21c-14,6 -31,13 -51,23zm171 -24c4,-9 8,-18 11,-27l-171 -99 -12 21 -19 -11 78 -136 10 6 70 -121 17 10c62,50 103,95 123,134 35,-3 66,-13 94,-29 2,8 6,17 10,28 -25,12 -57,20 -94,24 14,33 23,67 26,103 -10,1 -19,3 -26,4l17 10 -12 21 -60 -35c-14,37 -27,72 -40,106l-22 -9zm-86 -233l-9 -5 -10 17 158 91c4,-12 8,-23 13,-35 7,5 13,9 18,12 -4,11 -9,22 -13,33l45 26c0,-34 -8,-69 -23,-104 -46,2 -104,-13 -173,-45l-6 10zm59 -102l-41 72c56,27 106,40 150,41 -18,-31 -54,-69 -109,-113zm71 227l-41 -23 -31 54 49 28c7,-19 15,-38 23,-59zm-89 21l31 -54 -43 -25 -31 54 43 25zm-60 -35l31 -54 -43 -24 -31 54 43 24zm231 -308c18,-64 11,-108 -20,-132l-25 45c9,14 17,28 24,43 -8,3 -15,7 -23,12 -11,-30 -27,-56 -50,-78l17 -18c7,7 13,15 18,22l76 -131 17 10 27 40c-7,5 -13,10 -20,15l-20 -30 -28 49c5,5 9,10 14,15 35,-1 70,-20 106,-58 4,9 8,17 12,25 -35,32 -70,50 -104,52 15,26 17,64 5,115 -7,1 -16,2 -26,4zm-1 47l111 -193 90 52 -13 22 -70 -41 -86 149 70 41 -12 22 -90 -52zm-55 -74c10,1 18,1 26,0 4,32 9,65 14,100l-27 3c-3,-36 -7,-71 -13,-103zm-88 14c19,-10 38,-19 58,-28l9 24c-19,7 -38,16 -59,25l-8 -21zm234 -30c20,11 35,22 44,30 38,-34 75,-66 112,-95l14 23c-35,27 -72,57 -112,91 15,25 7,73 -23,144 -9,-1 -18,-1 -28,0 30,-65 40,-108 29,-131 -5,-12 -21,-26 -48,-41l12 -21zm66 -332l21 -36c-8,-10 -17,-20 -26,-31l-41 70 80 46c72,42 116,86 131,133 -8,1 -17,3 -26,6 -14,-42 -53,-81 -116,-118l-99 -57 111 -192 18 11 -44 78c8,11 16,23 23,34l42 -73 114 65 -12 20 -7 -4 -21 36 65 37c20,12 25,27 13,46 -3,7 -8,14 -14,24 -6,-2 -13,-4 -21,-7 6,-9 11,-17 15,-23 5,-9 3,-16 -6,-21l-63 -36 -19 33 7 4 -12 20 -113 -65zm29 140c8,-4 15,-9 20,-14 27,26 58,55 93,88l-19 17c-32,-33 -63,-63 -94,-91zm70 -109l52 -89 -26 -15 -52 89 26 15zm-18 -130l-51 90 25 14 52 -89 -26 -15zm181 52l3 25c-27,2 -55,5 -82,10l-2 -23c29,-6 56,-10 81,-12zm-98 175c-8,-25 -19,-50 -32,-74l21 -12c14,27 25,53 33,77l-22 9zm-223 -13c18,-9 40,-18 65,-27 4,11 7,19 9,26 -26,8 -48,16 -67,24l-7 -23zm-65 -53c20,-8 41,-16 64,-24 2,11 5,19 7,27 -25,7 -46,13 -64,20l-7 -23z"/>
   <path class="fil8" d="M23943 9058c-18,-11 -33,-28 -47,-52 -18,-31 -22,-61 -13,-90 9,-30 29,-54 61,-72 35,-20 68,-26 101,-18 33,9 59,29 77,61 12,20 19,39 21,56l-29 16c0,-20 -6,-39 -17,-57 -13,-24 -33,-39 -57,-45 -25,-6 -50,-1 -77,15 -26,14 -42,33 -49,56 -7,23 -4,45 9,68 12,21 27,37 46,47l-26 15zm25 65l214 -124 36 61c18,33 24,65 18,98 -6,32 -26,58 -57,76 -34,19 -66,24 -99,14 -32,-10 -58,-32 -78,-66l-34 -59zm206 -82l-165 96 18 31c15,27 35,44 59,50 23,7 48,3 75,-13 27,-15 42,-35 47,-58 4,-23 -1,-48 -16,-73l-18 -33zm29 489l-19 -32 105 -204c3,-6 6,-11 10,-16l-1 0c-4,3 -14,9 -29,18l-151 87 -16 -28 215 -123 20 35 -104 199c-5,9 -8,15 -9,17l0 1c6,-5 16,-11 30,-20l148 -85 16 28 -215 123zm153 3l106 183c-32,18 -64,34 -94,49 -36,18 -63,12 -80,-19 -9,-15 -18,-31 -26,-48 7,-6 14,-11 21,-18 6,16 14,32 24,50 11,19 27,23 50,12 21,-10 45,-23 71,-37l-49 -85c-32,16 -61,24 -86,24 -32,0 -65,-12 -97,-38 3,-8 6,-17 9,-26 29,24 58,36 88,37 22,0 46,-6 73,-19l-31 -54 21 -11zm181 48l20 14c-38,49 -54,106 -49,171 -14,-3 -24,-5 -32,-6 0,-67 20,-127 61,-179zm-194 -91c49,22 104,33 166,33l1 26c-65,1 -124,-10 -177,-32 4,-8 7,-17 10,-27zm247 310l33 58c22,-6 45,-15 70,-25l11 26c-23,9 -45,16 -67,23l88 153 -20 11 -92 -158c-14,4 -27,7 -41,10l79 137 -19 11c-37,5 -74,1 -111,-12 -1,35 6,72 19,110 -14,-3 -25,-5 -34,-6 -7,-35 -10,-73 -8,-114 -30,-15 -65,-40 -105,-77 5,-9 8,-19 11,-28 38,38 70,65 96,80 7,-36 23,-69 49,-97 -62,9 -120,5 -172,-11 4,-9 7,-17 10,-25 62,19 133,19 213,-1l-44 -77 20 -12c22,-2 44,-6 65,-10l7 26c-20,3 -39,6 -58,8zm28 222l-58 -100c-20,23 -33,52 -37,87 33,13 65,17 95,13zm94 -111l23 3c-1,24 -3,49 -6,72l-27 -4c5,-24 8,-48 10,-71zm21 259c46,47 87,63 123,48l-25 -44c-18,1 -34,1 -50,-1 1,-8 1,-17 1,-26 31,6 62,4 93,-4l7 24c-10,2 -19,3 -28,4l76 132 -18 10 -48 2c-1,-8 -2,-16 -3,-25l36 -1 -28 -49c-7,1 -14,3 -20,4 -17,31 -18,72 -3,121 -10,-1 -19,-2 -28,-2 -10,-46 -8,-85 7,-116 -30,0 -64,-17 -103,-53 4,-7 7,-15 11,-24zm-40 -25l111 192 -91 52 -12 -21 71 -41 -86 -149 -71 41 -12 -22 90 -52zm91 -10c-6,7 -10,15 -14,22 -29,-12 -60,-25 -93,-38l11 -25c33,16 65,29 96,41zm31 -84c0,22 -2,43 -4,64l-25 -4c3,-19 5,-41 7,-63l22 3zm-90 218c-20,12 -37,19 -49,23 11,50 20,98 27,145l-27 0c-5,-44 -13,-91 -22,-142 -30,0 -67,-31 -114,-92 5,-8 10,-16 14,-25 41,58 74,89 99,91 13,2 33,-5 59,-21l13 21zm254 223l21 36c13,-2 26,-4 39,-7l-40 -70 -80 46c-72,42 -132,57 -180,47 3,-8 6,-16 8,-26 43,9 96,-5 160,-42l99 -57 111 192 -19 11 -45 -77c-14,1 -28,2 -41,3l42 73 -114 65 -11 -20 7 -4 -21 -35 -65 37c-19,12 -35,8 -46,-12 -3,-6 -8,-14 -13,-24 5,-4 10,-9 16,-15 5,10 9,18 13,25 5,8 12,10 21,5l63 -36 -19 -34 -8 4 -11 -20 113 -65zm-136 -45c0,9 0,17 2,25 -36,10 -76,23 -122,36l-5 -25c44,-11 86,-23 125,-36zm60 116l51 89 26 -15 -51 -89 -26 15zm121 49l-52 -90 -25 15 51 89 26 -14zm-135 130l-24 -10c13,-24 24,-49 33,-75l21 9c-10,28 -20,54 -30,76zm-103 -172c26,6 53,9 81,9l-1 24c-30,-1 -58,-4 -83,-9l3 -24zm123 -187c-2,20 -5,44 -9,70 -11,-2 -20,-4 -27,-5 6,-27 10,-50 13,-70l23 5zm78 -29c-2,21 -6,43 -11,67 -10,-3 -19,-6 -27,-7 7,-26 12,-47 15,-65l23 5z"/>
   <path class="fil9" d="M21785 7487c0,27 -6,48 -18,63 -13,14 -32,23 -57,26 -26,3 -59,4 -101,3 -7,-33 -15,-64 -25,-93 44,3 68,4 71,4 27,0 41,-13 41,-39l0 -58 -133 0 0 179 -90 0 0 -179 -138 0c-7,94 -25,160 -54,197 -28,-20 -55,-38 -83,-54 35,-47 51,-130 50,-250l0 -300 537 0 0 501zm-448 -338l136 0 0 -79 -136 0 0 79zm359 -79l-133 0 0 79 133 0 0 -79zm-359 241l136 0 0 -79 -136 0 0 79zm226 0l133 0 0 -79 -133 0 0 79zm389 -261l214 0c-11,-26 -21,-47 -30,-64l94 -31c11,22 26,53 46,95l203 0 0 330 -88 0 0 -33 -354 0c-10,102 -38,182 -84,241 -25,-31 -46,-57 -66,-79 44,-60 65,-140 65,-238l0 -221zm439 211l0 -125 -350 0 0 125 350 0z"/>
   <path class="fil13" d="M17841 12141l217 0c1,-33 2,-65 2,-94l77 0c0,34 0,66 -1,94l215 0 0 382c0,30 -7,52 -21,67 -13,16 -33,25 -58,27 -26,2 -61,3 -106,2 -5,-23 -11,-48 -18,-77 26,2 51,3 76,3 14,0 23,-1 28,-3 6,-1 10,-5 14,-11 3,-6 5,-14 5,-24l0 -289 -137 0c-2,31 -6,58 -10,80 40,30 88,67 143,112l-59 59c-26,-27 -64,-62 -112,-105 -25,43 -62,80 -112,113 -20,-23 -40,-44 -60,-61 83,-50 127,-116 132,-198l-135 0 0 405 -80 0 0 -482zm695 488l0 -178c-19,9 -38,17 -58,25 -10,-21 -23,-44 -38,-69 104,-31 192,-81 262,-151l76 0 -8 10c69,67 153,113 253,137 -14,24 -26,49 -37,73 -21,-7 -41,-15 -61,-24l0 177 -76 0 0 -30 -237 0 0 30 -76 0zm134 -569l96 -12c6,14 13,32 21,54l210 0 0 128 -84 0 0 -61 -365 0 0 61 -85 0 0 -128 224 0c-6,-17 -12,-31 -17,-42zm179 406l-237 0 0 67 237 0 0 -67zm-195 -290l45 53c-53,39 -117,76 -192,112 -9,-18 -22,-40 -40,-67 65,-26 127,-59 187,-98zm151 4c61,29 125,61 190,96l-42 66c-54,-36 -116,-73 -186,-110l38 -52zm-75 140c-27,28 -61,55 -101,80l199 0c-38,-24 -70,-51 -98,-80zm-1242 630l58 0 0 -103 75 0 0 103 47 0 0 73 -47 0 0 85 44 -12c-1,31 -1,57 0,79l-44 12 0 152c0,31 -7,52 -21,62 -14,10 -47,14 -99,14 -3,-22 -8,-47 -14,-76l43 0c11,0 16,-7 16,-20l0 -111 -54 15 -6 -86 60 -12 0 -102 -58 0 0 -73zm222 -92l318 0 0 245 -318 0 0 -245zm243 65l-168 0 0 32 168 0 0 -32zm0 115l0 -31 -168 0 0 31 168 0zm-243 385c-32,-24 -54,-39 -63,-44 39,-44 63,-101 71,-172l68 15c-2,17 -5,33 -8,49 24,33 44,51 61,56l0 -128 -161 0 0 -68 389 0 0 68 -154 0 0 35 134 0 0 64 -134 0 0 39c50,1 103,0 157,-1 -4,18 -10,41 -15,69 -76,2 -137,1 -183,-2 -47,-2 -86,-23 -116,-60 -12,30 -27,57 -46,80zm524 -578l74 22c-13,43 -28,84 -44,123l0 422 -72 0 0 -273c-14,25 -30,50 -46,73 -5,-31 -12,-66 -23,-105 44,-69 81,-156 111,-262zm56 308l82 0 0 -125 -63 0 0 -75 63 0 0 -106 80 0 0 106 91 0 0 -106 79 0 0 106 65 0 0 75 -65 0 0 125 82 0 0 75 -414 0 0 -75zm162 0l91 0 0 -125 -91 0 0 125zm-161 214c42,-41 79,-84 113,-132l66 44c-33,45 -73,91 -119,139 -16,-15 -36,-32 -60,-51zm289 -129c41,40 81,83 122,128l-68 51c-32,-45 -70,-90 -114,-136l60 -43zm191 -347l230 0 -13 -48 99 -4 6 52 234 0 0 64 -556 0 0 -64zm22 119l116 0 -34 -41 96 0 30 41 94 0c14,-18 25,-31 33,-41l95 0c-13,14 -25,28 -38,41l121 0 0 301c0,27 -5,49 -16,65 -10,16 -25,26 -44,31 -19,4 -59,7 -121,8 -5,-32 -10,-56 -15,-74 22,3 44,4 65,4 36,0 53,-16 53,-49l0 -106 -18 24 -43 -30 0 145 -165 0 0 28 -71 0 0 -166 -38 27c0,-1 -8,-11 -23,-31l0 227 -77 0 0 -404zm189 66l42 46c-16,12 -31,24 -47,36l151 0 -54 -36 38 -45c40,23 79,46 116,70l0 -75 -358 0 0 83c41,-28 78,-54 112,-79zm114 189l0 -47 -94 0 0 47 94 0z"/>
   <path class="fil15" d="M24637 12542l141 0 0 -60 87 0 0 60 121 0 0 -60 86 0 0 60 140 0 0 76 -140 0 0 49 -86 0 0 -49 -121 0 0 49 -87 0 0 -49 -141 0 0 -76zm303 449c-4,-25 -11,-54 -19,-87 40,3 73,5 99,5 15,0 27,-3 35,-10 8,-7 13,-16 15,-28 2,-12 3,-44 4,-94l-189 0 0 283 -91 0 0 -283 -130 0 0 -76 503 0c-4,105 -7,169 -9,193 -2,24 -9,44 -19,59 -11,14 -25,25 -43,30 -18,6 -70,8 -156,8zm397 -340l174 0 0 -170 83 0 0 49 245 0 0 74 -245 0 0 47 198 0 0 222 -455 0 0 -222zm369 71l-283 0 0 80 283 0 0 -80zm74 164c25,47 47,93 68,141l-73 28c-24,-53 -45,-99 -65,-140l70 -29zm-440 5l72 30c-18,41 -42,89 -72,143l-69 -37c27,-47 50,-93 69,-136zm305 4c18,38 35,79 52,123l-77 23c-14,-42 -30,-83 -47,-123l72 -23zm-138 6c19,48 34,90 45,126l-76 19c-16,-52 -30,-94 -42,-125l73 -20z"/>
   <path class="fil13" d="M21216 12514l159 0 0 126 -23 0 0 -10 -113 0 0 10 -23 0 0 -126zm-50 286c30,-26 47,-61 51,-108l24 0c-1,15 -4,29 -7,42 14,20 31,34 53,41l0 -96 -99 0 0 -21 216 0 0 21 -93 0 0 36 80 0 0 20 -80 0 0 45c14,2 47,2 96,0 0,1 -3,9 -7,24 -25,0 -52,0 -79,-1 -43,-1 -74,-16 -95,-46 -9,23 -22,42 -39,58 -6,-6 -13,-11 -21,-15zm-77 -131c14,-6 27,-12 41,-19l0 -68 -38 0 0 -22 38 0 0 -59 24 0 0 59 41 0 0 22 -41 0 0 56c13,-6 25,-12 37,-19 1,9 2,17 3,26 -13,6 -26,13 -40,19l0 112c0,20 -7,32 -23,33 -11,1 -24,2 -38,1 -1,-9 -2,-18 -4,-26 12,1 22,2 30,2 8,0 11,-4 11,-12l0 -97c-13,6 -25,13 -38,20l-3 -28zm150 -59l113 0 0 -28 -113 0 0 28zm113 -76l-113 0 0 28 113 0 0 -28zm318 -32l26 0 0 71 46 0 0 23 -46 0 0 88 57 0 0 23 -232 0 0 -23 54 0 0 -88 -42 0 0 -23 42 0 0 -70 26 0 0 70 69 0 0 -71zm-238 151c34,-45 60,-96 79,-154l26 10c-11,28 -22,54 -34,78l0 227 -26 0 0 -181c-11,18 -22,34 -34,49 -3,-9 -6,-19 -11,-29zm169 31l69 0 0 -88 -69 0 0 88zm53 48l19 -16c34,31 60,57 79,78l-21 19c-22,-25 -47,-53 -77,-81zm-38 1c-25,30 -51,58 -78,82 -6,-7 -12,-13 -20,-19 27,-20 53,-47 76,-79l22 16zm255 -101c64,-16 99,-44 104,-83l-51 0c-8,16 -16,30 -26,43 -7,-5 -14,-9 -21,-14 20,-24 34,-51 42,-82l24 6c-3,9 -6,18 -10,26l152 0 0 20 -22 44c-7,-4 -15,-7 -23,-10l17 -33 -57 0c-2,7 -4,14 -6,20 18,30 53,51 103,63 -6,8 -11,16 -16,23 -45,-14 -77,-35 -97,-64 -15,26 -47,47 -97,62 -4,-6 -9,-13 -16,-21zm-41 23l222 0 0 104 -25 0 0 -82 -172 0 0 82 -25 0 0 -104zm37 -84c3,8 8,16 12,22 -25,19 -52,40 -79,62l-17 -22c30,-20 58,-41 84,-62zm-57 -70c18,12 36,24 53,36l-16 20c-16,-12 -33,-25 -51,-38l14 -18zm144 188c-1,23 -2,41 -5,53 48,16 95,32 139,49l-14 24c-40,-17 -85,-34 -134,-52 -15,26 -60,43 -137,53 -3,-8 -8,-16 -13,-25 70,-6 113,-19 127,-40 8,-10 12,-31 12,-62l25 0zm320 -109l41 0c5,-12 9,-25 14,-38l-81 0 0 92c0,84 -17,144 -49,180 -6,-7 -12,-13 -19,-20 29,-33 44,-86 44,-159l0 -114 222 0 0 21 -90 0c-6,13 -12,26 -18,38l84 0 0 131 -23 0 0 -8 -41 0 0 75c0,22 -11,34 -33,34 -7,0 -16,0 -28,-1 -1,-6 -2,-13 -4,-22 10,1 20,2 28,2 9,0 14,-5 14,-16l0 -72 -38 0 0 8 -23 0 0 -131zm-108 95c8,5 16,9 23,11 -9,36 -18,78 -29,124l-25 -8c12,-44 23,-86 31,-127zm131 6l102 0 0 -30 -102 0 0 30zm102 -80l-102 0 0 30 102 0 0 -30zm46 182l-20 16c-15,-23 -32,-45 -49,-67l18 -13c20,23 37,44 51,64zm-200 3c18,-19 34,-41 48,-65l20 12c-16,26 -33,49 -50,68l-18 -15zm-101 -200c17,12 36,26 56,43 -7,9 -13,16 -18,21 -20,-19 -38,-34 -54,-46l16 -18zm14 -82c17,13 34,27 52,43 -7,7 -14,14 -19,20 -19,-19 -35,-34 -49,-45l16 -18z"/>
   <g>
    <path class="fil16" d="M13244 11274l406 -174 0 0 -5 11 -5 11 -5 11 -4 11 -4 10 -4 11 -3 11 -3 11 -2 11 -2 11 -2 11 -2 10 -1 11 -1 11 0 11 -1 11 1 11 0 11 1 10 1 11 2 11 2 11 2 11 2 11 3 11 3 11 4 10 4 11 4 11 5 11 5 11 5 11 -406 -174zm320 -29l0 58 -116 0 0 -58 116 0zm174 0l0 58 -116 0 0 -58 116 0zm174 0l0 58 -116 0 0 -58 116 0zm173 0l0 58 -115 0 0 -58 115 0zm174 0l0 58 -116 0 0 -58 116 0zm174 0l0 58 -116 0 0 -58 116 0zm174 0l0 58 -116 0 0 -58 116 0zm174 0l0 58 -116 0 0 -58 116 0zm173 0l0 58 -115 0 0 -58 115 0zm174 0l0 58 -116 0 0 -58 116 0zm174 0l0 58 -116 0 0 -58 116 0zm174 0l0 58 -116 0 0 -58 116 0zm174 0l0 58 -116 0 0 -58 116 0zm173 0l0 58 -116 0 0 -58 116 0zm174 0l0 58 -116 0 0 -58 116 0zm174 0l0 58 -116 0 0 -58 116 0zm68 58l-10 0 0 -58 10 0 0 58zm203 -29l-405 174 5 -11 5 -11 5 -11 4 -11 4 -11 3 -10 4 -11 3 -11 2 -11 2 -11 2 -11 2 -11 1 -11 1 -10 0 -11 0 -11 0 -11 0 -11 -1 -11 -1 -11 -2 -10 -2 -11 -2 -11 -2 -11 -3 -11 -4 -11 -3 -11 -4 -10 -4 -11 -5 -11 -5 -11 -5 -11 0 0 405 174z"/>
   </g>
   <path class="fil6" d="M5302 5104c0,181 -34,318 -101,409 -1,-3 -30,-29 -87,-80 56,-70 82,-184 80,-343l0 -240 276 0c-9,-23 -18,-45 -27,-68l121 -26c12,32 23,63 34,94l258 0 0 100 -554 0 0 154zm642 -75l87 0c-23,-15 -48,-30 -75,-44 52,-64 90,-136 116,-216l100 26c-7,21 -15,41 -23,60l123 0 0 -97 109 0 0 97 263 0 0 91 -263 0 0 83 305 0 0 91 -742 0 0 -91zm109 0l219 0 0 -83 -167 0c-16,31 -34,59 -52,83zm-25 479l0 -333 574 0 0 333 -103 0 0 -41 -368 0 0 41 -103 0zm471 -239l-368 0 0 104 368 0 0 -104zm1017 -231c-21,27 -45,59 -72,97 -19,-14 -37,-29 -55,-45 -7,161 -12,259 -16,292 -3,34 -16,60 -37,78 -21,19 -51,28 -89,28 -52,0 -101,-1 -148,-2 -4,-42 -9,-81 -16,-115 66,6 114,8 143,8 17,0 28,-7 33,-23 5,-15 9,-79 12,-190l-188 0c-4,71 -14,125 -30,163 -16,38 -41,72 -75,103 -35,30 -78,57 -129,79 -32,-42 -58,-74 -79,-96 45,-18 82,-38 111,-60 29,-21 50,-45 63,-69 13,-25 21,-65 25,-120l-108 0 0 -61c-12,10 -25,19 -38,28 -24,-33 -47,-61 -69,-86 114,-80 200,-175 258,-286l102 44c-53,99 -119,185 -199,256l443 0c-77,-75 -141,-158 -192,-250l94 -49c65,112 150,204 256,276zm738 118c-38,67 -89,126 -151,177 57,25 135,45 231,60 -22,37 -44,73 -64,111 -103,-24 -191,-58 -263,-104 -75,43 -163,80 -264,111 -18,-33 -37,-66 -58,-97 85,-24 161,-52 228,-83 -36,-34 -70,-74 -100,-118 -58,93 -125,173 -201,238 -11,-48 -22,-90 -34,-127 99,-92 172,-200 221,-322l-190 0 0 -91c14,-41 27,-85 38,-130l103 11c-7,31 -17,70 -31,117l110 0c11,-43 23,-93 34,-150l110 9 -32 141 213 0c-29,-28 -58,-56 -87,-84l66 -63c47,36 86,69 118,98l-47 49 128 0 0 93 -419 0c-8,21 -17,45 -27,70l368 0 0 84zm-249 122c53,-37 94,-77 123,-118l-231 0c29,45 65,84 108,118zm398 -384l394 0 -8 -134 113 0c2,45 4,89 6,134l104 0c-21,-29 -43,-54 -64,-77l67 -51c30,31 59,63 87,97l-40 31 77 0 0 100 -224 0c11,164 27,272 46,323 19,52 37,78 54,78 4,0 8,-3 12,-8 4,-6 8,-21 14,-46 5,-25 10,-58 15,-99 34,22 68,40 99,53 -14,95 -30,154 -50,179 -20,24 -50,36 -90,36 -71,0 -121,-40 -149,-120 -29,-80 -49,-212 -62,-396l-401 0 0 -100zm33 182l343 0 0 100 -114 0 0 147 150 -22c-1,49 -2,86 -1,109l-399 58 -13 -113 155 -18 0 -161 -121 0 0 -100zm993 -163l67 138c20,-45 39,-92 57,-141l51 23 40 -18 62 133c19,-45 37,-93 54,-141l82 34c-25,76 -54,149 -85,219l80 177 -86 42 -45 -110c-25,48 -51,95 -77,141 -12,-9 -23,-18 -34,-26l-41 20 -58 -139c-30,55 -60,106 -92,153 -12,-12 -28,-25 -46,-40l0 126 -102 0 0 -714 689 0 0 582c0,39 -7,69 -22,90 -15,21 -36,34 -63,37 -27,4 -77,6 -150,6 -7,-41 -15,-77 -24,-107 36,4 72,6 109,6 33,0 49,-16 49,-48l0 -471 -486 0 0 65 71 -37zm-71 53l0 346c32,-49 61,-102 89,-157 -30,-66 -59,-129 -89,-189zm245 65c-18,45 -36,88 -55,129l53 113c19,-37 38,-75 57,-116l-55 -126zm557 -32c21,-1 36,-2 45,-2 20,-34 40,-73 61,-117l89 41c-50,87 -102,176 -157,268 38,-5 77,-10 118,-17 -3,34 -6,66 -6,95 -104,13 -176,25 -216,34l-30 -85c26,-25 56,-69 91,-131 -29,2 -55,5 -80,8l-29 -86c36,-43 79,-126 131,-248l93 37c-36,69 -73,137 -110,203zm200 511l0 -306 391 0 0 306 -98 0 0 -35 -194 0 0 35 -99 0zm-296 -44l-17 -106c63,-7 159,-20 287,-40 -3,43 -4,78 -4,105 -112,16 -201,29 -266,41zm589 -168l-194 0 0 82 194 0 0 -82zm-315 -330c59,-67 108,-136 146,-209l102 17c-12,21 -24,41 -36,59l218 0 0 91c-29,53 -69,100 -119,141 46,17 97,29 153,38 -11,38 -18,71 -23,99 -90,-20 -164,-46 -223,-77 -63,30 -137,56 -222,78 -14,-39 -27,-69 -38,-90 67,-14 124,-31 172,-49 -17,-16 -33,-34 -49,-53 -13,12 -23,23 -33,32 -12,-22 -28,-48 -48,-77zm156 -44c-4,6 -9,13 -15,20 21,29 47,55 77,77 41,-27 72,-60 93,-97l-155 0z"/>
   <path class="fil6" d="M18979 4878l282 0c1,-43 2,-83 2,-122l99 0c0,45 0,86 -1,122l278 0 0 495c0,38 -9,67 -26,87 -18,20 -43,32 -76,35 -34,2 -79,3 -138,2 -5,-29 -13,-62 -23,-99 34,2 67,3 99,3 17,0 30,-1 37,-3 7,-2 13,-7 17,-15 5,-8 7,-18 7,-30l0 -375 -178 0c-3,40 -7,75 -13,104 52,38 114,86 185,144l-76 77c-34,-35 -82,-80 -145,-135 -32,54 -81,103 -145,145 -25,-30 -52,-56 -78,-79 108,-65 165,-150 171,-256l-175 0 0 525 -103 0 0 -625zm900 633l0 -231c-24,11 -49,22 -76,33 -12,-28 -29,-58 -48,-90 135,-40 248,-106 339,-196l98 0 -10 14c90,86 199,145 327,177 -18,31 -34,63 -48,95 -27,-10 -53,-20 -78,-31l0 229 -98 0 0 -40 -308 0 0 40 -98 0zm173 -738l125 -15c7,18 16,41 27,70l272 0 0 166 -110 0 0 -79 -471 0 0 79 -110 0 0 -166 290 0c-9,-22 -17,-40 -23,-55zm233 526l-308 0 0 87 308 0 0 -87zm-254 -375l60 69c-70,49 -153,97 -249,144 -12,-22 -30,-51 -52,-86 84,-34 165,-77 241,-127zm196 5c80,38 162,79 246,124l-54 86c-70,-47 -151,-94 -241,-142l49 -68zm-96 181c-36,36 -79,71 -132,104l258 0c-49,-31 -91,-66 -126,-104zm1204 -72c-21,27 -45,59 -73,97 -18,-14 -37,-29 -54,-45 -7,161 -12,259 -16,292 -4,34 -16,60 -37,78 -22,19 -51,28 -89,28 -52,0 -102,-1 -148,-2 -4,-42 -10,-81 -16,-115 66,6 113,8 143,8 17,0 28,-7 33,-23 4,-15 8,-79 11,-190l-187 0c-4,71 -14,125 -30,163 -16,38 -42,72 -76,103 -34,30 -77,57 -129,79 -31,-42 -57,-74 -79,-96 45,-18 82,-38 112,-60 29,-21 50,-45 63,-69 12,-25 21,-65 25,-120l-108 0 0 -61c-12,10 -25,19 -38,28 -24,-33 -47,-61 -69,-86 114,-80 200,-175 258,-286l102 44c-53,99 -120,185 -199,256l443 0c-78,-75 -142,-158 -192,-250l94 -49c65,112 150,204 256,276zm528 469l-106 0 0 -348 -120 0 0 290 -104 0 0 -242c-30,32 -63,64 -97,94 -13,-44 -24,-79 -35,-107 82,-75 147,-154 196,-238l-185 0 0 -101 235 0c12,-30 23,-61 31,-93l106 13c-8,27 -18,54 -28,80l389 0 0 101 -435 0c-21,39 -44,77 -69,114l116 0 0 -97 106 0 0 97 228 0 0 246c0,32 -7,58 -21,76 -14,18 -32,29 -55,34 -22,4 -58,6 -106,6 -6,-41 -12,-75 -18,-100 25,2 40,3 47,3 33,0 50,-19 50,-55l0 -121 -125 0 0 348zm359 -613l394 0 -9 -134 114 0c1,45 3,89 6,134l104 0c-22,-29 -43,-54 -64,-77l67 -51c30,31 59,63 87,97l-41 31 78 0 0 100 -224 0c11,164 26,272 45,323 19,52 37,78 54,78 5,0 9,-3 13,-8 4,-6 8,-21 13,-46 6,-25 11,-58 15,-99 35,22 68,40 100,53 -14,95 -31,154 -50,179 -20,24 -50,36 -90,36 -71,0 -121,-40 -150,-120 -28,-80 -49,-212 -61,-396l-401 0 0 -100zm33 182l343 0 0 100 -114 0 0 147 150 -22c-1,49 -2,86 -1,109l-399 58 -13 -113 155 -18 0 -161 -121 0 0 -100zm993 -163l67 138c20,-45 39,-92 56,-141l52 23 40 -18 62 133c19,-45 37,-93 54,-141l82 34c-26,76 -54,149 -85,219l80 177 -86 42 -46 -110c-24,48 -50,95 -77,141 -11,-9 -22,-18 -33,-26l-41 20 -59 -139c-29,55 -59,106 -91,153 -13,-12 -28,-25 -46,-40l0 126 -102 0 0 -714 689 0 0 582c0,39 -7,69 -22,90 -15,21 -36,34 -63,37 -27,4 -77,6 -151,6 -7,-41 -14,-77 -23,-107 36,4 72,6 109,6 32,0 49,-16 49,-48l0 -471 -486 0 0 65 71 -37zm-71 53l0 346c31,-49 61,-102 89,-157 -30,-66 -60,-129 -89,-189zm245 65c-18,45 -36,88 -55,129l52 113c20,-37 39,-75 58,-116l-55 -126zm557 -32c21,-1 36,-2 45,-2 20,-34 40,-73 61,-117l89 41c-50,87 -102,176 -158,268 38,-5 78,-10 119,-17 -4,34 -6,66 -6,95 -104,13 -176,25 -216,34l-30 -85c25,-25 56,-69 91,-131 -29,2 -56,5 -80,8l-29 -86c36,-43 79,-126 130,-248l94 37c-36,69 -73,137 -110,203zm200 511l0 -306 391 0 0 306 -99 0 0 -35 -194 0 0 35 -98 0zm-296 -44l-17 -106c63,-7 159,-20 287,-40 -3,43 -4,78 -4,105 -113,16 -201,29 -266,41zm588 -168l-194 0 0 82 194 0 0 -82zm-314 -330c59,-67 107,-136 145,-209l103 17c-12,21 -24,41 -36,59l217 0 0 91c-28,53 -68,100 -119,141 46,17 97,29 154,38 -11,38 -19,71 -23,99 -90,-20 -165,-46 -224,-77 -62,30 -136,56 -221,78 -14,-39 -27,-69 -38,-90 67,-14 124,-31 172,-49 -17,-16 -34,-34 -49,-53 -13,12 -24,23 -33,32 -12,-22 -28,-48 -48,-77zm156 -44c-5,6 -10,13 -15,20 21,29 46,55 76,77 42,-27 73,-60 94,-97l-155 0z"/>
  </g>
 </g>
</svg>
