<svg id="_" data-name="ͼ" xmlns="http://www.w3.org/2000/svg" viewBox="0 0 841.89 595.28"><defs><style>.cls-1,.cls-11,.cls-2,.cls-20{fill:#00ade9;}.cls-1,.cls-12,.cls-20,.cls-21,.cls-22,.cls-23,.cls-24,.cls-25{fill-rule:evenodd;}.cls-1{opacity:0.21;}.cls-2{opacity:0.48;}.cls-24,.cls-3{fill:#38bde9;}.cls-25,.cls-4{fill:#5dc3e0;}.cls-18,.cls-22,.cls-5{fill:#71c7d5;}.cls-10,.cls-13,.cls-14,.cls-16,.cls-17,.cls-6,.cls-7,.cls-8,.cls-9{fill:none;}.cls-6,.cls-9{stroke:#5dc3e0;}.cls-10,.cls-13,.cls-14,.cls-16,.cls-17,.cls-18,.cls-19,.cls-6,.cls-7,.cls-8,.cls-9{stroke-miterlimit:22.93;}.cls-14,.cls-16,.cls-17,.cls-6,.cls-7,.cls-8{stroke-width:1.64px;}.cls-18,.cls-7{stroke:#71c7d5;}.cls-10,.cls-8{stroke:#38bde9;}.cls-10,.cls-13,.cls-18,.cls-19,.cls-9{stroke-width:1.64px;}.cls-12,.cls-15{fill:#fff;}.cls-13,.cls-14,.cls-19{stroke:#00ade9;}.cls-16{stroke:#25b9e9;}.cls-17{stroke:#4ec0e1;}.cls-19{fill:#77cadd;}.cls-21{fill:#4ec0e1;}.cls-23{fill:#25b9e9;}</style></defs><title>流程图中文</title><path class="cls-1" d="M223.12,162.69A148.88,148.88,0,1,1,74.23,311.57,148.88,148.88,0,0,1,223.12,162.69Zm0,38.64A110.24,110.24,0,1,0,333.35,311.57,110.24,110.24,0,0,0,223.12,201.33Z"/><circle class="cls-2" cx="223.11" cy="311.18" r="110.63" transform="translate(-154.69 248.9) rotate(-45)"/><circle class="cls-3" cx="223.1" cy="205.03" r="37.15" transform="translate(-79.64 217.81) rotate(-45)"/><circle class="cls-4" cx="126.88" cy="361.2" r="37.15" transform="translate(-4.35 1.56) rotate(-0.69)"/><circle class="cls-5" cx="319.32" cy="361.2" r="37.15" transform="translate(-161.88 331.59) rotate(-45)"/><line class="cls-6" x1="176.29" y1="360.38" x2="266.94" y2="360.38"/><line class="cls-7" x1="266.94" y1="367.21" x2="176.29" y2="367.21"/><line class="cls-8" x1="141.35" y1="315.63" x2="186.67" y2="237.13"/><line class="cls-9" x1="193.59" y1="243.04" x2="148.26" y2="321.54"/><line class="cls-7" x1="309.43" y1="315.63" x2="264.11" y2="237.13"/><line class="cls-10" x1="257.2" y1="243.49" x2="302.52" y2="321.99"/><circle class="cls-11" cx="223.1" cy="302.32" r="23.73" transform="translate(-148.43 246.3) rotate(-45)"/><path class="cls-12" d="M216.94,307.21a5.59,5.59,0,0,1-2.42.45,4.06,4.06,0,0,1-3.05-1.15,4.17,4.17,0,0,1-1.13-3.06,4.53,4.53,0,0,1,1.26-3.3,4.37,4.37,0,0,1,3.25-1.28,5.76,5.76,0,0,1,2.09.33V301a3.79,3.79,0,0,0-2-.51,2.61,2.61,0,0,0-2,.8,2.9,2.9,0,0,0-.74,2.08,2.85,2.85,0,0,0,.7,2,2.49,2.49,0,0,0,1.92.76,4,4,0,0,0,2.07-.55Z"/><path class="cls-12" d="M226.48,307.51h-2l-.64-1.94h-3.09l-.62,1.94h-2L221.3,299h2.13l3,8.49Zm-3-3.34-1-2.95a3.1,3.1,0,0,1-.13-.74h0a2.88,2.88,0,0,1-.15.72l-1,3Z"/><path class="cls-12" d="M235.78,307.51h-1.85l-3.6-5.49a7,7,0,0,1-.41-.7h0c0,.3,0,.75,0,1.36v4.83h-1.72V299h2l3.47,5.34c.23.35.37.58.42.67h0a7.67,7.67,0,0,1-.05-1.17V299h1.71Z"/><line class="cls-13" x1="166.14" y1="336.19" x2="199.72" y2="317.8"/><line class="cls-14" x1="282.16" y1="336.19" x2="248.59" y2="317.8"/><line class="cls-13" x1="222.67" y1="247.11" x2="223.53" y2="273.97"/><path class="cls-12" d="M206.89,351.74H210v-1h.56v1h2.94v.49h-2.94v1h1.91v.47a6,6,0,0,1-1.73,2.25,8.65,8.65,0,0,0,2.85.86c-.16.22-.29.42-.39.59a8.23,8.23,0,0,1-3-1.09,11,11,0,0,1-3,1.19,2.73,2.73,0,0,0-.3-.54,11,11,0,0,0,2.88-1,5.49,5.49,0,0,1-1.53-2.25h-.67v-.49H210v-1h-3.08v-.49Zm4.89,2h-3a4.44,4.44,0,0,0,1.43,1.93A4.8,4.8,0,0,0,211.78,353.73Z"/><path class="cls-12" d="M216.15,352.32h3.11v-1.49h.55v1.49h1v.52h-1v3.43q0,1.07-1,1.08h-1a5.9,5.9,0,0,0-.1-.61c.43,0,.76,0,1,0a.48.48,0,0,0,.42-.13.94.94,0,0,0,.11-.54v-3.27h-3.11v-.52Zm-2,1.69a11.61,11.61,0,0,0,1.54-3.24l.56.21c-.19.51-.38,1-.58,1.41v5.05h-.54v-4a10.67,10.67,0,0,1-.77,1.19c-.09-.31-.16-.52-.21-.65Zm2.41-.1.46-.28c.27.39.6.92,1,1.56l-.49.31A13.66,13.66,0,0,0,216.59,353.91Z"/><path class="cls-12" d="M225.3,356.34a3.15,3.15,0,0,1-1.45.3,2.39,2.39,0,0,1-1.81-.71,2.69,2.69,0,0,1-.68-1.91,2.83,2.83,0,0,1,.76-2,2.64,2.64,0,0,1,1.94-.77,3.18,3.18,0,0,1,1.24.21v.71a2.48,2.48,0,0,0-1.24-.31,1.88,1.88,0,0,0-1.43.58,2.2,2.2,0,0,0-.55,1.58,2.13,2.13,0,0,0,.51,1.5,1.78,1.78,0,0,0,1.35.56,2.57,2.57,0,0,0,1.36-.35Z"/><path class="cls-12" d="M230.9,356.55h-.75l-.54-1.43h-2.19l-.5,1.43h-.76l2-5.25h.72l2,5.25Zm-1.5-2-.79-2.19a1.29,1.29,0,0,1-.08-.36h0a2.31,2.31,0,0,1-.09.36l-.78,2.19Z"/><path class="cls-12" d="M236.36,356.55h-.8l-2.65-4.09a2.79,2.79,0,0,1-.18-.34h0a5.59,5.59,0,0,1,0,.74v3.69h-.67V351.3h.85l2.57,4a2.57,2.57,0,0,1,.22.36h0a6.74,6.74,0,0,1,0-.77V351.3h.67Z"/><path class="cls-12" d="M197.32,374.83H199c-.16-.22-.33-.45-.51-.67l.41-.28c.22.25.42.49.59.7l-.36.25h1.54a8.31,8.31,0,0,0,.63-.92l.52.29c-.22.26-.4.47-.55.63h1.69v3.56c0,.57-.26.86-.78.86h-1a3.87,3.87,0,0,0-.1-.57c.36,0,.65.05.88.05s.44-.16.44-.49V375.3h-4.59v4h-.51v-4.51Zm1.47,3.83v-2.18h2.72v1.82h-2.24v.36Zm-2-5.28h3.1c-.08-.16-.19-.34-.31-.53l.52-.24c.13.23.28.49.43.77h2.92v.48h-6.66v-.48Zm4.2,4.49v-1h-1.75v1Zm-1.71-2.49.37.35c-.53.45-1,.85-1.49,1.2-.14-.19-.24-.32-.32-.41a10.91,10.91,0,0,0,1.44-1.14Zm1.19.37.3-.37c.67.42,1.18.76,1.52,1l-.34.43C201.53,376.46,201,376.1,200.5,375.75Z"/><path class="cls-12" d="M207,372.85l.49-.29c.22.26.43.54.64.84l-.33.21h2.53v3h-.54v-.36h-4.29a5.35,5.35,0,0,1-1,3.13l-.4-.45a4.94,4.94,0,0,0,.87-3.18v-2.15h2.59a7.38,7.38,0,0,0-.56-.76Zm-1.49,1.25v1.67h4.28V374.1Z"/><path class="cls-12" d="M228.67,373.49h2q.17-.4.3-.84l.56.14c-.08.24-.16.47-.25.7h3.94v.5h-4.16a10.83,10.83,0,0,1-.94,1.71v3.6h-.53v-2.88a10.89,10.89,0,0,1-.78.88c-.1-.16-.2-.32-.33-.49a10.27,10.27,0,0,0,2-2.82h-1.78v-.5Zm1.69,4.83h2.12v-2h-1.76v-.49h1.76v-1.37H233v1.37h1.79v.49H233v2h2.18v.47h-4.86Z"/><path class="cls-12" d="M237.9,378.83a10.57,10.57,0,0,0,2.21-1.06,7.78,7.78,0,0,1-.38-1.45l-1.45.2-.08-.49,1.46-.2c0-.32-.06-.66-.08-1l-1.23.14-.08-.49,1.28-.14c0-.47,0-1-.07-1.62H240c0,.58,0,1.1,0,1.56l2.28-.26.06.48-2.31.27c0,.36,0,.69.07,1l2.35-.33.06.48-2.34.33a6.55,6.55,0,0,0,.31,1.22,5.89,5.89,0,0,0,1.2-1.19l.44.34a8.19,8.19,0,0,1-1.42,1.33,2.13,2.13,0,0,0,.63.72c.29.17.49.08.57-.27a8.36,8.36,0,0,0,.14-1,4.79,4.79,0,0,0,.53.2,9.91,9.91,0,0,1-.23,1.1c-.13.39-.36.58-.67.58a1.28,1.28,0,0,1-.92-.4,3,3,0,0,1-.49-.65,11.76,11.76,0,0,1-2.1,1.05,4.05,4.05,0,0,0-.34-.47Zm-1.16-2.05c.4-.06.88-.13,1.43-.23a4.29,4.29,0,0,0-.06.53l-2,.31-.11-.5a8.77,8.77,0,0,0,1-1.45l-1,.08-.13-.46a13,13,0,0,0,1.3-2.42l.51.21c-.46.91-.86,1.64-1.2,2.17l.82,0c.16-.28.32-.58.48-.91l.51.25a28.94,28.94,0,0,1-1.56,2.45Zm-.86,1.57c.8-.17,1.6-.36,2.42-.56a4.52,4.52,0,0,0,0,.51q-1.14.27-2.25.57l-.15-.52Zm4.73-5.29.29-.34a12.59,12.59,0,0,1,1,.73l-.32.39C241.23,373.52,240.9,373.26,240.61,373.06Z"/><path class="cls-12" d="M149.92,282.62l.5-.87c-.32,0-.59.07-.81.11l-.05-.44c.26-.06.55-.12.86-.17l.06.41.45-.78c-.14-.36-.29-.7-.46-1l.46-.22c.09.24.19.5.28.77l.52-.89,2.24,1.29-.22.38-.18-.11-1.37,2.37.19.11-.22.37-2.25-1.29Zm2.67,1.22,1.53-2.66,2.51,1.45-.23.4-.27-.16-1.08,1.86.27.16-.23.4-2.5-1.45Zm-4.43.71,1.07-1.85,3.68,2.13-.22.39-3.31-1.91-.62,1.07,3.34,1.93-.22.39-3.72-2.15Zm1.33-.2.23-.39,1.93,1.12a6.18,6.18,0,0,1,1,.76l-.07-.33c.63-.16,1.2-.29,1.73-.39l.09.54a15,15,0,0,0-1.65.28,3.35,3.35,0,0,1,.88,1.68,4.51,4.51,0,0,0-.53.1,3,3,0,0,0-1.68-2.23l-2-1.14Zm2.38-4.27-.57,1,1.33.77.57-1-1.33-.77Zm0,3.14.58-1-1.33-.76-.57,1,1.32.77Zm2.85,1.29,1.07-1.85-.56-.33-1.07,1.86.56.32Zm-.41-2.71-1.07,1.86.55.32,1.07-1.86-.55-.32Zm-2.11-1.35a7.2,7.2,0,0,1,.54.82l-.36.22c-.14-.25-.32-.52-.53-.82l.35-.22ZM151,282.53v-.4q.56,0,1,0l0,.44C151.6,282.56,151.28,282.54,151,282.53Z"/><path class="cls-12" d="M154.9,278.16l1-1.75c-.08-.06-.41-.25-1-.58l-.89,1.55-.42-.24,1.17-2a8.87,8.87,0,0,0-.73-1.53l.56-.3c.11.28.27.71.47,1.3l.71-1.22.41.24-1,1.75,1,.57,1.1-1.9.41.24-1.12,1.94a2,2,0,0,1,.27.22c.76-.39,1.53-.75,2.29-1.08l.22.54c-.82.33-1.55.64-2.17.93a3.3,3.3,0,0,1,.39,2.33,4.16,4.16,0,0,0-.55.1,2.51,2.51,0,0,0-.72-2.58l-1,1.72-.41-.24Zm3.14.69c.51-.86,1.16-2,1.93-3.41l.34.45c-.79,1.41-1.42,2.48-1.87,3.23a2,2,0,0,1-1.54,1.1,7.5,7.5,0,0,0,.35,1.12l-.64,0c-.08-.38-.15-.74-.22-1.1l-2-1.19-.39.67-.43-.25.65-1.13,2.58,1.49a1.93,1.93,0,0,0,1.29-.95Zm-6.25-1.13c.51-.09,1.07-.18,1.67-.24l0,.58a16,16,0,0,0-1.65.18l-.06-.52Zm1.16-1.54-.06-.5c.33-.08.73-.15,1.2-.23l0,.57C153.67,276.07,153.27,276.12,153,276.18Z"/><path class="cls-12" d="M161.75,271.42a3,3,0,0,1-.46,1.41,2.37,2.37,0,0,1-1.52,1.21,2.66,2.66,0,0,1-2-.37,2.81,2.81,0,0,1-1.39-1.68,2.62,2.62,0,0,1,.3-2.06,3.23,3.23,0,0,1,.81-1l.61.36a2.51,2.51,0,0,0-.89.91,1.92,1.92,0,0,0-.21,1.54A2.28,2.28,0,0,0,158.1,273a2.16,2.16,0,0,0,1.56.3,1.77,1.77,0,0,0,1.16-.89,2.59,2.59,0,0,0,.37-1.36Z"/><path class="cls-12" d="M164.74,266.68l-.38.65-1.51-.25L161.76,269l1,1.16-.38.65-3.55-4.36.36-.63,5.56.89Zm-2.51.28-2.29-.4-.36-.11h0a1.86,1.86,0,0,1,.28.26l1.5,1.77Z"/><path class="cls-12" d="M167.47,262l-.4.7-4.86.24a2.47,2.47,0,0,1-.39,0h0a7.17,7.17,0,0,1,.65.35l3.2,1.85-.33.58L160.77,263l.43-.74,4.77-.22h.42v0a5.61,5.61,0,0,1-.68-.35l-3.13-1.81.34-.58Z"/><path class="cls-12" d="M172,293.56l.26-.44,5.06,2.93a.62.62,0,0,1,.27,1c-.16.27-.32.54-.49.81a4.81,4.81,0,0,0-.53-.2,6.8,6.8,0,0,0,.49-.75.3.3,0,0,0-.13-.47L172,293.56Zm4,3.19-.25.43L172,295l.25-.43,3.75,2.16Zm-1.33,5a26.43,26.43,0,0,0-1.92-1.88l.42-.32,1.93,1.83-.43.37Zm-3.72-1.9-.18-.44c.52-.23.95-.41,1.29-.52a3.83,3.83,0,0,1,.17.52c-.46.14-.89.28-1.28.44Zm-1.4-1.09-.14-.47,1.2-.43c0,.18.1.36.14.53-.3.07-.7.2-1.2.37Zm.9-2.12,0-.5a8.38,8.38,0,0,1,1,0l0,.53a8.42,8.42,0,0,0-1,0Zm2.05-.66a9.47,9.47,0,0,1,1.87,1.9c.66,0,1.3,0,1.91,0l0,.55-1.53-.05a6.28,6.28,0,0,1,.78,2.21,3.35,3.35,0,0,0-.54.12,6,6,0,0,0-.87-2.35h-2.15v-.49h1.79a8.6,8.6,0,0,0-1.49-1.45l-1,1.74-.42-.24,1.41-2.44.42.24Z"/><path class="cls-12" d="M177.55,291.07a4.12,4.12,0,0,1,.67.47l.23-.4,1,.6c.23.14.43.07.58-.19l.6-1c.17-.29.15-.51-.06-.67a6.14,6.14,0,0,0-.67-.5l.43-.37.62.5a.86.86,0,0,1,.13,1.21l-.7,1.21a.74.74,0,0,1-1.14.32l-.88-.5a1.87,1.87,0,0,1,.52.92,5.56,5.56,0,0,1-.3,2.74,5.61,5.61,0,0,0-.58,0,5.73,5.73,0,0,0,.37-2.54,2,2,0,0,0-1.12-1.32l.26-.45ZM175.64,293l2.35-4.08,2,1.14-.26.45-1.56-.9-1.83,3.18,1.61.93-.26.45-2-1.17Zm-1.06-4,.28-.49c.17.21.32.42.46.63l1.25-2.17.41.24-1.37,2.38a8.76,8.76,0,0,1,.61,1.23,3.92,3.92,0,0,0-.51.22,6.92,6.92,0,0,0-1.13-2Zm-1,1.65.26-.44,2.24,1.29-.25.45-2.25-1.3ZM173,292l.26-.45,2.05,1.19-.26.45L173,292Zm3-2.64c.62-.45,1.22-.86,1.81-1.23l.25.45c-.52.3-1.14.71-1.85,1.21Z"/><path class="cls-12" d="M177.69,285.61l1.36-2.34c-.25,0-.56,0-.93.05v-.57a9.22,9.22,0,0,1,1-.09v.44l1.39-2.41.48.27-2.55,4.41,1.46.84a4.93,4.93,0,0,1,2.39,2.65,6.5,6.5,0,0,0-.62.21,4.29,4.29,0,0,0-2.13-2.37Z"/><path class="cls-12" d="M183.89,280.64l2.42-4.18,2.36,1.37-.28.47-.3-.18-1.87,3.24.3.18-.27.47-2.36-1.37Zm-1.51.18L184,278l-1-.56-.91,1.59a7.27,7.27,0,0,1,.55,1c-.16.07-.34.17-.52.27a7.1,7.1,0,0,0-1.28-2l.42-.41c.18.22.36.45.52.67l.79-1.38-.92-.53.28-.49.92.54,1.17-2,.44.25-1.18,2,1,.56,1.43-2.48.44.26-3.32,5.74-.43-.25Zm4.08-3.64-1.87,3.24,1.21.7,1.87-3.24Z"/><path class="cls-12" d="M300.43,256.75l1.69,2.94L299.8,261l-.24-.43.17-.09-1.21-2.09-.17.1-.24-.43,2.32-1.34Zm-5.8,2.13a3.2,3.2,0,0,0,2.53-.22l.25.44a4.13,4.13,0,0,1-.84.32,2.22,2.22,0,0,0-.21,1.42l1.77-1L297.08,258l.39-.22,2.29,4-.39.23-1-1.71-.66.38.85,1.48-.38.21-.85-1.47-.82.48a17.93,17.93,0,0,0,1,1.77l-.51.12c-.28-.46-.55-1-.82-1.47a2.31,2.31,0,0,1-.17-2.23,3.16,3.16,0,0,1-1.47-.11,3.1,3.1,0,0,0,.05-.54Zm1.59-2.82.78.56,1.25-.72-.41-.71.4-.23.41.71,1.1-.63.26.45-1.1.63.44.75-.4.23-.44-.75-1,.6.74.47c-.15.1-.29.2-.44.32l-.78-.52L295,258.41c-.38.21-.67.19-.87-.08a6.77,6.77,0,0,1-.41-.68l.44-.36c.1.23.2.42.28.57s.19.16.34.08l1.78-1-.77-.49.48-.36Zm2.68,2.14,1.21,2.09.51-.3-1.2-2.09-.52.3Zm2.6,1.28-1.2-2.09-.51.3,1.2,2.09Z"/><path class="cls-12" d="M305.46,265l.28.48-1.3.75.49.84-.42.24-.49-.84-1.62.94.6,1-.42.25-2.47-4.28.42-.24.58,1,1.62-.94-.44-.75.43-.25.43.76,1.29-.74.28.48-1.29.74.74,1.27,1.29-.74Zm-5.3-2.77a11.45,11.45,0,0,0,3.67-.18l.1.57a18,18,0,0,1-1.8.2L298,265.22l-.28-.47,3.33-1.92a9.6,9.6,0,0,1-1.25-.1c.13-.15.27-.32.41-.51Zm1.23,3.42.73,1.27,1.62-.93-.73-1.27-1.62.93Zm-.32,1.5.49.18c-.21.95-.41,1.71-.59,2.28l-.58-.18a23.48,23.48,0,0,0,.68-2.28Zm-.42-.69a16,16,0,0,1-2.34-.57,3.27,3.27,0,0,0,.13-.56,8,8,0,0,0,2.26.56Z"/><path class="cls-12" d="M309.5,272.89l-5.29,1.35-.4-.68,2.75-2.81a3,3,0,0,1,.43-.35h0a2.5,2.5,0,0,1-.52.19l-3.82,1-.39-.68,3.79-3.95.38.65-2.91,2.92a2.72,2.72,0,0,1-.42.34v0a3,3,0,0,1,.52-.18l4-1,.33.58-2.92,2.94a2.37,2.37,0,0,1-.39.33h0a3.07,3.07,0,0,1,.49-.17l4-1.1Z"/><rect class="cls-15" x="305.35" y="275.18" width="5.26" height="0.68" transform="translate(-96.5 190.91) rotate(-30)"/><polygon class="cls-12" points="312.14 278.69 311.13 276.93 309.61 277.81 310.55 279.44 310.03 279.74 309.09 278.11 307.1 279.25 306.76 278.67 311.31 276.04 312.67 278.38 312.14 278.69"/><rect class="cls-15" x="308.63" y="280.86" width="5.26" height="0.68" transform="translate(-98.9 193.31) rotate(-30)"/><path class="cls-12" d="M218.41,373.33,217,378.6h-.79l-1.08-3.78a2.53,2.53,0,0,1-.09-.55h0a2.34,2.34,0,0,1-.09.54l-1.06,3.8h-.78l-1.55-5.25h.75l1.09,4a2.54,2.54,0,0,1,.09.54h0a3.42,3.42,0,0,1,.11-.54l1.12-4h.67l1.1,4a2.66,2.66,0,0,1,.09.5h0a2.9,2.9,0,0,1,.09-.51l1-4Z"/><rect class="cls-15" x="219.6" y="373.34" width="0.68" height="5.26" transform="translate(-1.53 0.9) rotate(-0.23)"/><polygon class="cls-12" points="224.75 373.94 222.72 373.95 222.73 375.71 224.61 375.7 224.61 376.3 222.73 376.31 222.74 378.6 222.06 378.61 222.04 373.35 224.75 373.34 224.75 373.94"/><rect class="cls-15" x="226.16" y="373.34" width="0.68" height="5.26" transform="translate(-1.53 0.93) rotate(-0.23)"/><path class="cls-12" d="M295.83,277.65a3,3,0,0,1-1-1.11,2.34,2.34,0,0,1-.28-1.92,2.62,2.62,0,0,1,1.31-1.53,2.77,2.77,0,0,1,2.15-.37,2.6,2.6,0,0,1,1.63,1.29,3.18,3.18,0,0,1,.44,1.19l-.61.35a2.6,2.6,0,0,0-.35-1.23,1.93,1.93,0,0,0-1.23-.95,2.18,2.18,0,0,0-1.64.32,2.09,2.09,0,0,0-1,1.19,1.75,1.75,0,0,0,.19,1.45,2.57,2.57,0,0,0,1,1Z"/><path class="cls-12" d="M298.44,282.61l-.37-.65,1-1.19-1.1-1.89-1.5.28-.37-.65,5.55-.9.36.63-3.55,4.37Zm1-2.32,1.5-1.78a3,3,0,0,1,.28-.25h0l-.36.11-2.29.41Z"/><path class="cls-12" d="M301.18,287.34l-.41-.69,2.22-4.34q.11-.18.21-.33v0a5.26,5.26,0,0,1-.62.4l-3.21,1.84-.33-.58,4.55-2.63.43.74-2.2,4.24c-.1.2-.17.32-.2.37h0a7.48,7.48,0,0,1,.65-.41l3.13-1.81.34.58Z"/><path class="cls-12" d="M292.05,261.81l.5.86a5.82,5.82,0,0,0,.31-.76l.41.18c-.07.26-.17.54-.28.83l-.39-.15.46.78a10.64,10.64,0,0,0,1.12.12l0,.51-.81-.14.51.89-2.24,1.3-.22-.38.19-.11-1.37-2.36-.19.1-.21-.37,2.24-1.3Zm-2.39,1.69,1.53,2.66-2.5,1.45-.23-.4.27-.16-1.07-1.86-.27.16-.23-.4,2.5-1.45Zm1.6-4.19,1.07,1.85-3.69,2.13-.22-.39,3.3-1.9-.62-1.08-3.34,1.93-.22-.39,3.72-2.15Zm-.5,1.26.23.39-1.94,1.12a6.69,6.69,0,0,1-1.17.51l.32.11c-.18.62-.36,1.18-.53,1.69l-.52-.19a15.11,15.11,0,0,0,.59-1.57,3.25,3.25,0,0,1-1.89-.08A3.39,3.39,0,0,0,286,262a3,3,0,0,0,2.77-.33l2-1.14Zm2.51,4.2-.58-1-1.32.76.57,1,1.33-.76Zm-2.69-1.61.57,1,1.33-.77-.58-1-1.32.76ZM288,265l1.08,1.86.55-.33-1.07-1.85L288,265Zm2.56,1-1.08-1.86-.55.32L290,266.3l.56-.32Zm2.22-1.15a8.57,8.57,0,0,1-1,.06v-.43a6.77,6.77,0,0,0,1,0l0,.42Zm-1.2-2.08.35.2c-.19.32-.36.61-.53.85l-.36-.25A9.31,9.31,0,0,0,291.61,262.75Z"/><path class="cls-12" d="M293.42,268.35l1,1.75c.09,0,.42-.22,1-.55l-.89-1.55.41-.24,1.16,2a9.55,9.55,0,0,0,1.69.13l0,.64-1.37-.25.71,1.22-.41.24-1-1.75-1,.56,1.1,1.9-.41.24-1.12-1.94-.32.12c-.05.85-.12,1.7-.21,2.53l-.58-.08c.12-.88.22-1.66.28-2.35a3.29,3.29,0,0,1-2.22-.83,4.25,4.25,0,0,0,.19-.53,2.5,2.5,0,0,0,2.59.67l-1-1.72.41-.23Zm-2.16,2.37c.49.88,1.15,2,2,3.38l-.56.07q-1.23-2.09-1.86-3.24a2,2,0,0,1-.18-1.88,7.22,7.22,0,0,0-1.15-.25l.36-.55,1.06.36,2-1.18-.39-.67.43-.25.65,1.13-2.57,1.49a1.88,1.88,0,0,0,.18,1.59Zm4.1-4.84c-.18.49-.38,1-.63,1.57l-.52-.26a16.21,16.21,0,0,0,.67-1.52l.48.21Zm.75,1.77.47.2c-.1.32-.24.71-.41,1.15l-.52-.24C295.85,268.33,296,268,296.11,267.65Z"/><path class="cls-12" d="M265.63,272.62l1.14,2,.82-.48-1-1.71.42-.24a14.25,14.25,0,0,0,1.7-.11l-.49-.85.41-.24.59,1c.3,0,.6-.1.91-.17l.18.56-.8.12,1.39,2.4-.42.24L269,272.55c-.58.07-1.15.12-1.69.16l.68,1.18,1-.59.27.47-1,.59.87,1.5-.41.24-.87-1.5-.82.47,1,1.67-.42.23-1-1.67-1,.56-.27-.47,1-.56-1.14-2,.41-.24Zm-1.08,1.63.67,1.22,1.35,2.21-.57.07-1.2-2-.7-1.28a1.91,1.91,0,0,1-.15-1.81,9.08,9.08,0,0,0-1.15-.25l.36-.54,1.06.36,2-1.19-.39-.67.43-.24.65,1.12-2.56,1.49a1.81,1.81,0,0,0,.15,1.54Zm4.13-4.63c-.19.46-.39.93-.61,1.38l-.53-.24c.23-.45.46-.9.67-1.38Z"/><path class="cls-12" d="M267.63,279.9a6.63,6.63,0,0,0,1.63,1.55c0-.46-.1-.95-.16-1.48.31,0,.62.08.92.1l-.56-1,.4-.23.7,1.21a7.61,7.61,0,0,0,.83,0l.07.54-.61,0,1.3,2.27-.39.22-.45-.77a3.38,3.38,0,0,1-1.49-.06c.08.62.16,1.23.22,1.81h-.58c0-.58-.07-1.25-.14-2a6.64,6.64,0,0,1-2-1.66,3.8,3.8,0,0,0,.32-.49ZM268.9,277l.7.68,1.35-.78-.43-.74.42-.24.43.74,1.1-.64.25.44-1.1.63.39.68-.42.24-.39-.67-1.21.69c.16.16.33.3.49.45a2.66,2.66,0,0,0-.43.3c-.19-.17-.36-.33-.53-.47l-1.82,1a.62.62,0,0,1-1-.2l-.31-.55q.22-.17.45-.36a4.37,4.37,0,0,0,.25.52c.1.18.25.2.46.08l1.54-.89-.69-.6.47-.35Zm2.08,1.2,1.33,2.29c.48.05.94.09,1.35.1v.59l-1.09-.2.71,1.22-.39.23-2.31-4,.39-.23Zm1.57-.59.95,1.66c.13-.2.25-.4.37-.6l.41.29-.44.73-.16-.11,1,1.66-.39.22-2.1-3.63.4-.22Zm-3,2.86c.06.4.12.8.17,1.19a2.47,2.47,0,0,0,1.29.13l-.73-1.27-.73-.05Zm2.58-1.93.42.21c-.11.3-.23.61-.37.92l-.47-.23A6.73,6.73,0,0,0,272.16,278.58Z"/><path class="cls-12" d="M278.52,287.45l-5.29,1.36-.39-.69,2.75-2.81A2,2,0,0,1,276,285v0a2.11,2.11,0,0,1-.51.19l-3.83,1-.39-.68,3.79-3.95.38.65-2.9,2.92a3.37,3.37,0,0,1-.43.34v0a2.43,2.43,0,0,1,.52-.17l4-1,.34.58-2.93,2.95a3,3,0,0,1-.39.32v0a2.3,2.3,0,0,1,.49-.18l4-1.1Z"/><rect class="cls-15" x="274.37" y="289.74" width="5.26" height="0.68" transform="translate(-107.93 177.36) rotate(-30)"/><polygon class="cls-12" points="281.17 293.25 280.15 291.49 278.63 292.37 279.57 294 279.05 294.3 278.11 292.67 276.12 293.82 275.78 293.23 280.34 290.6 281.69 292.95 281.17 293.25"/><rect class="cls-15" x="277.65" y="295.42" width="5.26" height="0.68" transform="translate(-110.33 179.76) rotate(-30)"/><path class="cls-12" d="M252.09,270.11a3.2,3.2,0,0,1-1-1.11,2.34,2.34,0,0,1-.28-1.92,2.65,2.65,0,0,1,1.3-1.54,2.81,2.81,0,0,1,2.15-.36,2.61,2.61,0,0,1,1.64,1.28,3.18,3.18,0,0,1,.44,1.19l-.62.35a2.52,2.52,0,0,0-.35-1.23,1.87,1.87,0,0,0-1.22-.94,2.17,2.17,0,0,0-1.64.31,2.11,2.11,0,0,0-1.05,1.19,1.79,1.79,0,0,0,.2,1.45,2.55,2.55,0,0,0,1,1Z"/><path class="cls-12" d="M254.7,275.06l-.38-.65,1-1.18-1.09-1.9-1.5.28-.38-.65,5.56-.89.36.63-3.55,4.36Zm1-2.31,1.5-1.78a3.67,3.67,0,0,1,.27-.26h0a2.24,2.24,0,0,1-.36.11l-2.29.41Z"/><path class="cls-12" d="M257.43,279.79l-.4-.69,2.22-4.34a1.48,1.48,0,0,1,.21-.32v0c-.1.07-.3.2-.63.39l-3.2,1.85-.33-.58,4.55-2.63.43.73-2.2,4.24a2.06,2.06,0,0,1-.21.37h0a7.48,7.48,0,0,1,.65-.41l3.13-1.81.34.59Z"/><path class="cls-12" d="M245,255.57l.45.27a3.47,3.47,0,0,0-.4,1.13,2.7,2.7,0,0,0,1.15-.27l-.89-1.54,1.62-.93.92,1.59.58-.34-1.09-1.88.4-.23,1.09,1.88.79-.46.26.45-.79.46,1.1,1.9-.4.23-1.1-1.9-.58.34.91,1.58-1.87,1.08-.26-.45.26-.14-.69-1.19a3.28,3.28,0,0,1-1.44.36h0a6.16,6.16,0,0,0,.74,2.72l-.67-.05a6.39,6.39,0,0,1-.59-2.78,5.42,5.42,0,0,1-1.69-1,5.29,5.29,0,0,0,.22-.53,5,5,0,0,0,1.52,1,4.18,4.18,0,0,1,.46-1.28Zm-.2-2.61a10.81,10.81,0,0,0,3.55-.42l.12.51a18,18,0,0,1-1.77.32l-4.2,2.42-.24-.42,3.33-1.92a8.81,8.81,0,0,1-1.16,0l.37-.45Zm2.08,4,.66,1.15.83-.48-.65-1.13-.84.46Zm-.27-.45c.2-.1.48-.25.84-.46l-.66-1.15-.82.48Z"/><path class="cls-12" d="M247.27,263.79l1.87-1.08-1-1.71a4.32,4.32,0,0,1-2.44.46,5.57,5.57,0,0,0,.2-.58,3.64,3.64,0,0,0,1.5-.17,10.93,10.93,0,0,0,1.87-.91l2.1-1.21,2.77,4.79-4.67,2.7a.7.7,0,0,1-1.09-.26l-.51-.92c.12-.1.27-.22.44-.38.17.36.32.64.44.85a.37.37,0,0,0,.56.17l1.08-.63-1-1.72-1.87,1.07-.27-.47Zm2.57-.85,1,1.73,1.1-.64-1-1.72-1.1.63Zm3.61.22-1-1.73-1.09.63,1,1.73,1.09-.63Zm-4.85-2.37,1,1.68,1.1-.63-1-1.66a10.18,10.18,0,0,1-1.11.61Zm2.63-1.48-1.09.63,1,1.65,1.09-.63Z"/><path class="cls-12" d="M262.67,278.1l1.15,2-1.69,1a7.67,7.67,0,0,0,2.53-.29l.17.53c-.34.07-.67.12-1,.17l1.3,2.24c-1.92,1.08-3.2,1.79-3.85,2.13a1,1,0,0,1-1.51-.43c-.2-.33-.4-.7-.6-1.09.14-.11.28-.24.43-.37a10.11,10.11,0,0,0,.53,1.09.67.67,0,0,0,1,.3c.68-.36,1.79-1,3.31-1.84l-1.13-2c-.43,0-.82.08-1.2.09a3.57,3.57,0,0,0,0-.55l-1.93,1.12-.24-.43,3.21-1.85-.66-1.14-3.25,1.87-.24-.42,3.68-2.13Zm-.37,4.95.35.34c-.46.51-.95,1-1.48,1.55l-.38-.37.31-.29c-.27-.4-.52-.75-.75-1.06a4.22,4.22,0,0,0-.39-.47l.28-.4a.94.94,0,0,0,.52.1A16.31,16.31,0,0,0,263,282l.15.51c-.86.19-1.66.34-2.41.46l.68,1c.29-.29.59-.6.88-.91Zm-.12-3.62.24.42-1.18.68a9,9,0,0,1-1.86.87l.26.08c-.19.64-.36,1.2-.53,1.7l-.52-.19c.19-.48.38-1,.55-1.54a3.61,3.61,0,0,1-1.95-.23,3.16,3.16,0,0,0,.18-.52A2.82,2.82,0,0,0,259,281a5.43,5.43,0,0,0,1.84-.77Z"/><path class="cls-12" d="M261.23,287.27a4.39,4.39,0,0,0,3,1.81l-1.62-2.8.43-.24,1.72,3a10.53,10.53,0,0,0,2.53-1.2l.27.47a13.48,13.48,0,0,1-2.52,1.22l1.29,2.21L266,292l-1.36-2.37-.27,0c.07.82.09,1.86.07,3.14l-.57,0a30.68,30.68,0,0,0,0-3.16,5.38,5.38,0,0,1-2.88-1.75l.27-.57Zm4.65-2.53.43-.24,3,5.24L269,290a10.35,10.35,0,0,1-1.66.12,4.42,4.42,0,0,0-.07-.56,8.23,8.23,0,0,0,1.38-.06l-2.72-4.71Zm-1.36,1.11.46.07a19,19,0,0,1-.09,1.91l-.53-.07c.08-.65.13-1.29.16-1.91Zm1.28,0,.46.06c0,.63,0,1.25-.08,1.83l-.53-.06A17.37,17.37,0,0,0,265.8,285.89Z"/><path class="cls-12" d="M266.13,295.92a7.82,7.82,0,0,0,1.9.62,11.15,11.15,0,0,1,2.56-2.08l-1.83-3.17.44-.25,1.82,3.15,1-.63.27.48-1,.61,1.2,2.08-.43.25-1.2-2.07a10.52,10.52,0,0,0-2.2,1.71,7.8,7.8,0,0,0,2.3-.13l.08.57a10.36,10.36,0,0,1-2.77.05,2.13,2.13,0,0,0-.44,1.09c0,.32.13.43.45.32s.65-.24,1-.38a4.21,4.21,0,0,0,.09.55c-.49.18-.88.31-1.15.38a.63.63,0,0,1-.77-.27,1.17,1.17,0,0,1-.14-.8,2.75,2.75,0,0,1,.4-1,7.51,7.51,0,0,1-1.7-.55q.07-.22.15-.54Zm2.3-3.88,1.22,2.12-2,1.18-.25-.42.27-.16-.73-1.27-.41.24-.25-.42,2.2-1.27Zm-3.15,1.15c.53.69,1.24,1.58,2.15,2.66l-.44.27c-.64-.8-1.35-1.65-2.11-2.54l.4-.39ZM269,294l-.73-1.27-1,.56.73,1.27,1-.56Zm3.27.68.45.07q0,.64-.06,1.32l-.52-.07C272.2,295.54,272.24,295.1,272.27,294.65Z"/><path class="cls-12" d="M274.59,299.08a29.62,29.62,0,0,0,2.25,3.32l-.34.41c-.38-.53-.73-1-1-1.48l-1.46.92.91,1.58-.42.25-.9-1.56a4.83,4.83,0,0,0-1.82,1.86c-.1.27-.11.45,0,.55s.13.09.28,0a9,9,0,0,0,.87-.37,3.14,3.14,0,0,0,.09.51,9.23,9.23,0,0,1-.91.37c-.39.13-.66.07-.8-.18a1.23,1.23,0,0,1,.05-1.13,5.69,5.69,0,0,1,2-2.07l-.73-1.27-2.08,1.2,1.26.73c-.16.13-.29.25-.4.35-.57-.35-1-.61-1.37-.79a2.88,2.88,0,0,0-.45-.19l.2-.52a.81.81,0,0,0,.65-.11l4.17-2.41Zm-3.87-.53.74.56,1.35-.78-.41-.7.42-.24.4.7,1.08-.62.26.44-1.08.62.38.67-.41.23-.39-.66-1.14.66.65.44-.44.32-.7-.48-1.95,1.13q-.66.38-1-.15c-.08-.15-.19-.33-.3-.54l.43-.34c.1.21.18.37.24.47s.22.18.39.08l1.68-1-.73-.48.49-.36Zm4.46,2.35c-.28-.42-.52-.8-.73-1.14l-1.42.81.72,1.25c.42-.29.9-.59,1.43-.92Zm-4.56,2,.42.16a8.13,8.13,0,0,1-.29,1l-.47-.17A6.9,6.9,0,0,0,270.62,302.92Z"/><path class="cls-12" d="M273.48,309.19l1.87-1.08-1-1.71a4.32,4.32,0,0,1-2.44.46c.07-.18.14-.37.2-.58a3.64,3.64,0,0,0,1.5-.17,11.75,11.75,0,0,0,1.87-.91l2.1-1.22,2.77,4.8-4.67,2.69a.7.7,0,0,1-1.09-.26l-.51-.92c.12-.09.27-.22.44-.37.17.36.32.64.44.85a.37.37,0,0,0,.56.17l1.08-.63-1-1.73-1.87,1.08-.28-.47Zm2.57-.85,1,1.73,1.1-.64-1-1.73-1.1.64Zm3.61.22-1-1.73-1.09.63,1,1.73,1.09-.63Zm-4.85-2.37,1,1.68,1.1-.64-1-1.65a12.21,12.21,0,0,1-1.11.61Zm2.63-1.48-1.09.63.95,1.65,1.09-.63Z"/><path class="cls-12" d="M276.79,315.06l-.27-.46,4.11-2.37.93,1.61,1.66-1,.29.49-1.67,1,.91,1.57-3.4,2a.68.68,0,0,1-1.06-.26q-.23-.37-.57-1l.43-.37c.2.4.36.72.5.94s.32.32.54.19l.55-.32-1.58-2.75-1.37.79Zm1.79-1,1.59,2.74.73-.42-1.59-2.74-.73.42Zm3.46,1.66L280.46,313l-.73.41,1.59,2.75.72-.42Zm-3.69-3.62c0,.2.06.39.1.59-.89.26-1.75.51-2.58.77l-.15-.61c.82-.19,1.7-.44,2.63-.75Zm4.26,2.44a10.07,10.07,0,0,0,1.49.26l-.08.61c-.43-.08-.94-.19-1.51-.35l.1-.52Zm-2.81-3.84c0,.42-.1.92-.2,1.5l-.58-.12q.21-1,.27-1.47l.51.09Zm1.66-.65c-.07.43-.16.93-.28,1.5l-.56-.13c.16-.66.28-1.16.34-1.48l.5.11Zm.35,1.42.47.18c-.06.28-.21.76-.44,1.45l-.54-.22Q281.69,311.86,281.81,311.44Z"/><path class="cls-12" d="M284.62,316.55l1,1.69.5-.27.25.42-.5.27.59,1,.49-.29.24.43-.49.28.82,1.42-1.34.77-.25-.42.15-.09-.57-1-.53.31,1,1.68a6.76,6.76,0,0,1-.76.35.54.54,0,0,1-.72-.29l-.1-.18-1.43.83-.25-.42,1.2-.7-1.7-2.95-1.27.74-.25-.43,1.27-.73a7,7,0,0,1-.76-.65,2.66,2.66,0,0,0,.26-.49,3.2,3.2,0,0,0,1.93,1.25l-.74-1.3,1.32-.51.8,1.4.53-.28-1-1.68.34-.2Zm-.16,5.38c.11.24.2.43.28.57a.28.28,0,0,0,.34.17l.25-.11-.72-1.26-.58.33-.24-.42.57-.33-.73-1.26a2,2,0,0,1-1-.18l1.58,2.73a2.85,2.85,0,0,0,.22-.24Zm-1.9-1,.24.41a2.84,2.84,0,0,1-.71.31c.25,1,.46,2,.62,2.88l-.55,0c-.16-1-.34-1.91-.54-2.84-.53,0-1.27-.66-2.22-1.93a3.08,3.08,0,0,0,.31-.45,7.1,7.1,0,0,0,1.63,1.78c.28.19.68.12,1.22-.19Zm1.48-1.36.66,1.15.53-.3-.62-1.07a4.32,4.32,0,0,1-.57.22Zm-.83-1.43.57,1a2.93,2.93,0,0,0,.59-.2l-.59-1-.57.23Zm1.76,1,.6,1.05.52-.3-.6-1-.52.27Zm1.93,2.17-.57-1-.51.29.57,1Z"/><path class="cls-12" d="M223.78,211.25a2.7,2.7,0,0,1-.53,1.78,2.29,2.29,0,0,1-1.61.74,23.26,23.26,0,0,1-2.84.09,26.37,26.37,0,0,0-.73-2.63c1.25.08,1.92.11,2,.11.76,0,1.14-.36,1.14-1.1v-1.65h-3.76v5.07h-2.56v-5.07H211q-.27,4-1.53,5.58c-.77-.56-1.55-1.06-2.33-1.52,1-1.33,1.45-3.69,1.41-7.08V197h15.23v14.21Zm-12.7-9.58h3.84v-2.24h-3.84v2.24Zm10.16-2.24h-3.76v2.24h3.76v-2.24Zm-10.16,6.83h3.84V204h-3.84v2.25Zm6.4,0h3.76V204h-3.76Z"/><path class="cls-12" d="M228.52,198.87h6.06c-.32-.75-.61-1.35-.85-1.81l2.66-.89c.31.62.74,1.52,1.31,2.7h5.75v9.36h-2.51v-.94h-10a13.15,13.15,0,0,1-2.37,6.82c-.7-.88-1.32-1.62-1.87-2.22a11.37,11.37,0,0,0,1.85-6.77v-6.25Zm12.42,6v-3.53H231v3.53Z"/><path class="cls-12" d="M103.58,360.69q0,6.51-2.41,9.78c0-.06-.72-.7-2.08-1.9q2-2.52,1.92-8.2v-5.72h6.59c-.21-.55-.42-1.1-.63-1.63l2.87-.62c.29.75.56,1.49.83,2.25h6.16V357H103.58Z"/><path class="cls-12" d="M118.91,358.92H121a19.34,19.34,0,0,0-1.8-1.05,15.85,15.85,0,0,0,2.76-5.18l2.4.63c-.19.51-.37,1-.56,1.43h2.94v-2.31h2.6v2.31h6.28v2.18h-6.28v2h7.3v2.17H118.91v-2.17Zm2.63,0h5.22v-2h-4a17.49,17.49,0,0,1-1.24,2Zm-.61,11.42V362.4h13.72v7.94h-2.47v-1h-8.79v1Zm11.25-5.7h-8.79v2.5h8.79Z"/><path class="cls-12" d="M138.49,367.21H146v-3.38H140.4v-2.36H146v-3.28h-6.44v-2.38h7a22.54,22.54,0,0,0-1.37-2.36l2.49-1.12c.54.8,1.08,1.68,1.62,2.66l-1.74.82h7.7v2.38h-6.53v3.28h5.7v2.36h-5.7v3.38h7.51v2.43H138.49Z"/><path class="cls-12" d="M303.06,354h7.12l-.38-1.48,3-.11L313,354h7.24v2h-17.2v-2Zm.69,3.69h3.58l-1-1.26h3l.94,1.26h2.88c.45-.54.8-1,1-1.26H317l-1.15,1.26h3.74V367a3.6,3.6,0,0,1-.5,2,2.19,2.19,0,0,1-1.36.95,19.49,19.49,0,0,1-3.74.24,23,23,0,0,0-.47-2.26,20,20,0,0,0,2,.11c1.1,0,1.65-.51,1.65-1.52v-3.27l-.58.73-1.32-.92v4.49h-5.09v.87H308v-5.13l-1.16.82s-.26-.35-.72-.95v7h-2.39v-12.5Zm5.85,2,1.3,1.43c-.48.38-1,.74-1.46,1.11h4.68l-1.68-1.11,1.18-1.37c1.23.69,2.43,1.41,3.6,2.14v-2.31H306.14v2.56c1.27-.85,2.42-1.67,3.46-2.45Zm3.51,5.85v-1.43h-2.88v1.43Z"/><path class="cls-12" d="M324.28,355.13h6.06c-.32-.74-.6-1.35-.85-1.81l2.66-.88c.31.61.74,1.51,1.31,2.69h5.75v9.37H336.7v-.95h-10a13.18,13.18,0,0,1-2.37,6.83c-.7-.88-1.32-1.63-1.87-2.23a11.35,11.35,0,0,0,1.85-6.77v-6.25Zm12.42,6v-3.53h-9.9v3.53Z"/><path class="cls-1" d="M618.77,162.69A148.88,148.88,0,1,1,469.89,311.57,148.88,148.88,0,0,1,618.77,162.69Zm0,38.64A110.24,110.24,0,1,0,729,311.57,110.24,110.24,0,0,0,618.77,201.33Z"/><circle class="cls-2" cx="618.82" cy="311.52" r="110.29" transform="translate(263.55 906.3) rotate(-85.87)"/><circle class="cls-3" cx="618.76" cy="205.03" r="37.15"/><circle class="cls-4" cx="524.81" cy="359.5" r="37.15" transform="translate(-67.7 128) rotate(-13.07)"/><circle class="cls-5" cx="714.98" cy="361.2" r="37.15" transform="translate(-59.56 156.89) rotate(-12.03)"/><line class="cls-16" x1="571.95" y1="367.21" x2="662.6" y2="367.21"/><line class="cls-17" x1="537.01" y1="315.63" x2="582.33" y2="237.13"/><line class="cls-18" x1="705.09" y1="315.63" x2="659.77" y2="237.13"/><circle class="cls-11" cx="618.76" cy="302.32" r="23.73" transform="translate(-53.03 150.79) rotate(-13.33)"/><path class="cls-12" d="M612.59,307.21a5.51,5.51,0,0,1-2.41.45,4,4,0,0,1-3-1.15,4.17,4.17,0,0,1-1.13-3.06,4.53,4.53,0,0,1,1.26-3.3,4.37,4.37,0,0,1,3.25-1.28,5.71,5.71,0,0,1,2.08.33V301a3.73,3.73,0,0,0-2-.51,2.61,2.61,0,0,0-2,.8,2.9,2.9,0,0,0-.75,2.08,2.85,2.85,0,0,0,.71,2,2.48,2.48,0,0,0,1.92.76,4,4,0,0,0,2.06-.55Z"/><path class="cls-12" d="M622.14,307.51h-2l-.64-1.94h-3.09l-.63,1.94h-2L617,299h2.13l3,8.49Zm-3-3.34-1-2.95a3,3,0,0,1-.14-.74h0a4.18,4.18,0,0,1-.15.72l-1,3Z"/><path class="cls-12" d="M631.44,307.51h-1.85L626,302a7,7,0,0,1-.41-.7h0a11.68,11.68,0,0,1,.05,1.36v4.83h-1.71V299h2l3.47,5.34c.23.35.37.58.42.67h0a7.67,7.67,0,0,1,0-1.17V299h1.71Z"/><line class="cls-14" x1="561.8" y1="336.19" x2="595.37" y2="317.8"/><line class="cls-14" x1="677.82" y1="336.19" x2="644.25" y2="317.8"/><line class="cls-19" x1="618.33" y1="247.11" x2="619.19" y2="273.97"/><path class="cls-12" d="M597.39,374.13h4.11v-1.3h.74v1.3h3.92v.66h-3.92v1.34h2.55v.63a8,8,0,0,1-2.3,3,11.16,11.16,0,0,0,3.8,1.14c-.22.3-.39.57-.52.79a11,11,0,0,1-4-1.44,15,15,0,0,1-4,1.57,3.66,3.66,0,0,0-.4-.71,14.21,14.21,0,0,0,3.84-1.33,7.38,7.38,0,0,1-2-3h-.89v-.66h3.22v-1.34h-4.11v-.66Zm6.53,2.66h-4a5.79,5.79,0,0,0,1.91,2.57A6.56,6.56,0,0,0,603.92,376.79Z"/><path class="cls-12" d="M609.74,374.91h4.15v-2h.73v2h1.31v.69h-1.31v4.58c0,.94-.42,1.42-1.28,1.43H612c0-.24-.08-.51-.15-.82.58.05,1,.08,1.34.08a.65.65,0,0,0,.56-.19,1.14,1.14,0,0,0,.15-.71V375.6h-4.15v-.69Zm-2.63,2.25a15.29,15.29,0,0,0,2.06-4.31l.74.27c-.25.68-.5,1.3-.77,1.88v6.73h-.72v-5.29a12.72,12.72,0,0,1-1,1.58,6.17,6.17,0,0,0-.28-.86Zm3.22-.13.61-.38c.37.53.8,1.23,1.29,2.09l-.65.41A17,17,0,0,0,610.33,377Z"/><path class="cls-12" d="M621.94,380.26a4.13,4.13,0,0,1-1.94.41,3.17,3.17,0,0,1-2.41-1,3.54,3.54,0,0,1-.9-2.53,3.68,3.68,0,0,1,1-2.72,3.44,3.44,0,0,1,2.57-1,4.15,4.15,0,0,1,1.66.29v1a3.32,3.32,0,0,0-1.65-.42,2.51,2.51,0,0,0-1.91.78,3,3,0,0,0-.74,2.11,2.83,2.83,0,0,0,.69,2,2.36,2.36,0,0,0,1.8.74,3.33,3.33,0,0,0,1.81-.48Z"/><path class="cls-12" d="M629.4,380.55h-1l-.71-1.92h-2.92l-.67,1.92h-1l2.67-7h1l2.67,7Zm-2-2.71-1.06-2.91a2.85,2.85,0,0,1-.11-.49h0a2.69,2.69,0,0,1-.12.49l-1.05,2.91Z"/><path class="cls-12" d="M636.69,380.55h-1.07l-3.53-5.45a2.91,2.91,0,0,1-.24-.46h0c0,.16,0,.49,0,1v4.93H631v-7h1.13l3.43,5.36a4.38,4.38,0,0,1,.29.48h0a7.93,7.93,0,0,1,0-1v-4.82h.89Z"/><path class="cls-12" d="M539.52,289.14l1.92-3.32,3.88,2.24-1.6,2.76.49.28-.33.56-4.36-2.52Zm-.63-1.24-.59-.34,2.62-4.55,6.21,3.59c.66.38.77.94.34,1.69-.17.3-.41.7-.7,1.18-.17-.07-.41-.15-.71-.24.28-.42.54-.82.76-1.21a.59.59,0,0,0-.23-.92L541.16,284l-2.27,3.94Zm-1,2.73.36-.61,6.14,3.55-.35.61-6.15-3.55Zm5.25-.13,1.26-2.2-1.11-.64-1.27,2.19,1.12.65Zm-1.5-3.8-1.27,2.2,1.1.63,1.26-2.19-1.09-.64ZM537,289.56l-.15-.68c.61-.18,1.19-.33,1.74-.47l.15.77C538.19,289.28,537.61,289.41,537,289.56Z"/><path class="cls-12" d="M549.41,283.62a8.59,8.59,0,0,0,.7-2.91l-1.59,1.17c-.16-.39-.33-.77-.51-1.12l-.75,1.29-.52-.31.93-1.62c-.18-.33-.38-.64-.58-.94l.58-.44.39.72,1.74-3,.52.31-.59,1a4.39,4.39,0,0,1,.92,1.76q1-.77,2-1.47l.38.68c-.65.41-1.39.91-2.22,1.49a8.65,8.65,0,0,1-.58,3.43,7.64,7.64,0,0,0-.77-.05Zm-4.15.45c.11-.43.22-.85.31-1.26l-1.79-1-.57,1-.56-.33.57-1-1.47-.85.34-.58,1.46.85.52-.91.57.33-.52.9,1.61.93.18-.87a4.07,4.07,0,0,0,.64.31c-.07.32-.13.63-.2.92l2.42,1.4c.57.33.71.74.42,1.25-.11.2-.25.44-.43.74a6.15,6.15,0,0,0-.71-.28c.21-.3.36-.51.43-.64s.06-.43-.21-.59l-2.06-1.18c-.09.42-.16.82-.23,1.2l-.72-.31Zm0-3.21,1.76-3.05c-.26-.6-.53-1.14-.78-1.63l.66-.4c.17.46.33.92.49,1.38l1-1.63.52.3-3.08,5.33-.52-.3Zm-1.73-1.41,1.28-2.21c-.31,0-.62,0-.93,0l.06-.67,1.13,0,0,.25,1.27-2.2.53.3-2.79,4.84-.53-.31Zm5.28,1.52,1.26-1a3.1,3.1,0,0,0-.71-1.57l-1,1.69q.23.45.42.87Zm-3.95-1.69,0-.63c.43-.08.87-.14,1.32-.19l.05.7A10.11,10.11,0,0,0,544.86,279.28Z"/><path class="cls-12" d="M551.23,272.3l1.1-1.9c-.38-.24-.86-.51-1.43-.84l.36-.61c.45.26.92.54,1.42.85l1.29-2.23.55.32-1.26,2.18a4.63,4.63,0,0,0,4.35-.54c.09.27.18.54.26.8a5,5,0,0,1-3.89.56,5.12,5.12,0,0,1,1.46,3.78,7,7,0,0,0-.75.1,4.49,4.49,0,0,0-1.82-4l-1.08,1.86-.56-.32Zm.74,4.38a6.3,6.3,0,0,0-.69-2.85c-.22,0-.45-.05-.68-.06a12.76,12.76,0,0,1,.12,1.75l-.68.09a9.25,9.25,0,0,0-.08-1.83,8.08,8.08,0,0,0-1.46.27l-.13-.6a7.43,7.43,0,0,1,1.47-.31,7.82,7.82,0,0,0-.4-1.33l.61-.29a12.75,12.75,0,0,1,.43,1.58,5.67,5.67,0,0,1,3.16.91c1,.57,1.18,1.28.7,2.11l-.47.79c-.2-.08-.43-.17-.7-.26a8.09,8.09,0,0,0,.56-.83c.27-.47.12-.88-.44-1.23a5.38,5.38,0,0,0-1.24-.58,7.77,7.77,0,0,1,.59,2.57l-.67.1Zm-5.12-3.11,1.24-2.16-.86-.5.35-.61.87.5,1.24-2.15-.87-.5.36-.61.86.5,1.24-2.15.56.32-1.25,2.15.53.3-.35.62-.53-.31L549,271.12l.52.3-.35.61-.52-.3-1.25,2.16-.55-.32Zm5-4.85-.21-.55c.5-.27,1-.51,1.43-.71l.25.62C552.93,268.24,552.44,268.45,551.86,268.72Z"/><path class="cls-12" d="M556.73,268c.1-.25.21-.5.32-.76l-4.85-2.8-.34.59-.55-.32,2.22-3.84.27.16,2-3.43.49.29a13,13,0,0,1,3.49,3.8,6.17,6.17,0,0,0,2.65-.84,6.77,6.77,0,0,0,.31.81,9,9,0,0,1-2.67.67,9.7,9.7,0,0,1,.72,2.92l-.72.12.48.28-.34.58-1.7-1c-.4,1-.78,2-1.13,3l-.63-.25Zm-2.43-6.6-.26-.15-.28.49,4.45,2.57c.13-.32.25-.65.38-1l.52.34c-.12.32-.24.63-.37,1l1.27.72a7.71,7.71,0,0,0-.65-2.95,11.25,11.25,0,0,1-4.9-1.28l-.16.29Zm1.67-2.9-1.18,2a10.72,10.72,0,0,0,4.25,1.17,12.85,12.85,0,0,0-3.07-3.22Zm2,6.45-1.15-.66-.88,1.53,1.37.79L558,265Zm-2.53.58.88-1.53-1.2-.69-.88,1.53,1.2.69Zm-1.7-1,.88-1.53-1.2-.7-.88,1.53Z"/><path class="cls-12" d="M560.3,255.85c.5-1.8.31-3-.57-3.73l-.72,1.26a8.82,8.82,0,0,1,.68,1.22l-.64.34a5.87,5.87,0,0,0-1.42-2.21l.48-.51c.19.21.36.42.51.62l2.15-3.71.49.28.76,1.15c-.18.13-.38.27-.57.43l-.56-.88-.81,1.4c.15.14.28.28.41.42a4.35,4.35,0,0,0,3-1.64c.12.26.23.5.35.72a5.09,5.09,0,0,1-2.94,1.48,4.63,4.63,0,0,1,.15,3.26,4.57,4.57,0,0,0-.75.1Zm0,1.32,3.15-5.44L566,253.2l-.35.61-2-1.16-2.44,4.23,2,1.16-.35.61-2.56-1.48Zm-1.54-2.09a4.54,4.54,0,0,0,.73,0c.11.89.24,1.83.4,2.82l-.77.09c-.09-1-.2-2-.36-2.93Zm-2.51.41c.55-.28,1.09-.55,1.64-.8l.25.68q-.76.31-1.65.72l-.24-.6Zm6.65-.86a6.88,6.88,0,0,1,1.23.87c1.08-1,2.14-1.87,3.18-2.71l.38.65c-1,.76-2,1.61-3.17,2.58.42.71.21,2.07-.64,4.09a6.94,6.94,0,0,0-.8,0c.85-1.81,1.13-3,.84-3.69a3.14,3.14,0,0,0-1.37-1.16Z"/><path class="cls-12" d="M564.72,245.22l.59-1c-.23-.28-.48-.57-.74-.86l-1.14,2,2.25,1.31q3.09,1.77,3.72,3.75a3.87,3.87,0,0,0-.75.18,6.7,6.7,0,0,0-3.29-3.35l-2.8-1.62,3.14-5.43.53.3-1.27,2.2c.23.33.46.65.67,1l1.2-2.07,3.21,1.85-.33.57-.2-.12-.58,1,1.84,1.07a.85.85,0,0,1,.37,1.3c-.11.17-.24.4-.4.67l-.61-.2c.17-.25.32-.47.43-.66a.38.38,0,0,0-.17-.58l-1.79-1-.55.94.21.12-.33.57-3.21-1.86Zm.81,4a2.35,2.35,0,0,0,.59-.4c.76.73,1.64,1.56,2.63,2.48l-.55.49c-.9-.92-1.79-1.78-2.67-2.57Zm2-3.1,1.45-2.53-.74-.43-1.46,2.53.75.43Zm-.52-3.67L565.56,245l.73.42,1.46-2.53-.73-.42Zm5.12,1.47.09.71a23.38,23.38,0,0,0-2.33.26l0-.64c.82-.15,1.59-.27,2.29-.33Zm-2.77,5a10.55,10.55,0,0,0-.92-2.11l.59-.33a16,16,0,0,1,1,2.18l-.63.26Zm-6.34-.38c.53-.24,1.15-.49,1.85-.77.11.31.2.56.25.74-.73.25-1.36.47-1.88.68l-.22-.65Zm-1.82-1.5c.55-.23,1.15-.46,1.8-.66.07.28.14.53.21.74-.72.2-1.32.39-1.81.57Z"/><path class="cls-12" d="M678.69,256.77a4,4,0,0,1-1.33-1.48,3.16,3.16,0,0,1-.37-2.56,3.55,3.55,0,0,1,1.74-2,3.75,3.75,0,0,1,2.87-.48,3.46,3.46,0,0,1,2.18,1.71,4.21,4.21,0,0,1,.58,1.58l-.82.48a3.33,3.33,0,0,0-.46-1.64,2.53,2.53,0,0,0-1.63-1.27,3,3,0,0,0-2.2.42,2.81,2.81,0,0,0-1.38,1.59,2.34,2.34,0,0,0,.26,1.93,3.38,3.38,0,0,0,1.31,1.34Z"/><path class="cls-12" d="M679.41,258.6l6.07-3.5,1,1.73a3.9,3.9,0,0,1,.53,2.76,3.17,3.17,0,0,1-1.63,2.16,3.42,3.42,0,0,1-2.79.39,3.79,3.79,0,0,1-2.21-1.87l-1-1.67Zm5.83-2.31-4.68,2.7.51.88a2.85,2.85,0,0,0,1.67,1.44,2.69,2.69,0,0,0,2.14-.37,2.49,2.49,0,0,0,1.33-1.65,3,3,0,0,0-.44-2.09Z"/><path class="cls-12" d="M686.08,270.15l-.54-.93,3-5.78a2.91,2.91,0,0,1,.28-.43v0a9.28,9.28,0,0,1-.84.53L683.66,266l-.44-.78,6.07-3.5.57,1-2.93,5.65c-.14.27-.23.43-.27.5h0a9,9,0,0,1,.87-.55l4.17-2.41.45.78Z"/><path class="cls-12" d="M690.39,270.21l3,5.21c-.9.49-1.79.95-2.67,1.39a1.51,1.51,0,0,1-2.26-.55c-.25-.42-.49-.87-.73-1.36l.6-.49a13.8,13.8,0,0,0,.69,1.4q.44.79,1.41.33c.59-.28,1.26-.63,2-1l-1.39-2.41a5.88,5.88,0,0,1-2.43.67,4.39,4.39,0,0,1-2.77-1.06c.1-.24.18-.49.26-.75a4.18,4.18,0,0,0,2.5,1.06,4.6,4.6,0,0,0,2.06-.56l-.87-1.51.58-.34Zm5.14,1.36.57.43a6.79,6.79,0,0,0-1.4,4.84,5.74,5.74,0,0,0-.89-.17,8.12,8.12,0,0,1,1.72-5.1ZM690,269a11.22,11.22,0,0,0,4.71.95l0,.74a12.49,12.49,0,0,1-5-.93A4.13,4.13,0,0,0,690,269Z"/><path class="cls-12" d="M697,277.79l1,1.66c.62-.19,1.28-.42,2-.71l.3.72q-1,.38-1.89.66l2.5,4.33-.58.33-2.59-4.48q-.6.17-1.17.27l2.24,3.88-.54.32a6.4,6.4,0,0,1-3.14-.34,8.79,8.79,0,0,0,.54,3.11c-.39-.08-.72-.14-1-.17a12.85,12.85,0,0,1-.24-3.22,14,14,0,0,1-3-2.18,5.38,5.38,0,0,0,.31-.81,13.87,13.87,0,0,0,2.73,2.27,5.63,5.63,0,0,1,1.37-2.76,11.11,11.11,0,0,1-4.88-.29c.12-.26.22-.5.3-.73a10.81,10.81,0,0,0,6,0l-1.26-2.18.59-.34c.62-.07,1.23-.16,1.84-.28l.19.74-1.65.21Zm.8,6.29-1.63-2.84a4.39,4.39,0,0,0-1.06,2.48,5.4,5.4,0,0,0,2.69.36Zm2.67-3.15.64.09c0,.7-.08,1.38-.16,2.06l-.76-.13C700.35,282.27,700.44,281.6,700.5,280.93Z"/><path class="cls-12" d="M701.08,288.27c1.31,1.34,2.48,1.79,3.51,1.37l-.72-1.25a7.28,7.28,0,0,1-1.41,0c0-.23,0-.47,0-.72a5.78,5.78,0,0,0,2.61-.12l.2.67c-.28.06-.54.1-.79.13l2.14,3.72-.49.29-1.37.08q0-.35-.09-.72l1,0-.81-1.4c-.19.06-.38.1-.56.14a4.37,4.37,0,0,0-.09,3.43,5.67,5.67,0,0,0-.79-.06,5,5,0,0,1,.19-3.29,4.61,4.61,0,0,1-2.89-1.5,6.35,6.35,0,0,0,.28-.7Zm-1.13-.69,3.14,5.44-2.55,1.48-.35-.61,2-1.16-2.44-4.23-2,1.16-.36-.61,2.56-1.47Zm2.58-.29a6.1,6.1,0,0,0-.38.62c-.82-.35-1.7-.7-2.63-1.07l.29-.71c.94.44,1.84.83,2.72,1.16Zm.9-2.38c0,.61-.07,1.22-.13,1.82l-.71-.12q.12-.83.21-1.8l.63.1Zm-2.58,6.19a6.86,6.86,0,0,1-1.36.63c.3,1.42.55,2.79.76,4.11h-.77c-.16-1.22-.37-2.56-.64-4-.82,0-1.9-.85-3.23-2.6a5.75,5.75,0,0,0,.42-.69c1.15,1.64,2.08,2.5,2.78,2.58a3.13,3.13,0,0,0,1.69-.61Z"/><path class="cls-12" d="M708.07,297.41l.59,1,1.12-.21-1.15-2-2.26,1.3q-3.07,1.79-5.11,1.35a4.6,4.6,0,0,0,.23-.74c1.22.26,2.73-.14,4.54-1.18l2.8-1.62,3.14,5.44-.53.31-1.27-2.2L709,299l1.19,2.07L707,302.92l-.33-.56.21-.12-.59-1-1.84,1.06a.85.85,0,0,1-1.31-.33l-.39-.69a5.53,5.53,0,0,0,.48-.42c.13.27.25.51.36.7a.38.38,0,0,0,.59.14l1.79-1-.55-1-.2.12-.33-.56,3.21-1.86Zm-3.85-1.29a2.4,2.4,0,0,0,0,.72c-1,.3-2.17.64-3.46,1l-.15-.73c1.25-.31,2.43-.65,3.56-1Zm1.69,3.29,1.45,2.53.75-.43L706.65,299l-.74.43Zm3.43,1.39-1.46-2.53-.73.43,1.46,2.52.73-.42Zm-3.83,3.7-.66-.27c.34-.7.65-1.41.93-2.15l.59.27c-.28.79-.57,1.51-.86,2.15Zm-2.91-4.88a10,10,0,0,0,2.29.26l0,.68a16.46,16.46,0,0,1-2.37-.27l.1-.67Zm3.49-5.3c-.06.58-.14,1.24-.25,2l-.77-.15c.15-.76.27-1.42.35-2l.67.13Zm2.21-.82c-.07.59-.18,1.22-.32,1.88l-.75-.19c.19-.71.32-1.33.41-1.84Z"/><path class="cls-12" d="M617.53,212.23A2.7,2.7,0,0,1,617,214a2.31,2.31,0,0,1-1.61.74,25.59,25.59,0,0,1-2.85.09,23.34,23.34,0,0,0-.72-2.63c1.24.08,1.92.11,2,.11a1,1,0,0,0,1.14-1.1v-1.65h-3.77v5.07h-2.55v-5.07h-3.92q-.28,4-1.53,5.57c-.77-.55-1.55-1.06-2.34-1.52q1.47-2,1.42-7.08V198h15.22v14.21Zm-12.69-9.58h3.84v-2.24h-3.84v2.24ZM615,200.41h-3.77v2.24H615v-2.24Zm-10.16,6.82h3.84V205h-3.84v2.24Zm6.39,0H615V205h-3.77Z"/><path class="cls-12" d="M622.27,199.85h6.07c-.33-.75-.61-1.35-.85-1.81l2.66-.89c.3.61.74,1.51,1.3,2.7h5.76v9.36h-2.52v-.94h-10a13.18,13.18,0,0,1-2.37,6.82c-.7-.88-1.32-1.62-1.86-2.23a11.35,11.35,0,0,0,1.84-6.77v-6.24Zm12.42,6v-3.53h-9.9v3.53Z"/><path class="cls-12" d="M508,342.45h6.16c0-.94,0-1.83.05-2.67h2.17c0,1,0,1.87,0,2.67h6.08v10.84a2.82,2.82,0,0,1-.57,1.9,2.34,2.34,0,0,1-1.66.75,27.25,27.25,0,0,1-3,.05c-.13-.63-.29-1.35-.5-2.17.74.06,1.46.08,2.15.08a3,3,0,0,0,.81-.07.67.67,0,0,0,.38-.33,1.29,1.29,0,0,0,.14-.66v-8.21H516.3a20,20,0,0,1-.29,2.29c1.14.83,2.5,1.88,4.06,3.15l-1.68,1.68c-.74-.76-1.79-1.75-3.17-3a9.94,9.94,0,0,1-3.17,3.2,15.7,15.7,0,0,0-1.71-1.74,6.89,6.89,0,0,0,3.75-5.61h-3.83v11.5H508Z"/><path class="cls-12" d="M527.7,356.29v-5c-.53.24-1.08.48-1.66.71a18.54,18.54,0,0,0-1.06-2,17.55,17.55,0,0,0,7.43-4.29h2.14l-.21.3a15.47,15.47,0,0,0,7.15,3.88,20,20,0,0,0-1,2.07c-.6-.21-1.17-.43-1.71-.68v5h-2.16v-.86h-6.72v.86Zm3.79-16.14,2.73-.34c.16.39.35.9.6,1.53h6V345h-2.41v-1.72H528.05V345h-2.41v-3.63H532l-.49-1.19Zm5.09,11.51h-6.72v1.91h6.72v-1.91ZM531,343.45l1.3,1.51a37.84,37.84,0,0,1-5.44,3.15c-.27-.48-.65-1.12-1.15-1.89a29,29,0,0,0,5.29-2.77Zm4.29.11q2.61,1.23,5.39,2.73l-1.18,1.87c-1.55-1-3.3-2.07-5.28-3.12l1.07-1.48Zm-2.11,3.95a15,15,0,0,1-2.87,2.3H536A13.78,13.78,0,0,1,533.21,347.51Z"/><path class="cls-12" d="M498,365.39h1.63v-2.92h2.14v2.92h1.33v2.06h-1.33v2.4l1.23-.32c0,.87,0,1.61,0,2.22l-1.24.36v4.31a2,2,0,0,1-.6,1.75,5.67,5.67,0,0,1-2.8.39c-.1-.62-.24-1.34-.42-2.14h1.23c.3,0,.45-.2.45-.59V372.7l-1.53.43-.18-2.44,1.71-.36v-2.88H498v-2.06Zm6.28-2.6h9v6.94h-9v-6.94Zm6.9,1.84H506.4v.9h4.78v-.9Zm0,3.25V367H506.4v.89Zm-6.89,10.93q-1.4-1-1.8-1.26a8.53,8.53,0,0,0,2-4.87l1.94.42c-.06.48-.15.94-.25,1.39a4.2,4.2,0,0,0,1.73,1.59v-3.65h-4.55v-1.91h11v1.91h-4.35v1h3.78v1.81h-3.78v1.11c1.41,0,2.89,0,4.45,0-.13.5-.28,1.15-.45,2-2.13,0-3.86,0-5.19-.05a4.42,4.42,0,0,1-3.28-1.71A9.37,9.37,0,0,1,504.29,378.81Z"/><path class="cls-12" d="M519.13,362.41l2.11.61c-.38,1.22-.79,2.39-1.25,3.51v12h-2v-7.75c-.41.72-.84,1.41-1.29,2.08-.15-.89-.37-1.89-.67-3a27.86,27.86,0,0,0,3.14-7.42Zm1.59,8.73h2.34v-3.55h-1.81v-2.13h1.81v-3h2.26v3h2.57v-3h2.26v3H532v2.13h-1.84v3.55h2.3v2.12H520.72v-2.12Zm4.6,0h2.57v-3.55h-2.57v3.55Zm-4.57,6.05a25.22,25.22,0,0,0,3.21-3.71l1.87,1.24a42,42,0,0,1-3.38,3.94c-.46-.43-1-.92-1.7-1.47Zm8.2-3.65q1.72,1.71,3.46,3.64l-1.93,1.44a35.87,35.87,0,0,0-3.24-3.86Z"/><path class="cls-12" d="M534.35,363.7h6.52l-.35-1.36,2.79-.1.16,1.46h6.64v1.83H534.35V363.7Zm.63,3.39h3.28l-.94-1.16H540l.87,1.16h2.64c.42-.5.73-.88.94-1.16h2.69l-1.06,1.16h3.43v8.53a3.32,3.32,0,0,1-.45,1.84,2.05,2.05,0,0,1-1.25.88,19.63,19.63,0,0,1-3.43.22c-.15-.89-.3-1.58-.43-2.08a16.77,16.77,0,0,0,1.85.1c1,0,1.5-.46,1.5-1.39v-3l-.53.67-1.21-.84v4.11h-4.66v.8h-2v-4.7l-1.06.75-.66-.87v6.43H535V367.09Zm5.36,1.86,1.19,1.31-1.33,1h4.29l-1.55-1L544,369c1.13.63,2.23,1.29,3.3,2v-2.11H537.17v2.35c1.16-.79,2.22-1.54,3.17-2.25Zm3.22,5.36V373h-2.64v1.31Z"/><path class="cls-12" d="M698.36,355.52h4v-1.71h2.46v1.71h3.41v-1.71h2.46v1.71h3.95v2.16h-3.95v1.39h-2.46v-1.39h-3.41v1.39h-2.46v-1.39h-4v-2.16Zm8.6,12.73c-.12-.71-.3-1.53-.55-2.48,1.15.1,2.09.16,2.81.16a1.57,1.57,0,0,0,1-.29,1.17,1.17,0,0,0,.43-.8c.05-.35.08-1.23.11-2.66H705.4v8h-2.59v-8h-3.66V360H713.4c-.1,3-.19,4.8-.25,5.49a3.39,3.39,0,0,1-.55,1.65,2.37,2.37,0,0,1-1.23.87A22,22,0,0,1,707,368.25Z"/><path class="cls-12" d="M718.23,358.61h4.91v-4.82h2.36v1.4h7v2.09h-7v1.33h5.61v6.3H718.23v-6.3Zm10.45,2h-8v2.26h8v-2.26Zm2.09,4.65c.7,1.31,1.34,2.64,1.93,4l-2.08.81c-.66-1.5-1.27-2.82-1.84-4l2-.83Zm-12.46.13,2,.86q-.79,1.74-2.05,4l-1.95-1a41.52,41.52,0,0,0,2-3.87Zm8.65.12c.48,1.07,1,2.23,1.46,3.48l-2.17.67c-.41-1.21-.86-2.38-1.33-3.51l2-.64Zm-3.92.16q.78,2.06,1.26,3.57l-2.16.55c-.45-1.47-.84-2.66-1.17-3.55Z"/><path class="cls-12" d="M601.4,354.71h4.52v3.58h-.65V358h-3.22v.26h-.65v-3.58ZM600,362.82a4.2,4.2,0,0,0,1.43-3.06h.68a6.17,6.17,0,0,1-.19,1.19,2.85,2.85,0,0,0,1.5,1.19v-2.73h-2.8v-.6h6.1v.6h-2.62v1h2.27V361h-2.27v1.27a21.62,21.62,0,0,0,2.73,0l-.21.67c-.71,0-1.46,0-2.23,0a3.06,3.06,0,0,1-2.69-1.28,4.44,4.44,0,0,1-1.1,1.62,5.78,5.78,0,0,0-.6-.43Zm-2.19-3.71,1.17-.52v-1.93h-1.1v-.61H599v-1.69h.68v1.69h1.16v.61h-1.16v1.59c.35-.17.7-.35,1-.54,0,.24,0,.48.08.72l-1.12.56v3.16c0,.58-.22.9-.67,1a7.23,7.23,0,0,1-1.06,0c0-.25-.07-.5-.11-.75a7.17,7.17,0,0,0,.85.06c.2,0,.31-.12.31-.34v-2.75l-1.08.57-.09-.8Zm4.25-1.66h3.22v-.8h-3.22v.8Zm3.22-2.16h-3.22v.79h3.22Z"/><path class="cls-12" d="M614.26,354.4H615v2h1.3V357H615v2.5h1.61v.65H610v-.65h1.53V357h-1.17v-.65h1.17v-2h.74v2h2v-2Zm-6.73,4.27a15.3,15.3,0,0,0,2.24-4.35l.73.26c-.32.8-.64,1.54-1,2.22v6.43h-.73v-5.12a11.73,11.73,0,0,1-1,1.37c-.08-.24-.18-.52-.31-.81Zm4.77.87h2V357h-2v2.5Zm1.53,1.37.53-.46c.95.88,1.7,1.62,2.24,2.21l-.6.55c-.62-.73-1.34-1.5-2.17-2.3Zm-1.08,0a19.87,19.87,0,0,1-2.23,2.33,4.62,4.62,0,0,0-.55-.53,10.42,10.42,0,0,0,2.15-2.23Z"/><path class="cls-12" d="M620,358.08c1.81-.46,2.79-1.25,2.94-2.35h-1.45a8.66,8.66,0,0,1-.72,1.2l-.61-.39a5.93,5.93,0,0,0,1.21-2.32l.67.16c-.09.26-.18.52-.28.75H626v.57l-.61,1.23c-.21-.1-.43-.19-.66-.28l.48-.92h-1.61c0,.19-.11.38-.17.56a4.36,4.36,0,0,0,2.93,1.78c-.17.23-.32.45-.46.66a5.07,5.07,0,0,1-2.75-1.81,4.59,4.59,0,0,1-2.74,1.76c-.12-.18-.28-.38-.46-.6Zm-1.17.63h6.29v3h-.71v-2.32h-4.87v2.32h-.71v-3Zm1-2.38a6.54,6.54,0,0,0,.35.65c-.71.53-1.46,1.12-2.24,1.74l-.47-.61c.85-.59,1.64-1.18,2.36-1.78Zm-1.61-2c.52.33,1,.66,1.51,1l-.46.56c-.44-.34-.92-.7-1.45-1.07l.4-.5Zm4.07,5.32a7.2,7.2,0,0,1-.13,1.51c1.37.44,2.69.91,3.94,1.39l-.39.66c-1.14-.47-2.41-1-3.81-1.46-.4.72-1.69,1.22-3.86,1.5a7.23,7.23,0,0,0-.39-.71c2-.17,3.2-.55,3.62-1.12a3.18,3.18,0,0,0,.32-1.77Z"/><path class="cls-12" d="M631.38,356.6h1.18c.13-.34.25-.7.38-1.07h-2.3v2.61q0,3.56-1.39,5.09a4.43,4.43,0,0,0-.52-.56,6.72,6.72,0,0,0,1.25-4.53v-3.23h6.28v.62h-2.54l-.51,1.07h2.39v3.71H635v-.24h-1.17v2.13a.85.85,0,0,1-.95,1h-.78c0-.18-.07-.39-.13-.63.3,0,.57,0,.79,0a.37.37,0,0,0,.42-.43v-2.07H632v.24h-.65V356.6Zm-3,2.69a2.68,2.68,0,0,0,.64.31c-.25,1-.52,2.2-.83,3.52l-.7-.23c.35-1.24.65-2.44.89-3.6Zm3.69.18H635v-.85H632v.85Zm2.92-2.28H632V358H635v-.85Zm1.29,5.17-.57.44a21,21,0,0,0-1.4-1.89l.53-.37c.55.64,1,1.25,1.44,1.82Zm-5.69.08a9.54,9.54,0,0,0,1.37-1.85l.58.35a15.42,15.42,0,0,1-1.41,1.92l-.54-.42Zm-2.84-5.67c.47.34,1,.74,1.59,1.21-.21.26-.38.45-.51.59q-.87-.76-1.53-1.29l.45-.51Zm.39-2.33c.48.36,1,.77,1.48,1.23-.21.2-.4.38-.55.55-.52-.52-1-1-1.39-1.28Z"/><path class="cls-20" d="M150.28,144.67q0,7.72-2.85,11.6c0-.07-.86-.83-2.48-2.26q2.38-3,2.28-9.73v-6.79h7.82c-.24-.65-.49-1.3-.75-1.93l3.41-.73c.34.88.67,1.77,1,2.66H166v2.84H150.28Z"/><path class="cls-20" d="M168.48,142.56H171a23.86,23.86,0,0,0-2.13-1.24,18.76,18.76,0,0,0,3.27-6.15l2.86.75c-.23.6-.45,1.16-.67,1.7h3.48v-2.75h3.09v2.75h7.46v2.58h-7.46v2.36h8.67v2.58H168.48v-2.58Zm3.11,0h6.19V140.2h-4.72a19.17,19.17,0,0,1-1.47,2.36Zm-.73,13.56v-9.43h16.29v9.43h-2.92V155H173.79v1.14Zm13.37-6.77H173.79v3h10.44Z"/><path class="cls-20" d="M213.06,142.82c-.6.74-1.29,1.66-2.06,2.75-.53-.41-1.05-.84-1.54-1.29q-.28,6.87-.45,8.29a3.28,3.28,0,0,1-1.06,2.21,3.75,3.75,0,0,1-2.53.78c-1.47,0-2.87,0-4.18-.06-.13-1.19-.28-2.27-.45-3.25,1.86.16,3.21.24,4,.24a.87.87,0,0,0,.94-.66,40.75,40.75,0,0,0,.33-5.4h-5.31a14.77,14.77,0,0,1-.86,4.63,8.31,8.31,0,0,1-2.14,2.91,13.25,13.25,0,0,1-3.66,2.25,32.6,32.6,0,0,0-2.23-2.72,14,14,0,0,0,3.15-1.69,5.91,5.91,0,0,0,1.78-2,9.68,9.68,0,0,0,.73-3.4H194.5v-1.71c-.36.27-.73.53-1.1.79a24,24,0,0,0-2-2.43,23.17,23.17,0,0,0,7.32-8.12l2.88,1.24a25.84,25.84,0,0,1-5.64,7.26h12.57a29.55,29.55,0,0,1-5.45-7.09L205.8,135A23.64,23.64,0,0,0,213.06,142.82Z"/><path class="cls-20" d="M234,146.15a18.33,18.33,0,0,1-4.3,5,25.81,25.81,0,0,0,6.55,1.71c-.63,1-1.24,2.08-1.83,3.14a23.48,23.48,0,0,1-7.45-2.94,34.63,34.63,0,0,1-7.48,3.15c-.51-.94-1.06-1.86-1.63-2.76a44.13,44.13,0,0,0,6.47-2.35,19,19,0,0,1-2.84-3.35,29.65,29.65,0,0,1-5.71,6.75c-.3-1.35-.62-2.55-1-3.59a25.09,25.09,0,0,0,6.25-9.13h-5.39v-2.58c.4-1.18.76-2.4,1.08-3.69l2.94.32c-.22.89-.51,2-.88,3.31h3.09q.5-1.83,1-4.26l3.11.26-.9,4h6c-.8-.79-1.63-1.58-2.47-2.37l1.89-1.78c1.32,1,2.43,1.94,3.35,2.77l-1.36,1.38h3.63v2.64H224.29q-.31.9-.75,2H234v2.38Zm-7.07,3.46a14.72,14.72,0,0,0,3.48-3.35h-6.53A12.91,12.91,0,0,0,226.92,149.61Z"/><path class="cls-20" d="M238.2,138.72h11.17l-.24-3.78h3.22c0,1.26.09,2.52.16,3.78h3a26.33,26.33,0,0,0-1.83-2.17l1.91-1.44c.85.87,1.67,1.78,2.45,2.73l-1.13.88h2.19v2.83h-6.35q.48,7,1.29,9.18t1.53,2.19a.46.46,0,0,0,.36-.23,5,5,0,0,0,.38-1.28c.15-.71.29-1.64.42-2.81a18.61,18.61,0,0,0,2.82,1.5c-.39,2.69-.86,4.37-1.42,5.06a3.09,3.09,0,0,1-2.54,1q-3,0-4.24-3.39t-1.74-11.24H238.2v-2.83Zm.94,5.17h9.71v2.82h-3.22v4.18l4.25-.64c0,1.41,0,2.44,0,3.1L238.54,155l-.37-3.2,4.39-.51v-4.58h-3.42Z"/><path class="cls-20" d="M267.29,139.27l1.9,3.91c.56-1.29,1.09-2.62,1.6-4l1.45.66,1.15-.51,1.74,3.77c.53-1.28,1.05-2.62,1.54-4l2.32,1q-1.08,3.23-2.4,6.19l2.25,5-2.42,1.2-1.3-3.14c-.7,1.37-1.43,2.71-2.18,4l-1-.72-1.15.57-1.66-4a49.27,49.27,0,0,1-2.59,4.34q-.54-.5-1.32-1.14V156h-2.87V135.77h19.53v16.5a4.38,4.38,0,0,1-.64,2.57,2.47,2.47,0,0,1-1.78,1,39.28,39.28,0,0,1-4.27.15,29.88,29.88,0,0,0-.66-3,28.8,28.8,0,0,0,3.09.15,1.21,1.21,0,0,0,1.38-1.35V138.46H265.26v1.87l2-1.06Zm-2,1.49v9.8a47,47,0,0,0,2.53-4.43q-1.28-2.82-2.53-5.37Zm7,1.85c-.51,1.27-1,2.49-1.57,3.66l1.49,3.21c.56-1,1.1-2.15,1.64-3.29Z"/><path class="cls-20" d="M288,141.7l1.29,0c.55-1,1.13-2.09,1.71-3.33l2.54,1.16q-2.13,3.69-4.47,7.6c1.07-.14,2.19-.3,3.35-.47-.1,1-.16,1.85-.17,2.67q-4.42.57-6.12,1l-.84-2.4a19.43,19.43,0,0,0,2.58-3.72c-.82.06-1.58.13-2.28.22l-.82-2.43a31,31,0,0,0,3.7-7l2.66,1q-1.54,3-3.13,5.76Zm5.67,14.48V147.5h11.08v8.68H302v-1h-5.5v1Zm-8.38-1.24-.49-3c1.78-.19,4.5-.56,8.14-1.12-.09,1.21-.13,2.19-.11,3-3.19.44-5.71.83-7.54,1.16ZM302,150.19h-5.5v2.32H302v-2.32Zm-8.91-9.37a29.73,29.73,0,0,0,4.12-5.91l2.9.48c-.33.58-.67,1.14-1,1.67h6.17v2.58a13.44,13.44,0,0,1-3.38,4,23,23,0,0,0,4.34,1.07,27.51,27.51,0,0,0-.64,2.79,25.15,25.15,0,0,1-6.34-2.17,34,34,0,0,1-6.27,2.22,20.31,20.31,0,0,0-1.08-2.56,31.59,31.59,0,0,0,4.88-1.4,12.64,12.64,0,0,1-1.4-1.5l-.92.92a24.85,24.85,0,0,0-1.37-2.19Zm4.42-1.25-.43.57a9.55,9.55,0,0,0,2.17,2.18,8,8,0,0,0,2.66-2.75Z"/><path class="cls-20" d="M538,138.29h8c0-1.23.06-2.38.06-3.46h2.82c0,1.26,0,2.41,0,3.46h7.88v14a3.67,3.67,0,0,1-.74,2.46,3,3,0,0,1-2.15,1c-.95.08-2.25.1-3.9.07-.16-.82-.37-1.76-.65-2.82,1,.08,1.9.11,2.8.11a3.6,3.6,0,0,0,1-.1.86.86,0,0,0,.49-.42,1.65,1.65,0,0,0,.19-.85V141.1h-5a25.06,25.06,0,0,1-.38,3c1.48,1.07,3.24,2.43,5.26,4.08l-2.17,2.17c-1-1-2.32-2.26-4.11-3.84a12.71,12.71,0,0,1-4.1,4.14,21.63,21.63,0,0,0-2.21-2.26q4.58-2.75,4.85-7.26h-5V156H538Z"/><path class="cls-20" d="M563.5,156.21v-6.54c-.69.32-1.4.63-2.15.93a24.1,24.1,0,0,0-1.37-2.54,22.64,22.64,0,0,0,9.62-5.56h2.77l-.28.39a20.09,20.09,0,0,0,9.26,5c-.5.89-1,1.78-1.35,2.69-.77-.28-1.51-.57-2.21-.88v6.49H575v-1.12h-8.71v1.12Zm4.9-20.91,3.54-.43c.2.5.46,1.16.77,2h7.72v4.7h-3.12v-2.23H564v2.23h-3.12v-4.7H569c-.24-.61-.46-1.12-.64-1.55Zm6.6,14.91h-8.71v2.47H575v-2.47Zm-7.18-10.64,1.68,2a49.08,49.08,0,0,1-7,4.08c-.35-.63-.84-1.45-1.49-2.45a38,38,0,0,0,6.86-3.59Zm5.54.15q3.39,1.59,7,3.53l-1.52,2.43c-2-1.34-4.28-2.68-6.83-4l1.37-1.92Zm-2.73,5.12a20,20,0,0,1-3.72,3h7.31A18,18,0,0,1,570.63,144.84Z"/><path class="cls-20" d="M604.77,142.82c-.6.74-1.29,1.66-2.06,2.75-.53-.41-1.05-.84-1.54-1.29q-.28,6.87-.45,8.29a3.28,3.28,0,0,1-1.06,2.21,3.75,3.75,0,0,1-2.53.78c-1.47,0-2.86,0-4.18-.06-.13-1.19-.28-2.27-.45-3.25,1.86.16,3.21.24,4,.24a.87.87,0,0,0,.94-.66,40.75,40.75,0,0,0,.33-5.4H592.5a14.77,14.77,0,0,1-.86,4.63A8.19,8.19,0,0,1,589.5,154a13.25,13.25,0,0,1-3.66,2.25,30.71,30.71,0,0,0-2.23-2.72,14,14,0,0,0,3.15-1.69,6.06,6.06,0,0,0,1.79-2,9.72,9.72,0,0,0,.72-3.4h-3.06v-1.71c-.36.27-.73.53-1.1.79a24,24,0,0,0-2-2.43,23.17,23.17,0,0,0,7.32-8.12l2.88,1.24a25.66,25.66,0,0,1-5.64,7.26h12.57a29.55,29.55,0,0,1-5.45-7.09l2.67-1.37A23.64,23.64,0,0,0,604.77,142.82Z"/><path class="cls-20" d="M619.72,156.1h-3v-9.86h-3.4v8.22h-3v-6.87c-.86.92-1.78,1.81-2.75,2.66q-.54-1.84-1-3a28.79,28.79,0,0,0,5.56-6.77h-5.26v-2.86h6.67a22.45,22.45,0,0,0,.89-2.62l3,.34q-.36,1.17-.81,2.28h11v2.86H615.39a30.49,30.49,0,0,1-1.94,3.24h3.29V141h3v2.75h6.47v7a3.49,3.49,0,0,1-.59,2.16,2.38,2.38,0,0,1-1.55.95,17.71,17.71,0,0,1-3,.18c-.19-1.16-.36-2.11-.52-2.83.69.05,1.13.08,1.33.08.93,0,1.4-.52,1.4-1.55v-3.43h-3.55Z"/><path class="cls-20" d="M629.91,138.72h11.17l-.24-3.78h3.23c0,1.26.09,2.52.16,3.78h2.95a26.31,26.31,0,0,0-1.82-2.17l1.91-1.44c.84.87,1.66,1.78,2.45,2.73l-1.14.88h2.19v2.83h-6.35q.48,7,1.29,9.18t1.53,2.19a.46.46,0,0,0,.36-.23,4.59,4.59,0,0,0,.38-1.28c.15-.71.29-1.64.43-2.81a18.08,18.08,0,0,0,2.81,1.5c-.39,2.69-.86,4.37-1.42,5.06a3.08,3.08,0,0,1-2.53,1q-3,0-4.25-3.39t-1.74-11.24H629.91v-2.83Zm.94,5.17h9.71v2.82h-3.22v4.18l4.25-.64c0,1.41-.05,2.44,0,3.1L630.25,155l-.36-3.2,4.38-.51v-4.58h-3.42Z"/><path class="cls-20" d="M659,139.27l1.9,3.91c.56-1.29,1.1-2.62,1.6-4l1.45.66,1.15-.51,1.74,3.77c.54-1.28,1-2.62,1.54-4l2.32,1q-1.08,3.23-2.4,6.19l2.25,5-2.42,1.2-1.3-3.14c-.7,1.37-1.42,2.71-2.18,4l-1-.72-1.15.57-1.66-4a49.27,49.27,0,0,1-2.59,4.34c-.36-.33-.8-.71-1.31-1.14V156H654.1V135.77h19.53v16.5a4.38,4.38,0,0,1-.64,2.57,2.47,2.47,0,0,1-1.78,1A39.19,39.19,0,0,1,667,156c-.21-1.16-.43-2.16-.67-3a28.8,28.8,0,0,0,3.09.15,1.21,1.21,0,0,0,1.38-1.35V138.46H657v1.87l2-1.06Zm-2,1.49v9.8a49.24,49.24,0,0,0,2.52-4.43q-1.26-2.82-2.52-5.37Zm6.95,1.85c-.5,1.27-1,2.49-1.57,3.66l1.49,3.21c.56-1,1.11-2.15,1.64-3.29Z"/><path class="cls-20" d="M679.71,141.7l1.29,0c.56-1,1.13-2.09,1.71-3.33l2.54,1.16q-2.13,3.69-4.47,7.6c1.08-.14,2.19-.3,3.35-.47-.1,1-.15,1.85-.17,2.67q-4.43.57-6.12,1l-.84-2.4a19,19,0,0,0,2.58-3.72c-.82.06-1.58.13-2.28.22l-.81-2.43a31.48,31.48,0,0,0,3.69-7l2.66,1q-1.55,3-3.13,5.76Zm5.67,14.48V147.5h11.08v8.68h-2.79v-1h-5.5v1ZM677,154.94l-.49-3q2.68-.28,8.14-1.12c-.09,1.21-.12,2.19-.11,3q-4.78.66-7.54,1.16Zm16.67-4.75h-5.5v2.32h5.5v-2.32Zm-8.91-9.37a29.73,29.73,0,0,0,4.12-5.91l2.9.48c-.33.58-.67,1.14-1,1.67h6.17v2.58a13.44,13.44,0,0,1-3.38,4,22.88,22.88,0,0,0,4.35,1.07,25.34,25.34,0,0,0-.65,2.79,25.15,25.15,0,0,1-6.34-2.17,33.49,33.49,0,0,1-6.27,2.22,22.18,22.18,0,0,0-1.07-2.56,31.76,31.76,0,0,0,4.87-1.4,12.58,12.58,0,0,1-1.39-1.5l-.93.92a24.85,24.85,0,0,0-1.37-2.19Zm4.42-1.25-.43.57a9.55,9.55,0,0,0,2.17,2.18,8.12,8.12,0,0,0,2.67-2.75Z"/><path class="cls-20" d="M615.06,266.51s4,2.36,7.64-.24l-3.51,10.24Z"/><path class="cls-21" d="M536.6,309.05s2,4.2,6.45,4.09l-8.65,6.51Z"/><path class="cls-20" d="M652,317.55s-4.14,2.08-3.91,6.55l-6.74-8.47Z"/><path class="cls-20" d="M591.05,324.44s.1-4.64-4-6.54l10.64-2Z"/><path class="cls-22" d="M664.81,237.89s-4.63-.11-6.54,4l-2-10.64Z"/><path class="cls-23" d="M655.88,371.16s2.3-4-.35-7.63l10.28,3.35Z"/><path class="cls-20" d="M219.22,266.54s4,2.37,7.64-.23l-3.51,10.24Z"/><path class="cls-21" d="M148.38,314s2,4.2,6.45,4.09l-8.65,6.51Z"/><path class="cls-24" d="M186.59,244.43s-1.86-4.24-6.35-4.25l8.81-6.29Z"/><path class="cls-20" d="M256.11,317.58s-4.14,2.08-3.92,6.56l-6.73-8.47Z"/><path class="cls-20" d="M195.21,324.47s.1-4.63-4-6.53l10.64-2Z"/><path class="cls-22" d="M269,237.92s-4.64-.1-6.54,4l-2-10.64Z"/><path class="cls-24" d="M295.94,318.45s4.63.21,6.63-3.8l1.72,10.69Z"/><path class="cls-25" d="M260,364.11s2.31-4-.35-7.63L270,359.83Z"/><path class="cls-22" d="M179.29,371s-2.3-4,.35-7.63l-10.29,3.35Z"/><line class="cls-6" x1="384.48" y1="308.69" x2="455.28" y2="308.69"/><line class="cls-7" x1="457.83" y1="315.53" x2="390.15" y2="315.53"/><path class="cls-25" d="M448.09,312.43s2.31-4-.35-7.63L458,308.15Z"/><path class="cls-22" d="M394.28,319.35s-2.3-4,.35-7.63l-10.29,3.35Z"/></svg>