<svg id="_" data-name="ͼ" xmlns="http://www.w3.org/2000/svg" viewBox="0 0 841.89 595.28"><defs><style>.cls-1,.cls-14,.cls-2,.cls-6{fill:#00ade9;}.cls-1,.cls-13,.cls-14,.cls-15,.cls-16,.cls-17,.cls-25,.cls-26,.cls-7{fill-rule:evenodd;}.cls-1{opacity:0.21;}.cls-2{opacity:0.48;}.cls-25,.cls-3{fill:#38bde9;}.cls-26,.cls-4{fill:#5dc3e0;}.cls-11,.cls-16,.cls-5{fill:#71c7d5;}.cls-7,.cls-8{fill:#fff;}.cls-10,.cls-18,.cls-19,.cls-20,.cls-21,.cls-22,.cls-23,.cls-24,.cls-9{fill:none;}.cls-9{stroke:#25b9e9;}.cls-10,.cls-11,.cls-12,.cls-18,.cls-19,.cls-20,.cls-21,.cls-22,.cls-23,.cls-24,.cls-9{stroke-miterlimit:22.93;}.cls-10,.cls-18,.cls-19,.cls-20,.cls-24,.cls-9{stroke-width:1.64px;}.cls-10{stroke:#4ec0e1;}.cls-11,.cls-19{stroke:#71c7d5;}.cls-11,.cls-12,.cls-21,.cls-22,.cls-23{stroke-width:1.64px;}.cls-12{fill:#77cadd;}.cls-12,.cls-23,.cls-24{stroke:#00ade9;}.cls-13{fill:#5dc2d0;}.cls-15{fill:#4ec0e1;}.cls-17{fill:#25b9e9;}.cls-18,.cls-21{stroke:#5dc3e0;}.cls-20,.cls-22{stroke:#38bde9;}</style></defs><title>流程图英文</title><path class="cls-1" d="M223.12,162.69A148.88,148.88,0,1,1,74.23,311.57,148.88,148.88,0,0,1,223.12,162.69Zm0,38.64A110.24,110.24,0,1,0,333.35,311.57,110.24,110.24,0,0,0,223.12,201.33Z"/><ellipse class="cls-2" cx="223.21" cy="311.57" rx="110.23" ry="110.24" transform="translate(-2.25 1.62) rotate(-0.41)"/><circle class="cls-3" cx="223.1" cy="205.03" r="37.15" transform="translate(-79.64 217.81) rotate(-45)"/><circle class="cls-4" cx="126.88" cy="361.2" r="37.15" transform="translate(-4.35 1.56) rotate(-0.69)"/><circle class="cls-5" cx="319.32" cy="361.2" r="37.15" transform="translate(-161.88 331.59) rotate(-45)"/><circle class="cls-6" cx="223.1" cy="302.32" r="23.73" transform="translate(-148.43 246.3) rotate(-45)"/><path class="cls-7" d="M216.94,307.21a5.59,5.59,0,0,1-2.42.45,4.06,4.06,0,0,1-3.05-1.15,4.17,4.17,0,0,1-1.13-3.06,4.53,4.53,0,0,1,1.26-3.3,4.37,4.37,0,0,1,3.25-1.28,5.76,5.76,0,0,1,2.09.33V301a3.79,3.79,0,0,0-2-.51,2.61,2.61,0,0,0-2,.8,2.9,2.9,0,0,0-.74,2.08,2.85,2.85,0,0,0,.7,2,2.49,2.49,0,0,0,1.92.76,4,4,0,0,0,2.07-.55Z"/><path class="cls-7" d="M226.48,307.51h-2l-.64-1.94h-3.09l-.62,1.94h-2L221.3,299h2.13l3,8.49Zm-3-3.34-1-2.95a3.1,3.1,0,0,1-.13-.74h0a2.88,2.88,0,0,1-.15.72l-1,3Z"/><path class="cls-7" d="M235.78,307.51h-1.85l-3.6-5.49a7,7,0,0,1-.41-.7h0c0,.3,0,.75,0,1.36v4.83h-1.72V299h2l3.47,5.34c.23.35.37.58.42.67h0a7.67,7.67,0,0,1-.05-1.17V299h1.71Z"/><path class="cls-7" d="M201.56,354.72v1.83h-1.13V351.3h1.81c1.31,0,2,.55,2,1.66a1.57,1.57,0,0,1-.6,1.29,2.09,2.09,0,0,1-1.48.47Zm0-2.55v1.69H202c.66,0,1-.28,1-.86s-.33-.83-1-.83Z"/><path class="cls-7" d="M205.21,353a2.24,2.24,0,0,1,.68-.23,3.53,3.53,0,0,1,.73-.09,1.39,1.39,0,0,1,1.57,1.58v2.26h-1V356h0a1.25,1.25,0,0,1-1.13.64,1.2,1.2,0,0,1-.85-.31,1.06,1.06,0,0,1-.32-.83c0-.71.43-1.13,1.28-1.25l1-.14c0-.44-.23-.65-.69-.65a2.19,2.19,0,0,0-1.26.4V353Zm1.24,1.82c-.4.06-.6.23-.6.54a.43.43,0,0,0,.15.34.56.56,0,0,0,.38.13.73.73,0,0,0,.56-.24.86.86,0,0,0,.22-.59v-.27Z"/><path class="cls-7" d="M213.06,352.8l-1.55,4.09c-.36.95-.9,1.43-1.62,1.43a1.94,1.94,0,0,1-.66-.09v-.88a1,1,0,0,0,.49.12.63.63,0,0,0,.63-.43l.21-.49L209,352.8h1.21l.74,2.35a2.89,2.89,0,0,1,.1.48h0a2.34,2.34,0,0,1,.11-.47l.75-2.36Z"/><path class="cls-7" d="M216.7,356.1v.45h-1.09V351h1.09v2.37h0a1.38,1.38,0,0,1,1.23-.66,1.35,1.35,0,0,1,1.11.49,2.11,2.11,0,0,1,.4,1.37,2.33,2.33,0,0,1-.46,1.51,1.51,1.51,0,0,1-1.23.57,1.19,1.19,0,0,1-1.05-.55Zm0-1.17a.87.87,0,0,0,.22.62.7.7,0,0,0,.56.25.73.73,0,0,0,.64-.32,1.53,1.53,0,0,0,.23-.9,1.25,1.25,0,0,0-.21-.76.72.72,0,0,0-.6-.27.75.75,0,0,0-.6.28,1,1,0,0,0-.24.7Z"/><path class="cls-7" d="M224.16,352.8l-1.55,4.09c-.36.95-.89,1.43-1.61,1.43a1.9,1.9,0,0,1-.66-.09v-.88a1,1,0,0,0,.48.12.65.65,0,0,0,.64-.43l.2-.49-1.51-3.75h1.21l.73,2.35a2.14,2.14,0,0,1,.1.48h0c0-.12.06-.28.11-.47l.75-2.36Z"/><path class="cls-7" d="M230.57,356.36a3.35,3.35,0,0,1-1.49.29,2.51,2.51,0,0,1-1.89-.72,2.59,2.59,0,0,1-.7-1.89,2.79,2.79,0,0,1,.78-2,2.69,2.69,0,0,1,2-.79,3.43,3.43,0,0,1,1.29.2v1.08a2.32,2.32,0,0,0-1.21-.31,1.6,1.6,0,0,0-1.23.49,1.8,1.8,0,0,0-.46,1.29,1.76,1.76,0,0,0,.44,1.24,1.52,1.52,0,0,0,1.18.47,2.52,2.52,0,0,0,1.28-.33Z"/><path class="cls-7" d="M236.48,356.55h-1.22l-.4-1.2H233l-.38,1.2h-1.22l1.92-5.25h1.32l1.89,5.25Zm-1.88-2.07-.6-1.82a2.15,2.15,0,0,1-.08-.46h0a1.71,1.71,0,0,1-.09.45l-.6,1.83Z"/><path class="cls-7" d="M242.23,356.55h-1.14l-2.23-3.4a2.68,2.68,0,0,1-.25-.43h0q0,.28,0,.84v3h-1.06V351.3h1.22l2.15,3.3c.14.22.23.36.26.42h0a5.72,5.72,0,0,1,0-.73v-3h1.06Z"/><path class="cls-7" d="M210.56,373l-1.4,5.26h-1.25l-.89-3.43a2.8,2.8,0,0,1-.09-.58h0a2.66,2.66,0,0,1-.1.58l-.91,3.43h-1.29L203.21,373h1.23l.78,3.56a3.08,3.08,0,0,1,.07.59h0a3,3,0,0,1,.1-.61l1-3.54h1.19l.89,3.59a3.12,3.12,0,0,1,.09.56h0a3.68,3.68,0,0,1,.08-.58l.76-3.57Z"/><path class="cls-7" d="M211.53,378.24v-5.46h1.09v5.46Z"/><rect class="cls-8" x="214.04" y="375.84" width="2.01" height="0.77"/><polygon class="cls-7" points="220.57 373.89 218.69 373.89 218.69 375.25 220.42 375.25 220.42 376.16 218.69 376.16 218.69 378.24 217.57 378.24 217.57 372.98 220.57 372.98 220.57 373.89"/><path class="cls-7" d="M221.74,378.24v-5.46h1.09v5.46Z"/><path class="cls-7" d="M230.55,378.24h-1.22l-.39-1.21H227l-.39,1.21h-1.22l1.93-5.26h1.32l1.88,5.26Zm-1.88-2.07-.59-1.83a2.07,2.07,0,0,1-.09-.46h0a1.63,1.63,0,0,1-.09.45l-.6,1.84Z"/><path class="cls-7" d="M235.15,378.24h-1.1v-.53h0a1.33,1.33,0,0,1-1.18.62,1.4,1.4,0,0,1-1.14-.51,2.11,2.11,0,0,1-.42-1.38,2.29,2.29,0,0,1,.47-1.49,1.56,1.56,0,0,1,1.24-.56,1.09,1.09,0,0,1,1,.53h0v-2.24h1.1v5.56Zm-1.08-2.13a.92.92,0,0,0-.23-.63.72.72,0,0,0-.57-.25.73.73,0,0,0-.63.32,1.46,1.46,0,0,0-.23.86,1.27,1.27,0,0,0,.22.8.76.76,0,0,0,.61.28.74.74,0,0,0,.6-.3,1.24,1.24,0,0,0,.23-.77Z"/><path class="cls-7" d="M236.46,377.23a2.1,2.1,0,0,0,1.1.34c.46,0,.68-.12.68-.36s-.18-.32-.56-.43a2.48,2.48,0,0,1-1-.49,1.09,1.09,0,0,1,.19-1.59,2,2,0,0,1,1.17-.31,3.32,3.32,0,0,1,1,.15v.87a1.81,1.81,0,0,0-1-.26.87.87,0,0,0-.42.09.28.28,0,0,0-.16.25c0,.17.16.31.48.41a6,6,0,0,1,.76.31,1.07,1.07,0,0,1,.39.37,1,1,0,0,1,.14.52,1.06,1.06,0,0,1-.47.91,2.17,2.17,0,0,1-1.24.32,3.19,3.19,0,0,1-1.13-.2Z"/><path class="cls-7" d="M147.51,290a2.88,2.88,0,0,1-1.38-1.64,2.47,2.47,0,0,1,.29-2,2.34,2.34,0,0,1,1.55-1.2,2.73,2.73,0,0,1,2,.37,2.81,2.81,0,0,1,1.38,1.62,2.44,2.44,0,0,1-.28,2,2.4,2.4,0,0,1-1.56,1.22,2.71,2.71,0,0,1-2-.34Zm.54-1.05a2.05,2.05,0,0,0,1.27.3,1.19,1.19,0,0,0,.93-.63,1.24,1.24,0,0,0,.11-1.13,2,2,0,0,0-.9-.94,2.15,2.15,0,0,0-1.31-.34,1.19,1.19,0,0,0-.91.63,1.25,1.25,0,0,0-.1,1.14A2,2,0,0,0,148.05,289Z"/><path class="cls-7" d="M150,281.39a1.17,1.17,0,0,0-.28.32.52.52,0,0,0,.26.8l.36.21.43-.74.71.41-.43.74,2.54,1.47-.55.95-2.54-1.47-.31.55-.71-.41.31-.55-.42-.24a1.33,1.33,0,0,1-.68-.87,1.55,1.55,0,0,1,.22-1.14,1.83,1.83,0,0,1,.35-.46Z"/><path class="cls-7" d="M151.62,278.59a1.43,1.43,0,0,0-.29.32.52.52,0,0,0,.26.8l.37.21.42-.74.71.41-.43.74,2.55,1.47-.55.95-2.54-1.47-.32.55-.71-.41.32-.55-.42-.24a1.3,1.3,0,0,1-.68-.87,1.55,1.55,0,0,1,.22-1.14,2,2,0,0,1,.34-.46Z"/><path class="cls-7" d="M156.43,276.54l-1.23,2.14a.89.89,0,0,0,1.28-.47,2,2,0,0,0,.28-1.11l.7.41a2.73,2.73,0,0,1-.42,1.3,1.74,1.74,0,0,1-2.61.68,2,2,0,0,1-1-1.19,1.76,1.76,0,0,1,.18-1.43,1.65,1.65,0,0,1,1-.84,1.88,1.88,0,0,1,1.37.28l.4.23Zm-1.1.54c-.49-.28-.84-.22-1.07.17a.7.7,0,0,0,0,.55,1.1,1.1,0,0,0,.39.54Z"/><path class="cls-7" d="M157.16,272.9a.85.85,0,0,0-.34.36.68.68,0,0,0,0,.65,1.24,1.24,0,0,0,.57.59l1.56.9-.55,1-3.25-1.88.55-1,.61.36v0a1,1,0,0,1-.17-1.24.65.65,0,0,1,.18-.23Z"/><path class="cls-7" d="M162.63,268.57a3.4,3.4,0,0,1-.51,1.43,2.47,2.47,0,0,1-1.55,1.28,2.61,2.61,0,0,1-2-.34,2.82,2.82,0,0,1-1.37-1.7,2.67,2.67,0,0,1,.32-2.13,3.54,3.54,0,0,1,.82-1l.93.54a2.33,2.33,0,0,0-.87.89,1.59,1.59,0,0,0-.19,1.31,1.82,1.82,0,0,0,.88,1.05,1.73,1.73,0,0,0,1.3.24,1.55,1.55,0,0,0,1-.79,2.47,2.47,0,0,0,.35-1.28Z"/><path class="cls-7" d="M165.75,263.55l-.61,1.05-1.25-.26-.95,1.66.85.94-.61,1.05-3.59-4.3.66-1.14,5.5,1Zm-2.74.59-1.87-.39a2.42,2.42,0,0,1-.44-.16l0,0a1.67,1.67,0,0,1,.34.31l1.29,1.43Z"/><path class="cls-7" d="M168.62,258.56l-.57,1-4.06.22a2.9,2.9,0,0,1-.5,0h0c.16.08.41.21.74.4l2.59,1.49-.53.92L161.73,260l.61-1.06,3.94-.2.49,0h0a6.26,6.26,0,0,1-.65-.34l-2.59-1.5.53-.92Z"/><path class="cls-7" d="M168.34,295.59,172,299.8l-.64,1.09-5.45-1.06.6-1.05,3.79.87a2.65,2.65,0,0,1,.5.17v0a3.25,3.25,0,0,1-.4-.36l-2.64-2.84Z"/><path class="cls-7" d="M169,295a.54.54,0,0,1-.27-.36.7.7,0,0,1,.09-.48.71.71,0,0,1,.37-.32.53.53,0,0,1,.44.05.54.54,0,0,1,.27.37.63.63,0,0,1-.09.47.59.59,0,0,1-.37.31.52.52,0,0,1-.44,0Zm4.34,2.41-3.25-1.88.54-.95,3.25,1.88Z"/><path class="cls-7" d="M174.91,291.58l-1.24,2.14a.89.89,0,0,0,1.28-.47,2,2,0,0,0,.29-1.11l.7.41a2.83,2.83,0,0,1-.43,1.31,1.88,1.88,0,0,1-1.13.95,1.92,1.92,0,0,1-1.47-.27,2.06,2.06,0,0,1-1-1.19,1.75,1.75,0,0,1,.18-1.44,1.61,1.61,0,0,1,1-.84,1.94,1.94,0,0,1,1.38.28l.4.23Zm-1.11.54c-.48-.28-.84-.22-1.06.17a.62.62,0,0,0-.05.55,1.1,1.1,0,0,0,.39.54Z"/><path class="cls-7" d="M176.26,284.87l2.71,2.82-.58,1-2.24-.63a1.63,1.63,0,0,1-.43-.18v0a4.15,4.15,0,0,1,.35.29l1.65,1.67-.57,1-3.78-1,.56-1,2.43.78a2.1,2.1,0,0,1,.38.16v0a3.72,3.72,0,0,1-.33-.27l-1.81-1.82.52-.9,2.46.72a3.64,3.64,0,0,1,.38.17l0,0a2.87,2.87,0,0,1-.33-.25l-1.9-1.7Z"/><path class="cls-7" d="M183.16,280.43l-.61,1.05-1.24-.26-1,1.66.85.94-.6,1.05-3.59-4.3.65-1.14,5.5,1Zm-2.73.59-1.88-.39a2.73,2.73,0,0,1-.44-.16v0a2.43,2.43,0,0,1,.34.3l1.29,1.44Z"/><path class="cls-7" d="M185.46,276.45l-.55.95-.46-.27v0a1.28,1.28,0,0,1-.05,1.32,1.39,1.39,0,0,1-1,.74,2.14,2.14,0,0,1-1.41-.33,2.26,2.26,0,0,1-1-1.15,1.56,1.56,0,0,1,.13-1.36,1.07,1.07,0,0,1,1-.62h0l-1.94-1.12.55-.95,4.81,2.78Zm-2.38-.13a.88.88,0,0,0-.66-.12.73.73,0,0,0-.5.37.72.72,0,0,0,0,.71,1.52,1.52,0,0,0,.63.63,1.22,1.22,0,0,0,.8.2.71.71,0,0,0,.54-.38.72.72,0,0,0,.05-.67,1.24,1.24,0,0,0-.55-.59Z"/><path class="cls-7" d="M185.24,274.81a2,2,0,0,0,.85-.79c.23-.39.23-.65,0-.77s-.36,0-.65.27a2.37,2.37,0,0,1-.9.59.94.94,0,0,1-.75-.13,1,1,0,0,1-.53-.82,2,2,0,0,1,.32-1.18,3.38,3.38,0,0,1,.62-.78l.75.43a1.84,1.84,0,0,0-.7.71.78.78,0,0,0-.13.41.27.27,0,0,0,.13.26c.15.08.35,0,.6-.21a5.22,5.22,0,0,1,.65-.5,1,1,0,0,1,.51-.16,1,1,0,0,1,.52.15,1,1,0,0,1,.55.85,2.14,2.14,0,0,1-.34,1.24,3.36,3.36,0,0,1-.73.88Z"/><path class="cls-7" d="M294.25,249,289,250.4l-.62-1.08,2.52-2.49a2.28,2.28,0,0,1,.46-.36v0a3.31,3.31,0,0,1-.55.21l-3.42.92-.65-1.12,3.85-3.84.62,1.06-2.7,2.46a3.72,3.72,0,0,1-.48.36l0,0a2.71,2.71,0,0,1,.57-.21l3.56-.93.6,1L290.1,249a5.2,5.2,0,0,1-.44.35h0a4.08,4.08,0,0,1,.54-.22l3.48-1.12Z"/><path class="cls-7" d="M290.17,252.45l4.34-2.35.55.94-4.34,2.35Z"/><rect class="cls-8" x="293.29" y="253.48" width="0.77" height="2.01" transform="matrix(0.87, -0.5, 0.5, 0.87, -87.91, 180.99)"/><polygon class="cls-7" points="298.46 258.11 297.52 256.48 296.35 257.16 297.21 258.65 296.42 259.11 295.55 257.62 293.76 258.65 293.2 257.68 297.75 255.05 299.25 257.65 298.46 258.11"/><path class="cls-7" d="M295.28,261.29l4.32-2.35.55.95-4.32,2.35Z"/><path class="cls-7" d="M298.29,265.61l-1.88,1.08-.55-.94L300.6,263l.55.95-.49.29h0a1.37,1.37,0,0,1,1.19.73,1.33,1.33,0,0,1,.12,1.22,2.16,2.16,0,0,1-1,1,2.27,2.27,0,0,1-1.54.34,1.52,1.52,0,0,1-1.11-.78,1.15,1.15,0,0,1-.05-1.17Zm1-.62a1,1,0,0,0-.46.51.77.77,0,0,0,.66,1,1.54,1.54,0,0,0,.9-.25c.59-.35.76-.75.49-1.21a.76.76,0,0,0-.55-.39,1.13,1.13,0,0,0-.76.16Z"/><path class="cls-7" d="M303.46,269.94a1,1,0,0,0-.14-.48.73.73,0,0,0-.54-.37,1.26,1.26,0,0,0-.79.21l-1.57.9-.55-.95,3.26-1.88.55.95-.62.35v0a1,1,0,0,1,1.16.47.69.69,0,0,1,.11.27Z"/><path class="cls-7" d="M303,271a1.92,1.92,0,0,1,1.54-.25,2,2,0,0,1,1.2,1,2,2,0,0,1,.27,1.5,1.85,1.85,0,0,1-.95,1.16,2,2,0,0,1-1.54.27,2.27,2.27,0,0,1-1.49-2.53,1.89,1.89,0,0,1,1-1.18Zm.56.95c-.64.38-.82.83-.51,1.36s.77.57,1.44.18.8-.81.51-1.32a.82.82,0,0,0-.59-.43A1.32,1.32,0,0,0,303.6,272Z"/><path class="cls-7" d="M309,277.61l-3.95.65-.62-1.07,2.58-3,.59,1-1.7,1.78a4,4,0,0,1-.5.43h0a3.63,3.63,0,0,1,.61-.2l2.41-.58Z"/><path class="cls-7" d="M310.49,277.71a.55.55,0,0,1,.45,0,.66.66,0,0,1,.36.32.6.6,0,0,1,.09.48.56.56,0,0,1-.71.4.65.65,0,0,1-.37-.31.64.64,0,0,1-.08-.48.51.51,0,0,1,.26-.36Zm-4.26,2.55,3.26-1.87.54.94-3.25,1.88Z"/><path class="cls-7" d="M309.29,285.55l-.55-.94.46-.27h0a1.3,1.3,0,0,1-1.12-.71,1.37,1.37,0,0,1-.13-1.24,2.09,2.09,0,0,1,1-1.05,2.25,2.25,0,0,1,1.52-.34,1.54,1.54,0,0,1,1.11.79,1.09,1.09,0,0,1,.06,1.16h0l1.94-1.12.55.95-4.81,2.77Zm1.3-2a.92.92,0,0,0,.43-.51.71.71,0,0,0-.07-.62.74.74,0,0,0-.59-.39,1.43,1.43,0,0,0-.86.23,1.31,1.31,0,0,0-.58.59.77.77,0,0,0,.07.67.73.73,0,0,0,.55.37,1.28,1.28,0,0,0,.78-.18Z"/><path class="cls-7" d="M314.25,284.21a.53.53,0,0,1,.44,0,.62.62,0,0,1,.36.32.65.65,0,0,1,.1.48.56.56,0,0,1-.27.35.53.53,0,0,1-.44.05.67.67,0,0,1-.38-.31.64.64,0,0,1-.08-.48.55.55,0,0,1,.27-.36ZM310,286.76l3.25-1.87.54.94-3.25,1.88Z"/><path class="cls-7" d="M313,292l-.54-.95,1.81-1c.53-.31.68-.65.46-1a.61.61,0,0,0-.47-.32.89.89,0,0,0-.64.13l-1.85,1.07-.55-.95,3.25-1.88.55.95-.52.3h0a1.34,1.34,0,0,1,1.2.7q.63,1.08-.72,1.86Z"/><path class="cls-7" d="M315.86,296.11a2.08,2.08,0,0,1-1.69.29,2.4,2.4,0,0,1-1.35-1.2,2.8,2.8,0,0,1-.41-1.16l.81-.47a2.41,2.41,0,0,0,.29,1.19,1.27,1.27,0,0,0,.73.64,1.11,1.11,0,0,0,.92-.15l.27-.15v0a1.29,1.29,0,0,1-1.14-.7,1.4,1.4,0,0,1-.13-1.24,2,2,0,0,1,1-1,2.28,2.28,0,0,1,1.54-.35,1.49,1.49,0,0,1,1.11.79,1.15,1.15,0,0,1,.05,1.17h0l.39-.22.55.94-2.9,1.67Zm.94-1.79a.9.9,0,0,0,.43-.51.77.77,0,0,0-.65-1,1.45,1.45,0,0,0-.88.24,1.24,1.24,0,0,0-.56.58.73.73,0,0,0,.05.66.77.77,0,0,0,.55.38,1.16,1.16,0,0,0,.77-.17Z"/><path class="cls-7" d="M285.61,257.77a2.82,2.82,0,0,1,2.1-.38,2.51,2.51,0,0,1,1.63,1.26,2.35,2.35,0,0,1,.25,2,2.73,2.73,0,0,1-1.32,1.56,2.85,2.85,0,0,1-2.09.38,2.65,2.65,0,0,1-1.87-3.2,2.62,2.62,0,0,1,1.3-1.57Zm.64,1a2,2,0,0,0-.9.95,1.31,1.31,0,0,0,1,1.77,1.91,1.91,0,0,0,1.27-.31,2.11,2.11,0,0,0,.95-.95,1.22,1.22,0,0,0-.09-1.11,1.27,1.27,0,0,0-.94-.66A2.06,2.06,0,0,0,286.25,258.76Z"/><path class="cls-7" d="M291.83,264.23a1.32,1.32,0,0,0-.14-.41.53.53,0,0,0-.82-.17l-.37.21.43.74-.71.41-.43-.74-2.54,1.46-.55-1,2.55-1.46-.32-.55.71-.41.31.55.42-.24a1.29,1.29,0,0,1,1.1-.15,1.55,1.55,0,0,1,.88.75,2,2,0,0,1,.22.53Z"/><path class="cls-7" d="M293.44,267a1.23,1.23,0,0,0-.13-.41.54.54,0,0,0-.83-.17l-.36.21.43.74-.71.41-.43-.74-2.54,1.46-.55-.95,2.54-1.46-.31-.55.71-.41.31.55.42-.24a1.26,1.26,0,0,1,1.09-.15,1.54,1.54,0,0,1,.89.75,2,2,0,0,1,.22.53Z"/><path class="cls-7" d="M292.81,272.23l-1.23-2.14a.88.88,0,0,0-.23,1.34,1.89,1.89,0,0,0,.81.8l-.7.4a2.82,2.82,0,0,1-.92-1,1.88,1.88,0,0,1-.26-1.46,1.94,1.94,0,0,1,1-1.13,2,2,0,0,1,1.53-.27,1.71,1.71,0,0,1,1.15.87,1.6,1.6,0,0,1,.21,1.32,1.87,1.87,0,0,1-.93,1.05l-.4.24Zm.08-1.23c.49-.28.62-.62.39-1a.64.64,0,0,0-.45-.32,1.11,1.11,0,0,0-.66.07Z"/><path class="cls-7" d="M295.6,274.68a.93.93,0,0,0-.14-.48.73.73,0,0,0-.54-.37,1.31,1.31,0,0,0-.79.2l-1.57.91L292,274l3.25-1.88.55.95-.62.35h0a1,1,0,0,1,1.16.47.79.79,0,0,1,.11.28Z"/><path class="cls-7" d="M296.62,281.58a3.34,3.34,0,0,1-1-1.16,2.5,2.5,0,0,1-.33-2,2.62,2.62,0,0,1,1.29-1.55,2.8,2.8,0,0,1,2.16-.34,2.69,2.69,0,0,1,1.69,1.34,3.61,3.61,0,0,1,.47,1.22l-.94.54a2.31,2.31,0,0,0-.33-1.2,1.61,1.61,0,0,0-1-.82,1.85,1.85,0,0,0-1.35.24,1.8,1.8,0,0,0-.86,1,1.58,1.58,0,0,0,.19,1.27,2.44,2.44,0,0,0,.93.93Z"/><path class="cls-7" d="M299.41,286.79l-.61-1.06.84-.94-.95-1.66-1.24.27-.61-1,5.52-1,.66,1.14-3.61,4.27Zm.85-2.67,1.28-1.42a1.43,1.43,0,0,1,.36-.3l0,0a2.16,2.16,0,0,1-.43.14l-1.89.4Z"/><path class="cls-7" d="M302.28,291.77l-.57-1,1.83-3.63a4.19,4.19,0,0,1,.25-.43v0c-.15.11-.39.26-.71.45l-2.59,1.49-.53-.92,4.55-2.63.61,1.06-1.79,3.51c-.12.24-.19.38-.23.44h0a5.71,5.71,0,0,1,.61-.39l2.6-1.5.53.92Z"/><path class="cls-7" d="M263,260.54,257.73,262l-.62-1.08,2.52-2.49a2.41,2.41,0,0,1,.46-.37h0a3.68,3.68,0,0,1-.55.21l-3.43.92-.64-1.12,3.85-3.84.61,1.06-2.69,2.46a3.72,3.72,0,0,1-.48.36v0a2.81,2.81,0,0,1,.58-.21l3.56-.93.6,1-2.67,2.57a3.2,3.2,0,0,1-.44.35h0a4.08,4.08,0,0,1,.54-.22l3.47-1.12Z"/><path class="cls-7" d="M258.91,264l4.26-2.53.55.95L259.46,265Z"/><rect class="cls-8" x="262.03" y="265.04" width="0.77" height="2.01" transform="translate(-97.9 166.97) rotate(-30.02)"/><polygon class="cls-7" points="267.19 269.67 266.25 268.04 265.08 268.72 265.95 270.21 265.15 270.67 264.29 269.17 262.49 270.21 261.93 269.24 266.49 266.61 267.99 269.21 267.19 269.67"/><path class="cls-7" d="M264,272.85l4.28-2.31.54.94-4.27,2.32Z"/><path class="cls-7" d="M267.62,278.81a2.19,2.19,0,0,1-.76-.86,1.84,1.84,0,0,1-.24-1.46,1.8,1.8,0,0,1,.9-1.14,2,2,0,0,1,1.6-.26,2.13,2.13,0,0,1,1.23,1,1.94,1.94,0,0,1,.33.91l-.82.48a1.3,1.3,0,0,0-.17-.85,1.09,1.09,0,0,0-.67-.55,1.15,1.15,0,0,0-.88.16,1.16,1.16,0,0,0-.56.65,1,1,0,0,0,.14.83,1.52,1.52,0,0,0,.67.6Z"/><path class="cls-7" d="M269.59,278.79a1.9,1.9,0,0,1,1.54-.25,2.06,2.06,0,0,1,1.21,1,1.93,1.93,0,0,1,.26,1.5,1.83,1.83,0,0,1-.94,1.16,2.1,2.1,0,0,1-3-2.26,1.92,1.92,0,0,1,1-1.18Zm.57.95c-.65.37-.82.83-.52,1.35s.78.57,1.44.19.81-.81.51-1.32a.8.8,0,0,0-.59-.43A1.28,1.28,0,0,0,270.16,279.74Z"/><path class="cls-7" d="M272.37,287.31l-.55-.94,1.82-1.05c.52-.3.68-.64.46-1a.67.67,0,0,0-.47-.33.93.93,0,0,0-.64.13l-1.86,1.07-.55-.95,3.25-1.87.55.95-.51.3h0a1.3,1.3,0,0,1,1.2.7c.42.72.18,1.34-.71,1.86Z"/><path class="cls-7" d="M274.83,291.57l-.55-.94,1.82-1.05c.52-.3.68-.64.46-1a.67.67,0,0,0-.47-.33.93.93,0,0,0-.64.13l-1.86,1.07-.55-.95,3.25-1.87.55.95-.51.3h0a1.31,1.31,0,0,1,1.2.7c.42.72.18,1.34-.71,1.86Z"/><path class="cls-7" d="M278.53,294.85l-1.24-2.14a.89.89,0,0,0-.23,1.34,2,2,0,0,0,.82.8l-.7.4a2.65,2.65,0,0,1-.92-1,1.84,1.84,0,0,1-.26-1.46,1.94,1.94,0,0,1,1-1.13,2,2,0,0,1,1.53-.27,1.71,1.71,0,0,1,1.15.87,1.6,1.6,0,0,1,.21,1.32,1.87,1.87,0,0,1-.93,1.05l-.4.24Zm.08-1.23c.49-.28.62-.62.39-1a.66.66,0,0,0-.45-.32,1.1,1.1,0,0,0-.66.07Z"/><path class="cls-7" d="M279.26,299a2.23,2.23,0,0,1-.76-.85,1.81,1.81,0,0,1,.67-2.6,2,2,0,0,1,1.59-.26,2.08,2.08,0,0,1,1.24,1,2,2,0,0,1,.32.91l-.81.47a1.38,1.38,0,0,0-.18-.85,1.08,1.08,0,0,0-.66-.54,1.28,1.28,0,0,0-1.44.81,1,1,0,0,0,.13.83,1.58,1.58,0,0,0,.67.6Z"/><path class="cls-7" d="M280.88,302a1.56,1.56,0,0,1-.49-.58,1.09,1.09,0,0,1,.49-1.67l1.53-.88-.31-.54.71-.41.31.54.71-.41.82.78-1,.57.43.74-.71.41-.42-.74-1.37.79c-.35.2-.45.44-.29.71a.78.78,0,0,0,.29.28Z"/><path class="cls-7" d="M285.63,300.36a.52.52,0,0,1,.45-.05.73.73,0,0,1,.45.8.51.51,0,0,1-.26.35.54.54,0,0,1-.45.05.65.65,0,0,1-.37-.31.64.64,0,0,1-.08-.48.51.51,0,0,1,.26-.36Zm-4.26,2.55,3.26-1.87.54.94-3.25,1.88Z"/><path class="cls-7" d="M284.12,303.94a1.92,1.92,0,0,1,1.54-.25,2.09,2.09,0,0,1,1.2,1,2,2,0,0,1,.27,1.51,1.88,1.88,0,0,1-.95,1.16,1.94,1.94,0,0,1-1.54.26,2,2,0,0,1-1.22-1,2,2,0,0,1-.27-1.52,1.88,1.88,0,0,1,1-1.18Zm.56,1q-1,.56-.51,1.35c.29.51.77.57,1.44.19s.8-.81.51-1.32a.82.82,0,0,0-.59-.43A1.31,1.31,0,0,0,284.68,304.9Z"/><path class="cls-7" d="M286.89,312.47l-.54-.94,1.81-1c.53-.3.68-.64.46-1a.65.65,0,0,0-.47-.33,1,1,0,0,0-.64.13l-1.85,1.07-.55-.95,3.25-1.88.55.95-.52.3h0a1.34,1.34,0,0,1,1.2.71c.42.72.18,1.34-.72,1.85Z"/><path class="cls-7" d="M249,264.82a3.31,3.31,0,0,1-1-1.15,2.54,2.54,0,0,1-.32-2,2.59,2.59,0,0,1,1.29-1.55,2.8,2.8,0,0,1,2.16-.35,2.74,2.74,0,0,1,1.69,1.35,3.57,3.57,0,0,1,.47,1.21l-.94.55a2.42,2.42,0,0,0-.33-1.21,1.64,1.64,0,0,0-1-.82,1.81,1.81,0,0,0-1.35.25,1.73,1.73,0,0,0-.86,1,1.55,1.55,0,0,0,.18,1.26,2.49,2.49,0,0,0,.94.94Z"/><path class="cls-7" d="M251.8,270l-.61-1.06L252,268l-.95-1.65-1.24.26-.61-1.05,5.52-1,.66,1.14L251.8,270Zm.85-2.66,1.28-1.43a2.31,2.31,0,0,1,.35-.3v0a1.69,1.69,0,0,1-.43.15l-1.89.39Z"/><path class="cls-7" d="M254.67,275l-.57-1,1.83-3.63a4.19,4.19,0,0,1,.25-.43h0l-.71.44-2.59,1.5-.53-.92,4.55-2.63.61,1.06-1.79,3.51-.23.43v0a4.22,4.22,0,0,1,.61-.4l2.6-1.49.53.92Z"/><path class="cls-7" d="M261.54,277.48a1.16,1.16,0,0,0-.14-.41.52.52,0,0,0-.82-.18l-.37.21.43.74-.71.41-.42-.74L257,279l-.55-1,2.55-1.47-.32-.54.71-.41.32.54.41-.24a1.36,1.36,0,0,1,1.1-.15,1.57,1.57,0,0,1,.88.76,2,2,0,0,1,.22.53Z"/><path class="cls-7" d="M259.38,279.45a1.94,1.94,0,0,1,1.54-.25,2.05,2.05,0,0,1,1.2,1,2,2,0,0,1,.27,1.5,1.88,1.88,0,0,1-.94,1.17,2,2,0,0,1-1.55.26,2.3,2.3,0,0,1-1.49-2.53,1.92,1.92,0,0,1,1-1.18Zm.57.95c-.65.38-.82.83-.52,1.36s.77.57,1.44.18.8-.8.51-1.32a.83.83,0,0,0-.59-.43A1.28,1.28,0,0,0,260,280.4Z"/><path class="cls-7" d="M264,285.58a1,1,0,0,0-.14-.48.73.73,0,0,0-.55-.37,1.33,1.33,0,0,0-.79.2l-1.56.9-.55-.94,3.25-1.88.55.95-.61.35h0a1,1,0,0,1,1.16.47.93.93,0,0,1,.11.28Z"/><path class="cls-7" d="M263.82,290,261.93,291l-.55-.94,4.75-2.75.55.95-.5.29h0a1.4,1.4,0,0,1,1.19.72,1.37,1.37,0,0,1,.12,1.22,2.11,2.11,0,0,1-1,1,2.25,2.25,0,0,1-1.54.34,1.5,1.5,0,0,1-1.1-.78,1.15,1.15,0,0,1-.05-1.17v0Zm1-.61a.94.94,0,0,0-.46.51.68.68,0,0,0,.06.62.74.74,0,0,0,.6.39,1.5,1.5,0,0,0,.89-.25c.6-.35.76-.75.49-1.21a.72.72,0,0,0-.55-.39,1.11,1.11,0,0,0-.75.16Z"/><path class="cls-7" d="M268.46,291.84a2.27,2.27,0,0,1,.54.48,2.89,2.89,0,0,1,.44.59,1.39,1.39,0,0,1-.58,2.15l-2,1.13-.52-.9.47-.27h0a1.24,1.24,0,0,1-1.11-.66,1.17,1.17,0,0,1-.16-.89,1.07,1.07,0,0,1,.55-.69,1.23,1.23,0,0,1,1.73.48l.64.83a.6.6,0,0,0,.23-.92,2.2,2.2,0,0,0-1-.89l.73-.43Zm-1,2c-.24-.32-.5-.4-.76-.25a.44.44,0,0,0-.22.3.55.55,0,0,0,.08.4.73.73,0,0,0,.48.36.81.81,0,0,0,.62-.11l.23-.13Z"/><path class="cls-7" d="M272.58,298.53l-4.31.7c-1,.17-1.69-.06-2-.68a2,2,0,0,1-.25-.62l.76-.44a.92.92,0,0,0,.14.48.66.66,0,0,0,.69.34l.53-.07,2.49-3.19.6,1.05-1.67,1.81a2.94,2.94,0,0,1-.36.33v0a2.13,2.13,0,0,1,.46-.14l2.42-.53Z"/><path class="cls-7" d="M272.72,306.28l-.54-.95,1.85-1.07c.5-.28.64-.61.44-1A.58.58,0,0,0,274,303a1,1,0,0,0-.65.15l-1.83,1.05-.54-.94,1.88-1.09c.48-.28.62-.6.41-.95a.6.6,0,0,0-.46-.31,1.17,1.17,0,0,0-.67.17l-1.81,1.05-.55-.95L273,299.3l.55.95-.51.3h0a1.29,1.29,0,0,1,.69.2,1.44,1.44,0,0,1,.5.51,1.08,1.08,0,0,1-.07,1.29,1.37,1.37,0,0,1,1.24.74c.41.7.18,1.31-.7,1.81Z"/><path class="cls-7" d="M276.42,309.55l-1.23-2.14a.89.89,0,0,0-.23,1.35,2,2,0,0,0,.81.8l-.69.4a2.75,2.75,0,0,1-.93-1,1.75,1.75,0,0,1,.72-2.59,2.09,2.09,0,0,1,1.53-.28,1.75,1.75,0,0,1,1.15.88,1.63,1.63,0,0,1,.2,1.32,1.85,1.85,0,0,1-.92,1.05l-.41.23Zm.09-1.22q.72-.42.39-1a.7.7,0,0,0-.45-.31,1.06,1.06,0,0,0-.67.07Z"/><path class="cls-7" d="M277.41,314.4l-.54-.94,1.81-1c.53-.3.68-.64.46-1a.65.65,0,0,0-.47-.33,1,1,0,0,0-.64.13l-1.85,1.07-.55-.95,3.25-1.87.55.95-.52.29v0a1.32,1.32,0,0,1,1.2.7c.42.72.18,1.34-.72,1.85Z"/><path class="cls-7" d="M279.23,317.47a1.71,1.71,0,0,1-.49-.59,1.08,1.08,0,0,1,.49-1.66l1.53-.88-.3-.54.7-.41.31.54.72-.42.81.79-1,.57.43.74-.71.41-.43-.74-1.37.79c-.35.2-.44.44-.28.71a.75.75,0,0,0,.28.28Z"/><path class="cls-7" d="M212.62,205.89q0,6.29-5.83,6.28-5.62,0-5.63-6.11V197.9h3v8.17q0,3.51,2.76,3.51t2.71-3.38v-8.3h3Z"/><path class="cls-7" d="M216.25,209.23a5.64,5.64,0,0,0,2.94.92c1.21,0,1.81-.33,1.81-1,0-.46-.5-.84-1.49-1.15a6.43,6.43,0,0,1-2.57-1.29,2.63,2.63,0,0,1-.69-1.92,2.66,2.66,0,0,1,1.19-2.31,5.35,5.35,0,0,1,3.14-.84,8.73,8.73,0,0,1,2.65.4v2.3a5,5,0,0,0-2.57-.68,2.2,2.2,0,0,0-1.13.25.73.73,0,0,0-.42.65c0,.46.42.83,1.27,1.11a14.37,14.37,0,0,1,2,.83,2.71,2.71,0,0,1,1,1,2.94,2.94,0,0,1-.88,3.81,5.75,5.75,0,0,1-3.32.86,8.65,8.65,0,0,1-3-.52Z"/><path class="cls-7" d="M235.66,207.74h-6.59c.1,1.55,1,2.33,2.8,2.33a5.25,5.25,0,0,0,2.93-.82v2.15a7.35,7.35,0,0,1-3.59.77,5,5,0,0,1-3.71-1.35,5.11,5.11,0,0,1-1.33-3.76,5.42,5.42,0,0,1,1.41-3.89,4.68,4.68,0,0,1,3.55-1.5,4.32,4.32,0,0,1,3.33,1.29,5,5,0,0,1,1.2,3.54v1.24Zm-2.73-1.83c0-1.5-.6-2.24-1.82-2.24a1.78,1.78,0,0,0-1.33.61,2.85,2.85,0,0,0-.72,1.63Z"/><path class="cls-7" d="M245,204.56a2.59,2.59,0,0,0-1.29-.3,1.87,1.87,0,0,0-1.58.76,3.33,3.33,0,0,0-.59,2.09v4.81h-2.92v-10h2.92v1.88h0a2.67,2.67,0,0,1,2.63-2,2,2,0,0,1,.79.12Z"/><path class="cls-7" d="M105.36,366.29h-2.11l-.68-2.08h-3.3l-.67,2.08H96.51l3.32-9.07h2.27l3.26,9.07Zm-3.25-3.57-1-3.15a4.06,4.06,0,0,1-.14-.79h0a3.29,3.29,0,0,1-.16.77l-1,3.17Z"/><path class="cls-7" d="M112.51,366.29h-1.89v-.91h0a2.27,2.27,0,0,1-2,1.07,2.44,2.44,0,0,1-2-.87,3.66,3.66,0,0,1-.73-2.38,3.9,3.9,0,0,1,.82-2.57,2.66,2.66,0,0,1,2.14-1,1.86,1.86,0,0,1,1.77.92h0V356.7h1.89v9.59Zm-1.86-3.67a1.52,1.52,0,0,0-.39-1.08,1.35,1.35,0,0,0-2.08.11,2.53,2.53,0,0,0-.39,1.49,2.19,2.19,0,0,0,.38,1.37,1.24,1.24,0,0,0,1,.49,1.26,1.26,0,0,0,1-.51,2.09,2.09,0,0,0,.4-1.33Z"/><path class="cls-7" d="M120.22,359.81l-2.43,6.48h-2.14l-2.31-6.48h2l1.19,4.08a4.66,4.66,0,0,1,.21,1.12h0a6.3,6.3,0,0,1,.23-1.09l1.21-4.11Z"/><path class="cls-7" d="M126.66,363.58H122.4c.06,1,.67,1.51,1.81,1.51a3.32,3.32,0,0,0,1.89-.53V366a4.72,4.72,0,0,1-2.32.5,3.21,3.21,0,0,1-2.4-.87,3.35,3.35,0,0,1-.86-2.43,3.58,3.58,0,0,1,.91-2.53,3.06,3.06,0,0,1,2.3-1,2.77,2.77,0,0,1,2.15.84,3.21,3.21,0,0,1,.78,2.29v.8Zm-1.76-1.18c0-1-.39-1.45-1.18-1.45a1.17,1.17,0,0,0-.86.39,1.89,1.89,0,0,0-.47,1.06Z"/><path class="cls-7" d="M132,361.53a1.58,1.58,0,0,0-.84-.2,1.21,1.21,0,0,0-1,.49,2.19,2.19,0,0,0-.38,1.35v3.12h-1.89v-6.48h1.89V361h0a1.72,1.72,0,0,1,1.7-1.33,1.64,1.64,0,0,1,.51.07Z"/><path class="cls-7" d="M137,366.22a2.91,2.91,0,0,1-1.3.23c-1.37,0-2.06-.72-2.06-2.17v-3.06h-1.07v-1.41h1.07v-1.42l1.88-.54v2H137v1.41h-1.48V364c0,.69.27,1,.82,1a1.33,1.33,0,0,0,.66-.19Z"/><path class="cls-7" d="M138,357.72a.9.9,0,0,1,.31-.71,1.13,1.13,0,0,1,.79-.27,1.11,1.11,0,0,1,.79.28.88.88,0,0,1,.31.7,1,1,0,0,1-.31.71,1.22,1.22,0,0,1-1.58,0,.92.92,0,0,1-.31-.71Zm.14,8.57v-6.48H140v6.48Z"/><path class="cls-7" d="M141.45,364.55a3.69,3.69,0,0,0,1.9.59q1.17,0,1.17-.63c0-.29-.32-.54-1-.74a4.13,4.13,0,0,1-1.66-.83,1.71,1.71,0,0,1-.45-1.25,1.76,1.76,0,0,1,.77-1.5,3.48,3.48,0,0,1,2-.54,5.46,5.46,0,0,1,1.71.27v1.48a3.24,3.24,0,0,0-1.66-.44,1.44,1.44,0,0,0-.73.16.48.48,0,0,0-.27.42c0,.3.27.54.82.72a8.66,8.66,0,0,1,1.32.54,1.64,1.64,0,0,1,.67.63,1.72,1.72,0,0,1,.24.91,1.76,1.76,0,0,1-.81,1.55,3.69,3.69,0,0,1-2.14.56,5.4,5.4,0,0,1-2-.34Z"/><path class="cls-7" d="M153.23,363.58H149c.06,1,.67,1.51,1.81,1.51a3.38,3.38,0,0,0,1.9-.53V366a4.75,4.75,0,0,1-2.32.5,3.24,3.24,0,0,1-2.41-.87,3.35,3.35,0,0,1-.86-2.43,3.55,3.55,0,0,1,.92-2.53,3,3,0,0,1,2.29-1,2.8,2.8,0,0,1,2.16.84,3.25,3.25,0,0,1,.77,2.29v.8Zm-1.76-1.18c0-1-.39-1.45-1.18-1.45a1.17,1.17,0,0,0-.86.39,1.89,1.89,0,0,0-.47,1.06Z"/><path class="cls-7" d="M158.53,361.53a1.58,1.58,0,0,0-.84-.2,1.21,1.21,0,0,0-1,.49,2.19,2.19,0,0,0-.38,1.35v3.12H154.4v-6.48h1.89V361h0a1.72,1.72,0,0,1,1.7-1.33,1.55,1.55,0,0,1,.51.07Z"/><path class="cls-7" d="M299.85,366.29v-5.51c0-.51,0-1.14.07-1.91h0a10.4,10.4,0,0,1-.28,1.16l-2.24,6.26h-1.54l-2.27-6.2a11.15,11.15,0,0,1-.29-1.22h-.05c.05.76.07,1.52.07,2.29v5.13h-1.74v-9.07h2.81l2,5.48a6.91,6.91,0,0,1,.33,1.28h0a12.21,12.21,0,0,1,.38-1.29l2-5.47h2.74v9.07Z"/><path class="cls-7" d="M309.5,363.58h-4.27c.07,1,.68,1.51,1.82,1.51a3.34,3.34,0,0,0,1.89-.53V366a4.72,4.72,0,0,1-2.32.5,3.21,3.21,0,0,1-2.4-.87,3.31,3.31,0,0,1-.86-2.43,3.54,3.54,0,0,1,.91-2.53,3.06,3.06,0,0,1,2.3-1,2.77,2.77,0,0,1,2.15.84,3.21,3.21,0,0,1,.78,2.29v.8Zm-1.76-1.18c0-1-.4-1.45-1.18-1.45a1.15,1.15,0,0,0-.86.39,1.89,1.89,0,0,0-.47,1.06Z"/><path class="cls-7" d="M314.91,361.53a1.57,1.57,0,0,0-.83-.2,1.24,1.24,0,0,0-1,.49,2.19,2.19,0,0,0-.37,1.35v3.12h-1.9v-6.48h1.9V361h0a1.72,1.72,0,0,1,1.7-1.33,1.55,1.55,0,0,1,.51.07Z"/><path class="cls-7" d="M320.72,366.05a3.78,3.78,0,0,1-1.93.4,3.28,3.28,0,0,1-2.4-.9,3.16,3.16,0,0,1-.91-2.34,3.5,3.5,0,0,1,1-2.61,3.64,3.64,0,0,1,2.63-1,3.33,3.33,0,0,1,1.64.31v1.62a2.34,2.34,0,0,0-1.42-.48,1.88,1.88,0,0,0-1.39.53,2,2,0,0,0-.53,1.45,1.93,1.93,0,0,0,.5,1.4,1.82,1.82,0,0,0,1.36.52,2.56,2.56,0,0,0,1.47-.49Z"/><path class="cls-7" d="M328.24,366.29h-1.88V362.6c0-1-.37-1.5-1.09-1.5a1.14,1.14,0,0,0-.9.42,1.6,1.6,0,0,0-.36,1.08v3.69h-1.89V356.7H324v4.08h0a2.29,2.29,0,0,1,2-1.13c1.47,0,2.2.89,2.2,2.66Z"/><path class="cls-7" d="M330.08,360.2a4.2,4.2,0,0,1,1.17-.39,5.85,5.85,0,0,1,1.26-.16,2.41,2.41,0,0,1,2.72,2.73v3.91h-1.8v-.94h0a2.15,2.15,0,0,1-1.94,1.1,2,2,0,0,1-1.48-.53,1.85,1.85,0,0,1-.55-1.42c0-1.25.74-2,2.22-2.17l1.78-.24c0-.76-.39-1.13-1.18-1.13a3.77,3.77,0,0,0-2.18.7V360.2Zm2.14,3.16c-.69.08-1,.39-1,.92a.75.75,0,0,0,.25.59,1,1,0,0,0,.67.22,1.25,1.25,0,0,0,1-.41,1.44,1.44,0,0,0,.37-1v-.46Z"/><path class="cls-7" d="M343.06,366.29h-1.88v-3.61c0-1.05-.37-1.58-1.13-1.58a1.13,1.13,0,0,0-.89.42,1.59,1.59,0,0,0-.36,1.07v3.7h-1.89v-6.48h1.89v1h0a2.29,2.29,0,0,1,2.09-1.19c1.43,0,2.15.89,2.15,2.68Z"/><path class="cls-7" d="M348.55,366.22a2.91,2.91,0,0,1-1.3.23c-1.37,0-2.06-.72-2.06-2.17v-3.06h-1.06v-1.41h1.06v-1.42l1.88-.54v2h1.48v1.41h-1.48V364c0,.69.27,1,.82,1a1.33,1.33,0,0,0,.66-.19Z"/><path class="cls-1" d="M618.77,162.69A148.88,148.88,0,1,1,469.89,311.57,148.88,148.88,0,0,1,618.77,162.69Zm0,38.64A110.24,110.24,0,1,0,729,311.57,110.24,110.24,0,0,0,618.77,201.33Z"/><circle class="cls-2" cx="618.82" cy="311.52" r="110.19" transform="translate(263.55 906.3) rotate(-85.87)"/><circle class="cls-3" cx="618.76" cy="205.03" r="37.15"/><circle class="cls-4" cx="522.54" cy="361.2" r="37.15" transform="translate(-68.15 127.53) rotate(-13.07)"/><circle class="cls-5" cx="714.98" cy="361.2" r="37.15" transform="translate(-59.56 156.89) rotate(-12.03)"/><line class="cls-9" x1="571.95" y1="367.21" x2="662.6" y2="367.21"/><line class="cls-10" x1="537.01" y1="315.63" x2="582.33" y2="237.13"/><line class="cls-11" x1="705.09" y1="315.63" x2="659.77" y2="237.13"/><circle class="cls-6" cx="618.76" cy="302.32" r="23.73" transform="translate(-53.03 150.79) rotate(-13.33)"/><path class="cls-7" d="M612.59,307.21a5.51,5.51,0,0,1-2.41.45,4,4,0,0,1-3-1.15,4.17,4.17,0,0,1-1.13-3.06,4.53,4.53,0,0,1,1.26-3.3,4.37,4.37,0,0,1,3.25-1.28,5.71,5.71,0,0,1,2.08.33V301a3.73,3.73,0,0,0-2-.51,2.61,2.61,0,0,0-2,.8,2.9,2.9,0,0,0-.75,2.08,2.85,2.85,0,0,0,.71,2,2.48,2.48,0,0,0,1.92.76,4,4,0,0,0,2.06-.55Z"/><path class="cls-7" d="M622.14,307.51h-2l-.64-1.94h-3.09l-.63,1.94h-2L617,299h2.13l3,8.49Zm-3-3.34-1-2.95a3,3,0,0,1-.14-.74h0a4.18,4.18,0,0,1-.15.72l-1,3Z"/><path class="cls-7" d="M631.44,307.51h-1.85L626,302a7,7,0,0,1-.41-.7h0a11.68,11.68,0,0,1,.05,1.36v4.83h-1.71V299h2l3.47,5.34c.23.35.37.58.42.67h0a7.67,7.67,0,0,1,0-1.17V299h1.71Z"/><line class="cls-12" x1="561.8" y1="336.19" x2="595.37" y2="317.8"/><line class="cls-12" x1="677.82" y1="336.19" x2="644.25" y2="317.8"/><line class="cls-12" x1="618.33" y1="247.11" x2="619.19" y2="273.97"/><path class="cls-7" d="M594.36,377.46v1.84h-1.13V374h1.82c1.32,0,2,.56,2,1.67a1.6,1.6,0,0,1-.6,1.31,2.19,2.19,0,0,1-1.49.47Zm0-2.57v1.7h.49c.66,0,1-.28,1-.86s-.33-.84-1-.84Z"/><path class="cls-7" d="M598,375.75a2.55,2.55,0,0,1,.68-.23,3.69,3.69,0,0,1,.73-.09A1.41,1.41,0,0,1,601,377v2.28h-1v-.55h0a1.26,1.26,0,0,1-1.14.65,1.24,1.24,0,0,1-.86-.31,1.1,1.1,0,0,1-.32-.83c0-.73.43-1.15,1.3-1.27l1-.14q0-.66-.69-.66a2.21,2.21,0,0,0-1.27.41v-.85Zm1.24,1.84q-.6.07-.6.54a.42.42,0,0,0,.15.34.56.56,0,0,0,.39.13.73.73,0,0,0,.56-.24.84.84,0,0,0,.22-.59v-.27Z"/><path class="cls-7" d="M605.94,375.52l-1.56,4.12c-.36,1-.91,1.44-1.63,1.44a1.94,1.94,0,0,1-.66-.09v-.89a.92.92,0,0,0,.49.13.64.64,0,0,0,.63-.44l.21-.49-1.53-3.78h1.23l.74,2.37c0,.15.07.31.1.48h0a2.51,2.51,0,0,1,.11-.47l.75-2.38Z"/><path class="cls-7" d="M609.61,378.85v.45h-1.1v-5.59h1.1v2.39h0a1.48,1.48,0,0,1,2.35-.17,2.12,2.12,0,0,1,.41,1.38,2.33,2.33,0,0,1-.47,1.51,1.52,1.52,0,0,1-1.23.58,1.19,1.19,0,0,1-1.06-.55Zm0-1.18a.92.92,0,0,0,.23.63.72.72,0,0,0,.56.25.74.74,0,0,0,.64-.32,1.51,1.51,0,0,0,.23-.91,1.26,1.26,0,0,0-.21-.77.71.71,0,0,0-.59-.27.79.79,0,0,0-.62.28,1,1,0,0,0-.24.71Z"/><path class="cls-7" d="M617.12,375.52l-1.56,4.12c-.36,1-.9,1.44-1.63,1.44a1.94,1.94,0,0,1-.66-.09v-.89a.92.92,0,0,0,.49.13.66.66,0,0,0,.64-.44l.2-.49-1.52-3.78h1.22l.74,2.37a3.39,3.39,0,0,1,.1.48h0a2.51,2.51,0,0,1,.11-.47l.76-2.38Z"/><path class="cls-7" d="M623.58,379.11a3.44,3.44,0,0,1-1.51.29,2.53,2.53,0,0,1-1.9-.72,2.6,2.6,0,0,1-.7-1.91,2.8,2.8,0,0,1,.78-2,2.73,2.73,0,0,1,2-.8,3.78,3.78,0,0,1,1.3.2v1.09a2.38,2.38,0,0,0-1.22-.31,1.61,1.61,0,0,0-1.24.49,1.84,1.84,0,0,0-.47,1.3,1.76,1.76,0,0,0,.44,1.25,1.57,1.57,0,0,0,1.2.48,2.49,2.49,0,0,0,1.29-.34Z"/><path class="cls-7" d="M629.52,379.3h-1.23l-.39-1.21H626l-.39,1.21h-1.22L626.3,374h1.32l1.9,5.29Zm-1.89-2.08-.6-1.84a1.66,1.66,0,0,1-.08-.46h0a2.11,2.11,0,0,1-.1.45l-.6,1.85Z"/><path class="cls-7" d="M635.32,379.3h-1.16l-2.24-3.42a3.19,3.19,0,0,1-.25-.43h0q0,.27,0,.84v3h-1.07V374h1.23l2.16,3.33c.14.22.23.36.26.42h0a5.72,5.72,0,0,1,0-.73v-3h1.07Z"/><path class="cls-7" d="M535.44,291.81l-.61,1.07-1.25-.27-1,1.67.85.94-.61,1.06L529.24,292l.67-1.15,5.53,1Zm-2.75.6-1.89-.4a1.84,1.84,0,0,1-.44-.16l0,0a2.52,2.52,0,0,1,.35.3l1.29,1.45Z"/><path class="cls-7" d="M536.78,289.21a2.34,2.34,0,0,1-.36,1.1,1.87,1.87,0,0,1-1.16.94,1.78,1.78,0,0,1-1.44-.22,2,2,0,0,1-1-1.25,2.48,2.48,0,0,1,.91-2.35l.82.48a1.39,1.39,0,0,0-.65.57,1.12,1.12,0,0,0-.14.86,1.31,1.31,0,0,0,1.43.85,1.08,1.08,0,0,0,.66-.54,1.59,1.59,0,0,0,.19-.88Z"/><path class="cls-7" d="M540.39,286.73l-.55.95-2-1.14v0a1.3,1.3,0,0,1-.05,1.33,1.48,1.48,0,0,1-1,.75,2.07,2.07,0,0,1-1.42-.33,2.2,2.2,0,0,1-1.07-1.16,1.52,1.52,0,0,1,.13-1.36,1.11,1.11,0,0,1,1-.63h0l-.39-.23.55-.95,4.78,2.76Zm-3.89-1a1,1,0,0,0-.67-.12.72.72,0,0,0-.51.37.76.76,0,0,0-.05.7,1.45,1.45,0,0,0,.65.65,1.21,1.21,0,0,0,.8.2.73.73,0,0,0,.54-.37.78.78,0,0,0,.06-.68,1.15,1.15,0,0,0-.54-.58Z"/><path class="cls-7" d="M540.91,282.34l-.55,1-.5-.29v0a1.27,1.27,0,0,1,0,1.33c-.44.77-1.11.88-2,.35l-2-1.14.55-1,1.89,1.09c.49.29.84.24,1.06-.15a.62.62,0,0,0,.07-.57,1,1,0,0,0-.45-.49l-1.87-1.08.55-.95Z"/><path class="cls-7" d="M536.79,279.47a.55.55,0,0,1-.26-.36.7.7,0,0,1,.09-.48.67.67,0,0,1,.37-.32.52.52,0,0,1,.44.05.5.5,0,0,1,.27.36.7.7,0,0,1-.46.8.55.55,0,0,1-.45,0Zm4.38,2.43L537.89,280l.55-.95,3.28,1.89Z"/><path class="cls-7" d="M541,280.08a2.14,2.14,0,0,0,.86-.79c.23-.39.23-.65,0-.77s-.37,0-.66.27a2.37,2.37,0,0,1-.9.59,1,1,0,0,1-.76-.13,1,1,0,0,1-.53-.83,2,2,0,0,1,.32-1.18,3,3,0,0,1,.63-.79l.75.43a1.93,1.93,0,0,0-.71.71.82.82,0,0,0-.13.42.28.28,0,0,0,.14.26c.14.09.35,0,.6-.21a5.26,5.26,0,0,1,.65-.51,1,1,0,0,1,.52-.15,1.05,1.05,0,0,1,.53.14,1.07,1.07,0,0,1,.55.86,2.19,2.19,0,0,1-.35,1.25,3.23,3.23,0,0,1-.74.89Z"/><path class="cls-7" d="M539.08,275.51a.55.55,0,0,1-.26-.36.6.6,0,0,1,.09-.48.64.64,0,0,1,.37-.32.56.56,0,0,1,.71.41.6.6,0,0,1-.09.48.64.64,0,0,1-.37.32.54.54,0,0,1-.45-.05Zm4.37,2.43-3.27-1.89.55-1L544,277Z"/><path class="cls-7" d="M545.33,274.59a1.54,1.54,0,0,1-.26.72,1.08,1.08,0,0,1-1.69.41l-1.55-.89-.31.54-.71-.41.31-.54-.72-.42.28-1.1,1,.57.43-.75.71.41-.43.75,1.38.8c.35.2.6.16.76-.12a.74.74,0,0,0,.1-.38Z"/><path class="cls-7" d="M541.09,272a.6.6,0,0,1-.27-.36.65.65,0,0,1,.1-.48.64.64,0,0,1,.37-.32.53.53,0,0,1,.44.05.5.5,0,0,1,.27.36.6.6,0,0,1-.09.48.64.64,0,0,1-.37.32.54.54,0,0,1-.45-.05Zm4.37,2.43-3.27-1.89.55-1L546,273.5Z"/><path class="cls-7" d="M544.53,272.32a2,2,0,0,1-1-1.22,2.12,2.12,0,0,1,.29-1.57,2,2,0,0,1,1.18-1,1.93,1.93,0,0,1,1.49.24,1.89,1.89,0,0,1,.74,2.78,2,2,0,0,1-1.19,1,1.92,1.92,0,0,1-1.52-.25Zm.55-1c.65.38,1.13.3,1.44-.23s.11-1-.56-1.35-1.11-.29-1.41.22a.83.83,0,0,0-.08.73A1.31,1.31,0,0,0,545.08,271.34Z"/><path class="cls-7" d="M550.13,266.38l-.55.95-1.83-1.06c-.53-.3-.9-.26-1.12.12a.64.64,0,0,0,0,.57.91.91,0,0,0,.44.49l1.86,1.08-.55,1-3.27-1.89.55-1,.52.3h0a1.33,1.33,0,0,1,0-1.4c.42-.73,1.08-.83,2-.31Z"/><path class="cls-7" d="M554.16,259.39l-.55.95-1.87-1.07c-.5-.29-.85-.26-1.07.11a.61.61,0,0,0,0,.56,1,1,0,0,0,.46.48l1.83,1.06-.55,1-1.89-1.09c-.49-.28-.83-.25-1,.12a.57.57,0,0,0,0,.55,1.09,1.09,0,0,0,.48.5l1.83,1.05-.56,1-3.27-1.89.55-1,.52.3v0a1.32,1.32,0,0,1-.17-.7,1.49,1.49,0,0,1,.19-.69,1.07,1.07,0,0,1,1.16-.59,1.42,1.42,0,0,1,0-1.46c.41-.71,1.06-.81,1.94-.3Z"/><path class="cls-7" d="M554.71,255.29l-1.25,2.15a.9.9,0,0,0,1.29-.47,2,2,0,0,0,.29-1.11l.7.4a2.83,2.83,0,0,1-.43,1.32,1.88,1.88,0,0,1-1.14,1,1.91,1.91,0,0,1-1.48-.28,2,2,0,0,1-1-1.2,1.79,1.79,0,0,1,.17-1.44,1.65,1.65,0,0,1,1-.84,1.9,1.9,0,0,1,1.39.27l.41.24Zm-1.12.55c-.49-.29-.85-.23-1.07.17a.62.62,0,0,0,0,.55,1.1,1.1,0,0,0,.39.54Z"/><path class="cls-7" d="M557.27,253.92a1.66,1.66,0,0,1-.26.72,1.09,1.09,0,0,1-1.7.41l-1.54-.89-.31.54-.72-.41.31-.54-.72-.42.28-1.1,1,.57.43-.75.72.41-.43.75,1.37.8c.35.2.61.16.77-.12a.85.85,0,0,0,.1-.38Z"/><path class="cls-7" d="M559.19,250.68l-.55.95-1.86-1.08q-.76-.44-1.08.12a.67.67,0,0,0-.05.57,1,1,0,0,0,.44.5l1.87,1.08-.56,1-4.84-2.8.55-.95,2.07,1.19h0a1.35,1.35,0,0,1,0-1.35c.42-.74,1.09-.85,2-.33Z"/><path class="cls-7" d="M557.69,249.53a1.92,1.92,0,0,1-1-1.22,2.12,2.12,0,0,1,.29-1.57,2,2,0,0,1,1.18-1,1.93,1.93,0,0,1,1.49.24,2.11,2.11,0,0,1-.45,3.79,2,2,0,0,1-1.52-.25Zm.55-1c.65.38,1.13.3,1.44-.23s.11-1-.56-1.35-1.11-.29-1.41.22a.83.83,0,0,0-.08.73A1.27,1.27,0,0,0,558.24,248.55Z"/><path class="cls-7" d="M563.31,243.54l-.55,1-.46-.26h0a1.32,1.32,0,0,1,0,1.34,1.45,1.45,0,0,1-1,.74,2.17,2.17,0,0,1-1.42-.33,2.3,2.3,0,0,1-1.06-1.16,1.58,1.58,0,0,1,.13-1.37,1.09,1.09,0,0,1,1-.62v0l-2-1.13.55-.95,4.84,2.8Zm-2.39-.13a.9.9,0,0,0-.67-.12.78.78,0,0,0-.54,1.08,1.54,1.54,0,0,0,.63.64,1.25,1.25,0,0,0,.81.2.77.77,0,0,0,.59-1.05,1.21,1.21,0,0,0-.55-.6Z"/><path class="cls-7" d="M562.65,242.66a2.11,2.11,0,0,0,.85-.79c.23-.39.24-.65,0-.77s-.37,0-.66.27a2.32,2.32,0,0,1-.91.59,1,1,0,0,1-.76-.13,1,1,0,0,1-.53-.83,2,2,0,0,1,.32-1.18,3.27,3.27,0,0,1,.63-.79l.76.43a1.8,1.8,0,0,0-.71.71.72.72,0,0,0-.13.41.28.28,0,0,0,.13.27c.15.08.35,0,.6-.21a4.58,4.58,0,0,1,.66-.51,1,1,0,0,1,.51-.15.94.94,0,0,1,.53.14,1,1,0,0,1,.55.86,2.17,2.17,0,0,1-.34,1.25,3.41,3.41,0,0,1-.74.89Z"/><path class="cls-7" d="M544.67,282.33a1.28,1.28,0,0,0-.29.33c-.18.32-.1.59.27.8l.36.21.43-.74.72.41-.43.75,2.56,1.47-.56,1L545.17,285l-.31.55-.72-.41.32-.55-.42-.24a1.34,1.34,0,0,1-.68-.88,1.56,1.56,0,0,1,.21-1.15,2.1,2.1,0,0,1,.35-.46Z"/><path class="cls-7" d="M547,284a2,2,0,0,1-1-1.22,2.08,2.08,0,0,1,.29-1.57,2,2,0,0,1,1.18-1,1.84,1.84,0,0,1,1.49.24,2,2,0,0,1,1,1.21,2.29,2.29,0,0,1-1.46,2.57A1.9,1.9,0,0,1,547,284Zm.55-1c.65.38,1.13.3,1.44-.23s.1-1-.57-1.35-1.1-.3-1.4.22a.8.8,0,0,0-.08.73A1.27,1.27,0,0,0,547.58,283Z"/><path class="cls-7" d="M549.62,277.69a1.08,1.08,0,0,0-.34.36.71.71,0,0,0,0,.66,1.24,1.24,0,0,0,.57.59l1.58.91-.55,1-3.28-1.89.55-.95.62.35h0a1,1,0,0,1-.18-1.25.79.79,0,0,1,.19-.23Z"/><path class="cls-7" d="M548.53,275.15a.54.54,0,0,1-.27-.36.7.7,0,0,1,.09-.48.67.67,0,0,1,.37-.32.54.54,0,0,1,.45.05.55.55,0,0,1,.27.36.7.7,0,0,1-.09.48.67.67,0,0,1-.37.32.54.54,0,0,1-.45-.05Zm4.37,2.43-3.28-1.89.55-1,3.28,1.89Z"/><path class="cls-7" d="M555.5,273.07,555,274l-1.83-1c-.52-.31-.9-.27-1.12.11a.67.67,0,0,0,0,.57.92.92,0,0,0,.44.5l1.87,1.07-.56,1-3.27-1.89.55-1,.52.3h0a1.33,1.33,0,0,1,0-1.4c.42-.72,1.08-.83,2-.31Z"/><path class="cls-7" d="M557.56,269.51l-.55.95-.46-.27v0a1.3,1.3,0,0,1,0,1.33,1.4,1.4,0,0,1-1,.74,2.08,2.08,0,0,1-1.41-.32,2.24,2.24,0,0,1-1.06-1.17,1.53,1.53,0,0,1,.13-1.36,1.08,1.08,0,0,1,1-.63h0l-2-1.13.55-1,4.85,2.8Zm-2.4-.14a.92.92,0,0,0-.66-.11.78.78,0,0,0-.55,1.08,1.44,1.44,0,0,0,.64.63,1.32,1.32,0,0,0,.8.21.71.71,0,0,0,.55-.39.72.72,0,0,0,0-.67,1.29,1.29,0,0,0-.55-.59Z"/><path class="cls-7" d="M553.44,266.63a.51.51,0,0,1-.26-.36.62.62,0,0,1,.09-.48.67.67,0,0,1,.37-.32.53.53,0,0,1,.44,0,.53.53,0,0,1,.27.37.64.64,0,0,1-.08.48.67.67,0,0,1-.38.31.54.54,0,0,1-.45-.05Zm4.37,2.43-3.27-1.89.55-.95,3.27,1.89Z"/><path class="cls-7" d="M557.42,264.19a1,1,0,0,0-.35.36.74.74,0,0,0-.05.66,1.31,1.31,0,0,0,.58.59l1.57.91-.55,1-3.27-1.89.55-1,.61.35h0a1,1,0,0,1-.17-1.25.65.65,0,0,1,.18-.23Z"/><path class="cls-7" d="M560.16,261.84,558.91,264c.53.26,1,.1,1.3-.48a2,2,0,0,0,.28-1.11l.7.4a2.66,2.66,0,0,1-.42,1.32,1.88,1.88,0,0,1-1.14,1,1.9,1.9,0,0,1-1.48-.28,2,2,0,0,1-1-1.19,1.77,1.77,0,0,1,.18-1.45,1.65,1.65,0,0,1,1-.84,1.85,1.85,0,0,1,1.38.28l.41.23Zm-1.11.55c-.49-.29-.85-.23-1.08.17a.69.69,0,0,0-.05.55,1.07,1.07,0,0,0,.4.54Z"/><path class="cls-7" d="M562.94,259.9a2.31,2.31,0,0,1-.36,1.09,1.93,1.93,0,0,1-1.15.95,1.84,1.84,0,0,1-1.45-.22,2,2,0,0,1-1-1.26,2.13,2.13,0,0,1,.28-1.6,2,2,0,0,1,.64-.74l.82.47a1.39,1.39,0,0,0-.66.58,1.15,1.15,0,0,0-.14.85,1.17,1.17,0,0,0,.58.69,1.15,1.15,0,0,0,.86.16,1.06,1.06,0,0,0,.65-.54,1.49,1.49,0,0,0,.19-.88Z"/><path class="cls-7" d="M564.29,257.75a1.54,1.54,0,0,1-.26.72,1.08,1.08,0,0,1-1.69.41l-1.55-.89-.31.54-.71-.41.31-.54-.72-.42.28-1.1,1,.57.43-.75.71.41-.43.75,1.38.8c.35.2.6.16.76-.11a.81.81,0,0,0,.1-.39Z"/><path class="cls-7" d="M676.19,236.81l4.59-2.65.91,1.58q1.41,2.44-.82,3.74a2.57,2.57,0,0,1-2.1.3,2.84,2.84,0,0,1-1.67-1.4l-.91-1.57Zm4.35-1.21-3,1.72.3.54a1.7,1.7,0,0,0,1,.85,1.82,1.82,0,0,0,1.35-.25,1.62,1.62,0,0,0,.83-1,1.76,1.76,0,0,0-.24-1.3Z"/><path class="cls-7" d="M683.19,238.92a.49.49,0,0,1,.44,0,.64.64,0,0,1,.37.32.6.6,0,0,1,.09.48.51.51,0,0,1-.26.36.55.55,0,0,1-.45.05.69.69,0,0,1-.38-.32.64.64,0,0,1-.08-.48.52.52,0,0,1,.27-.36Zm-4.29,2.57,3.27-1.89.55,1-3.27,1.89Z"/><path class="cls-7" d="M680.77,242.7a2.12,2.12,0,0,0,.25,1.13c.23.4.45.53.66.41s.18-.32.1-.7a2.49,2.49,0,0,1-.07-1.08,1,1,0,0,1,.5-.6,1,1,0,0,1,1,0,1.94,1.94,0,0,1,.87.86,3.67,3.67,0,0,1,.37.95l-.76.43a1.79,1.79,0,0,0-.26-1,.76.76,0,0,0-.29-.32.28.28,0,0,0-.29,0c-.15.08-.2.29-.13.62a6.19,6.19,0,0,1,.12.82,1,1,0,0,1-.13.53,1,1,0,0,1-.39.38,1,1,0,0,1-1,0,2.16,2.16,0,0,1-.9-.92,3.14,3.14,0,0,1-.4-1.09Z"/><path class="cls-7" d="M682.81,248.18a1.57,1.57,0,0,1-.49-.58,1.1,1.1,0,0,1,.49-1.68l1.55-.89-.31-.54.71-.41.31.54.72-.42.82.8-1,.57.43.75-.71.41-.44-.75-1.37.8c-.35.2-.45.44-.29.71a.78.78,0,0,0,.29.28Z"/><path class="cls-7" d="M686.72,249.48a1,1,0,0,0-.14-.48.71.71,0,0,0-.55-.37,1.21,1.21,0,0,0-.8.2l-1.57.91-.55-1,3.27-1.89.55,1-.61.35v0a1,1,0,0,1,1.16.47.56.56,0,0,1,.11.28Z"/><path class="cls-7" d="M688.88,248.78a.55.55,0,0,1,.45-.05.66.66,0,0,1,.36.32.67.67,0,0,1,.1.48.55.55,0,0,1-.27.36.54.54,0,0,1-.45.05.65.65,0,0,1-.37-.31.67.67,0,0,1-.09-.49.55.55,0,0,1,.27-.36Zm-4.29,2.57,3.28-1.89.55,1-3.28,1.89Z"/><path class="cls-7" d="M686.58,253.88l-.4.23-.55-1,4.85-2.79.55.95-2.07,1.2h0a1.5,1.5,0,0,1,1.33,2,2.13,2.13,0,0,1-1,1,2.32,2.32,0,0,1-1.54.35,1.53,1.53,0,0,1-1.12-.78,1.21,1.21,0,0,1-.06-1.19v0Zm1-.6a.91.91,0,0,0-.43.5.75.75,0,0,0,.06.62.76.76,0,0,0,.6.4,1.57,1.57,0,0,0,.91-.26,1.23,1.23,0,0,0,.55-.56.71.71,0,0,0-.06-.66.78.78,0,0,0-.54-.39,1,1,0,0,0-.74.15Z"/><path class="cls-7" d="M689.73,260.25l-.55-.95.5-.29v0a1.29,1.29,0,0,1-1.16-.67c-.44-.76-.2-1.4.72-1.93l2-1.14.56.95-1.89,1.09c-.49.28-.62.62-.4,1a.66.66,0,0,0,.46.34,1,1,0,0,0,.65-.14l1.87-1.08.55.95Z"/><path class="cls-7" d="M691.38,263a1.57,1.57,0,0,1-.5-.58,1.1,1.1,0,0,1,.49-1.68l1.55-.89-.31-.54.71-.41.31.54.72-.42.82.8-1,.57.43.75-.71.41-.43-.75-1.38.8c-.35.2-.45.44-.29.71a.78.78,0,0,0,.29.28Z"/><path class="cls-7" d="M696,261a.52.52,0,0,1,.45,0,.64.64,0,0,1,.36.31.69.69,0,0,1,.1.49.6.6,0,0,1-.27.36.54.54,0,0,1-.45.05.74.74,0,0,1-.46-.8A.55.55,0,0,1,696,261Zm-4.29,2.57,3.27-1.89.56,1-3.28,1.89Z"/><path class="cls-7" d="M694.21,264.27a1.92,1.92,0,0,1,1.55-.25,2.07,2.07,0,0,1,1.21,1,1.94,1.94,0,0,1,.27,1.52,1.87,1.87,0,0,1-1,1.17,2,2,0,0,1-1.56.26,2,2,0,0,1-1.22-1,2,2,0,0,1-.27-1.53,1.9,1.9,0,0,1,1-1.19Zm.57,1c-.65.38-.82.83-.52,1.36s.78.58,1.45.19.81-.81.52-1.33a.84.84,0,0,0-.6-.43A1.32,1.32,0,0,0,694.78,265.23Z"/><path class="cls-7" d="M696.79,272.49l-.54-.95,1.82-1.06c.53-.3.69-.65.47-1a.69.69,0,0,0-.48-.33,1,1,0,0,0-.64.14l-1.87,1.07-.55-.95,3.27-1.89.55.95-.52.3v0a1.32,1.32,0,0,1,1.21.7c.42.73.18,1.35-.72,1.87Z"/><path class="cls-7" d="M701.71,275.44a1,1,0,0,0-.14-.48.71.71,0,0,0-.55-.37,1.27,1.27,0,0,0-.8.2l-1.57.91-.55-1,3.27-1.89.55,1-.61.36h0a1,1,0,0,1,1.17.47.72.72,0,0,1,.11.28Z"/><path class="cls-7" d="M702.61,279.4l-1.25-2.16a.9.9,0,0,0-.23,1.36,2,2,0,0,0,.82.8l-.7.4a2.75,2.75,0,0,1-.93-1,1.87,1.87,0,0,1-.26-1.47,1.92,1.92,0,0,1,1-1.14,2,2,0,0,1,1.54-.28,1.77,1.77,0,0,1,1.16.88,1.65,1.65,0,0,1,.2,1.33,1.89,1.89,0,0,1-.93,1.06l-.4.24Zm.08-1.24q.73-.42.39-1a.72.72,0,0,0-.45-.32,1.13,1.13,0,0,0-.67.07Z"/><path class="cls-7" d="M702.42,280.21a2.13,2.13,0,0,0,.26,1.13c.23.4.45.53.66.41s.18-.32.09-.7a2.35,2.35,0,0,1-.06-1.09,1.09,1.09,0,0,1,1.48-.63,2,2,0,0,1,.86.86,3.08,3.08,0,0,1,.37.95l-.75.43a1.88,1.88,0,0,0-.26-1,.92.92,0,0,0-.29-.32.29.29,0,0,0-.3,0c-.15.08-.19.29-.12.62a4.64,4.64,0,0,1,.11.82.94.94,0,0,1-.12.53,1.09,1.09,0,0,1-.39.38,1,1,0,0,1-1,.05,2.17,2.17,0,0,1-.91-.92,3.35,3.35,0,0,1-.4-1.09Z"/><path class="cls-7" d="M704.83,282.66a1.88,1.88,0,0,1,1.55-.25,2.1,2.1,0,0,1,1.21,1,2,2,0,0,1,.27,1.52,1.89,1.89,0,0,1-1,1.17,1.91,1.91,0,0,1-2.78-.75,2,2,0,0,1-.28-1.54,1.9,1.9,0,0,1,1-1.18Zm.57,1c-.66.37-.83.83-.52,1.36s.78.58,1.45.19.81-.81.51-1.33a.81.81,0,0,0-.59-.44A1.39,1.39,0,0,0,705.4,283.62Z"/><path class="cls-7" d="M707.38,290.83l-.55-.95.5-.29v0a1.31,1.31,0,0,1-1.16-.67c-.43-.76-.19-1.4.72-1.93l2-1.14.55.95-1.88,1.09c-.49.28-.63.62-.41,1a.68.68,0,0,0,.47.34.92.92,0,0,0,.64-.14l1.88-1.08.55.95Z"/><path class="cls-7" d="M711.49,292.39a1,1,0,0,0-.14-.49.73.73,0,0,0-.55-.37,1.31,1.31,0,0,0-.79.2l-1.58.91-.55-.95,3.27-1.89.56.95-.62.36h0a1,1,0,0,1,1.17.47,1,1,0,0,1,.11.28Z"/><path class="cls-7" d="M710.88,296.61a2.26,2.26,0,0,1-.76-.86,1.94,1.94,0,0,1-.25-1.48,1.84,1.84,0,0,1,.92-1.14,2,2,0,0,1,1.6-.26,2.09,2.09,0,0,1,1.25,1,2.06,2.06,0,0,1,.32.92l-.82.47a1.38,1.38,0,0,0-.17-.85,1.1,1.1,0,0,0-.68-.55,1.15,1.15,0,0,0-.88.16,1.08,1.08,0,0,0-.56.66,1,1,0,0,0,.13.83,1.51,1.51,0,0,0,.68.61Z"/><path class="cls-7" d="M714.19,299.47,713,297.31a.9.9,0,0,0-.23,1.36,2,2,0,0,0,.82.8l-.7.4a2.75,2.75,0,0,1-.93-1,1.87,1.87,0,0,1-.26-1.47,1.9,1.9,0,0,1,1-1.14,2,2,0,0,1,1.55-.28,1.73,1.73,0,0,1,1.15.88,1.62,1.62,0,0,1,.21,1.33,1.89,1.89,0,0,1-.93,1.06l-.41.24Zm.09-1.24q.74-.42.39-1a.71.71,0,0,0-.46-.32,1.1,1.1,0,0,0-.66.07Z"/><path class="cls-7" d="M714,300.28a2.13,2.13,0,0,0,.26,1.13c.23.4.44.53.66.41s.18-.32.09-.7A2.35,2.35,0,0,1,715,300a1,1,0,0,1,.5-.59,1,1,0,0,1,1,0,2,2,0,0,1,.86.86,3.35,3.35,0,0,1,.37.95l-.75.43a2,2,0,0,0-.26-1,.85.85,0,0,0-.3-.32.28.28,0,0,0-.29,0c-.15.08-.19.29-.13.62a4,4,0,0,1,.12.82,1,1,0,0,1-.12.53,1.09,1.09,0,0,1-.39.38,1,1,0,0,1-1,.05,2.12,2.12,0,0,1-.91-.92,3.35,3.35,0,0,1-.4-1.09Z"/><path class="cls-7" d="M681.84,264.16l-.39.22-.56-.95,4.85-2.8.55,1-2.07,1.19h0a1.41,1.41,0,0,1,1.2.74,1.37,1.37,0,0,1,.12,1.22,2.09,2.09,0,0,1-1,1,2.31,2.31,0,0,1-1.54.35,1.45,1.45,0,0,1-1.11-.78,1.16,1.16,0,0,1-.06-1.19Zm1-.61a1,1,0,0,0-.43.51.7.7,0,0,0,.07.61.73.73,0,0,0,.6.4,1.56,1.56,0,0,0,.9-.26,1.25,1.25,0,0,0,.56-.56.75.75,0,0,0-.07-.66.78.78,0,0,0-.54-.39,1.12,1.12,0,0,0-.74.15Z"/><path class="cls-7" d="M688.26,268.63l-4.34.71c-1,.16-1.7-.07-2.06-.69a1.89,1.89,0,0,1-.25-.62l.76-.44a.92.92,0,0,0,.14.48.64.64,0,0,0,.69.33l.54-.06,2.5-3.21.61,1.06L685.17,268a2.46,2.46,0,0,1-.37.33v0a2.45,2.45,0,0,1,.47-.14l2.44-.54Z"/><path class="cls-7" d="M688.17,275.65a3.51,3.51,0,0,1-1-1.17,2.52,2.52,0,0,1-.33-2,2.65,2.65,0,0,1,1.3-1.56,2.83,2.83,0,0,1,2.17-.35,2.73,2.73,0,0,1,1.71,1.36,3.35,3.35,0,0,1,.47,1.22l-.94.55a2.34,2.34,0,0,0-.34-1.21,1.62,1.62,0,0,0-1.05-.83,1.81,1.81,0,0,0-1.35.25,1.75,1.75,0,0,0-.87,1,1.57,1.57,0,0,0,.19,1.27,2.45,2.45,0,0,0,.94.95Z"/><path class="cls-7" d="M688.47,276.55l4.58-2.65.92,1.58q1.41,2.44-.83,3.74a2.56,2.56,0,0,1-2.1.3,2.87,2.87,0,0,1-1.66-1.39l-.91-1.58Zm4.35-1.21-3,1.72.31.54a1.7,1.7,0,0,0,1.05.85,1.82,1.82,0,0,0,1.35-.25,1.58,1.58,0,0,0,.82-1,1.76,1.76,0,0,0-.23-1.3Z"/><path class="cls-7" d="M693.59,285.42l-.58-1,1.85-3.66a4.49,4.49,0,0,1,.24-.43v0a8.47,8.47,0,0,1-.72.45l-2.61,1.51-.53-.93,4.58-2.65.62,1.07-1.81,3.53a3.53,3.53,0,0,1-.23.44v0a3.93,3.93,0,0,1,.62-.4l2.61-1.51.53.93Z"/><path class="cls-7" d="M506.83,357.64a5.94,5.94,0,0,1-2.58.48,4.37,4.37,0,0,1-3.26-1.23,4.45,4.45,0,0,1-1.2-3.27,4.82,4.82,0,0,1,1.35-3.52,4.64,4.64,0,0,1,3.47-1.36,6.21,6.21,0,0,1,2.22.34V351a4,4,0,0,0-2.08-.54,2.77,2.77,0,0,0-2.13.85,3.13,3.13,0,0,0-.8,2.22,3,3,0,0,0,.76,2.15,2.67,2.67,0,0,0,2,.82,4.27,4.27,0,0,0,2.21-.59Z"/><path class="cls-7" d="M507.34,354.75a3.31,3.31,0,0,1,1-2.51,3.58,3.58,0,0,1,2.58-.91,3.42,3.42,0,0,1,2.48.89,3.25,3.25,0,0,1,.92,2.42,3.62,3.62,0,0,1-6,2.58,3.3,3.3,0,0,1-.93-2.47Zm1.92,0c0,1.29.53,1.94,1.58,1.94s1.52-.66,1.52-2-.51-1.9-1.53-1.9a1.41,1.41,0,0,0-1.16.51A2.26,2.26,0,0,0,509.26,354.73Z"/><path class="cls-7" d="M521.25,358h-1.88v-3.61c0-1.05-.38-1.57-1.13-1.57a1.14,1.14,0,0,0-.9.42,1.62,1.62,0,0,0-.35,1.07V358H515.1v-6.48H517v1h0a2.28,2.28,0,0,1,2.09-1.18c1.43,0,2.15.89,2.15,2.67Z"/><path class="cls-7" d="M526.16,357.89a2.83,2.83,0,0,1-1.29.23c-1.38,0-2.06-.72-2.06-2.17V352.9h-1.07v-1.42h1.07v-1.42l1.88-.54v2h1.47v1.42h-1.47v2.73c0,.69.27,1,.82,1a1.36,1.36,0,0,0,.65-.18Z"/><path class="cls-7" d="M532.5,355.26h-4.27c.07,1,.68,1.5,1.82,1.5a3.42,3.42,0,0,0,1.89-.52v1.38a4.62,4.62,0,0,1-2.32.5,3.21,3.21,0,0,1-2.4-.87,3.28,3.28,0,0,1-.86-2.43,3.5,3.5,0,0,1,.91-2.52,3,3,0,0,1,2.3-1,2.76,2.76,0,0,1,2.15.83,3.23,3.23,0,0,1,.78,2.29v.81Zm-1.76-1.19c0-1-.4-1.45-1.18-1.45a1.13,1.13,0,0,0-.86.4,1.86,1.86,0,0,0-.47,1.05Z"/><path class="cls-7" d="M539.37,358h-1.89v-3.61c0-1.05-.37-1.57-1.13-1.57a1.12,1.12,0,0,0-.89.42,1.57,1.57,0,0,0-.36,1.07V358h-1.89v-6.48h1.89v1h0a2.29,2.29,0,0,1,2.09-1.18q2.16,0,2.16,2.67Z"/><path class="cls-7" d="M544.28,357.89a2.91,2.91,0,0,1-1.3.23c-1.37,0-2.06-.72-2.06-2.17V352.9h-1.07v-1.42h1.07v-1.42l1.88-.54v2h1.48v1.42H542.8v2.73c0,.69.27,1,.82,1a1.43,1.43,0,0,0,.66-.18Z"/><path class="cls-13" d="M501.09,370.64v3.16h-1.94v-9.07h3.13c2.25,0,3.38.95,3.38,2.87a2.74,2.74,0,0,1-1,2.23,3.77,3.77,0,0,1-2.56.81Zm0-4.41v2.93h.83c1.14,0,1.71-.5,1.71-1.49s-.56-1.44-1.69-1.44Z"/><path class="cls-7" d="M510.46,369a1.68,1.68,0,0,0-.84-.2,1.21,1.21,0,0,0-1,.49,2.19,2.19,0,0,0-.38,1.35v3.12h-1.89v-6.48h1.89v1.22h0a1.72,1.72,0,0,1,1.7-1.33,1.36,1.36,0,0,1,.51.08Z"/><path class="cls-7" d="M510.45,370.59a3.29,3.29,0,0,1,1-2.51,3.56,3.56,0,0,1,2.57-.92,3.43,3.43,0,0,1,2.49.9,3.25,3.25,0,0,1,.92,2.42,3.61,3.61,0,0,1-6,2.57,3.26,3.26,0,0,1-.93-2.46Zm1.91,0c0,1.29.53,1.94,1.59,1.94s1.51-.67,1.51-2-.51-1.89-1.53-1.89a1.39,1.39,0,0,0-1.15.51A2.21,2.21,0,0,0,512.36,370.57Z"/><path class="cls-7" d="M524.25,367.32l-2.43,6.48h-2.14l-2.31-6.48h2l1.19,4.08a4.66,4.66,0,0,1,.21,1.12h0a6.3,6.3,0,0,1,.23-1.09l1.21-4.11Z"/><path class="cls-7" d="M524.44,365.23a.93.93,0,0,1,.3-.71,1.17,1.17,0,0,1,.79-.27,1.13,1.13,0,0,1,.8.28,1,1,0,0,1,0,1.41,1.11,1.11,0,0,1-.79.29,1.09,1.09,0,0,1-.78-.29.92.92,0,0,1-.31-.71Zm.14,8.57v-6.48h1.88v6.48Z"/><path class="cls-7" d="M533.89,373.8H532v-.91h0a2.26,2.26,0,0,1-2,1.07,2.42,2.42,0,0,1-2-.87,3.58,3.58,0,0,1-.73-2.38,3.85,3.85,0,0,1,.82-2.57,2.64,2.64,0,0,1,2.13-1,1.84,1.84,0,0,1,1.77.92h0v-3.87h1.89v9.59ZM532,370.13a1.5,1.5,0,0,0-.4-1.08,1.26,1.26,0,0,0-1-.43,1.28,1.28,0,0,0-1.09.54,2.53,2.53,0,0,0-.4,1.49,2.13,2.13,0,0,0,.39,1.37,1.23,1.23,0,0,0,1,.49,1.27,1.27,0,0,0,1-.51,2.07,2.07,0,0,0,.4-1.33Z"/><path class="cls-7" d="M540.84,371.09h-4.26c.06,1,.67,1.51,1.81,1.51a3.32,3.32,0,0,0,1.89-.53v1.39a4.72,4.72,0,0,1-2.32.5,3.21,3.21,0,0,1-2.4-.87,3.34,3.34,0,0,1-.86-2.43,3.58,3.58,0,0,1,.91-2.53,3.06,3.06,0,0,1,2.3-1,2.77,2.77,0,0,1,2.15.84,3.21,3.21,0,0,1,.78,2.29v.8Zm-1.76-1.18c0-1-.39-1.45-1.18-1.45a1.14,1.14,0,0,0-.86.4,1.83,1.83,0,0,0-.47,1.05Z"/><path class="cls-7" d="M545.68,369a1.68,1.68,0,0,0-.84-.2,1.21,1.21,0,0,0-1,.49,2.19,2.19,0,0,0-.38,1.35v3.12h-1.89v-6.48h1.89v1.22h0a1.72,1.72,0,0,1,1.7-1.33,1.29,1.29,0,0,1,.51.08Z"/><path class="cls-7" d="M702.51,367.91H699.7l-5.44-8.32a11,11,0,0,1-.61-1h0a20.37,20.37,0,0,1,.07,2.05v7.31h-2.6V355.06h3l5.25,8.08c.34.53.56.87.63,1h0a11.37,11.37,0,0,1-.09-1.78v-7.32h2.6Z"/><path class="cls-7" d="M705.7,363.36a4.7,4.7,0,0,1,1.35-3.56,5.09,5.09,0,0,1,3.65-1.29,4.81,4.81,0,0,1,3.52,1.27,4.56,4.56,0,0,1,1.3,3.42,4.62,4.62,0,0,1-4.95,4.93,4.9,4.9,0,0,1-3.56-1.28,4.63,4.63,0,0,1-1.31-3.49Zm2.71,0c0,1.83.75,2.75,2.24,2.75s2.15-.94,2.15-2.83-.72-2.69-2.17-2.69a2,2,0,0,0-1.63.73A3.1,3.1,0,0,0,708.41,363.33Z"/><path class="cls-7" d="M727.28,367.91H724.6v-1.3h0a3.21,3.21,0,0,1-2.88,1.52,3.45,3.45,0,0,1-2.78-1.23,5.1,5.1,0,0,1-1-3.37,5.48,5.48,0,0,1,1.15-3.64,3.76,3.76,0,0,1,3-1.38,2.63,2.63,0,0,1,2.51,1.29h0v-5.48h2.68v13.59Zm-2.63-5.2a2.17,2.17,0,0,0-.56-1.53,1.83,1.83,0,0,0-1.4-.62,1.79,1.79,0,0,0-1.54.78,3.56,3.56,0,0,0-.56,2.1,3.08,3.08,0,0,0,.54,1.95,1.79,1.79,0,0,0,1.48.69,1.81,1.81,0,0,0,1.47-.73,2.92,2.92,0,0,0,.57-1.87Z"/><path class="cls-7" d="M738.88,364.07h-6c.09,1.42.95,2.14,2.57,2.14a4.85,4.85,0,0,0,2.68-.75v2a6.69,6.69,0,0,1-3.29.7,4.56,4.56,0,0,1-3.4-1.23,4.69,4.69,0,0,1-1.22-3.45,5,5,0,0,1,1.29-3.57,4.28,4.28,0,0,1,3.26-1.37,4,4,0,0,1,3,1.18,4.6,4.6,0,0,1,1.1,3.25v1.13Zm-2.5-1.67c0-1.37-.56-2.06-1.67-2.06a1.64,1.64,0,0,0-1.22.56,2.73,2.73,0,0,0-.66,1.5Z"/><path class="cls-7" d="M586.88,360.7h-1.5l-1-1.59a2.64,2.64,0,0,0-.48-.63.64.64,0,0,0-.41-.14h-.39v2.36h-1.3v-6.1H584c1.45,0,2.18.55,2.18,1.65a1.6,1.6,0,0,1-.37,1.07,1.88,1.88,0,0,1-1,.63h0a2.3,2.3,0,0,1,.94.93l1.15,1.81Zm-3.74-5.12v1.76h.64a1,1,0,0,0,.73-.26.88.88,0,0,0,.28-.67c0-.55-.33-.83-1-.83Z"/><path class="cls-7" d="M590.38,358.88h-2.87c0,.68.45,1,1.22,1a2.3,2.3,0,0,0,1.28-.35v.93a3.11,3.11,0,0,1-1.56.34,2.16,2.16,0,0,1-1.62-.59,2.21,2.21,0,0,1-.58-1.63,2.41,2.41,0,0,1,.61-1.7,2,2,0,0,1,1.55-.65,1.86,1.86,0,0,1,1.45.56,2.16,2.16,0,0,1,.52,1.54v.54Zm-1.18-.79c0-.66-.27-1-.8-1a.8.8,0,0,0-.58.26,1.26,1.26,0,0,0-.31.72Z"/><path class="cls-7" d="M590.48,359.53a2.4,2.4,0,0,0,1.28.4c.53,0,.79-.14.79-.42s-.22-.37-.65-.5a2.87,2.87,0,0,1-1.12-.56,1.17,1.17,0,0,1-.3-.84,1.16,1.16,0,0,1,.52-1,2.33,2.33,0,0,1,1.36-.36,4.07,4.07,0,0,1,1.16.17v1a2.09,2.09,0,0,0-1.12-.3,1,1,0,0,0-.49.1.33.33,0,0,0-.19.29c0,.2.19.36.56.48a7.6,7.6,0,0,1,.88.36,1.24,1.24,0,0,1,.07,2.09,2.48,2.48,0,0,1-1.44.37,3.72,3.72,0,0,1-1.31-.23Z"/><path class="cls-7" d="M593.7,358.54a2.25,2.25,0,0,1,.64-1.69,2.43,2.43,0,0,1,1.74-.61,2.29,2.29,0,0,1,1.67.6,2.19,2.19,0,0,1,.62,1.63,2.43,2.43,0,0,1-4,1.73,2.21,2.21,0,0,1-.63-1.66Zm1.29,0c0,.87.35,1.3,1.06,1.3s1-.44,1-1.34-.34-1.28-1-1.28a.93.93,0,0,0-.78.35A1.48,1.48,0,0,0,595,358.53Z"/><path class="cls-7" d="M602.73,360.7h-1.27V360h0a1.52,1.52,0,0,1-1.34.77c-1,0-1.52-.61-1.52-1.84v-2.63h1.28v2.51c0,.66.25,1,.76,1a.75.75,0,0,0,.61-.27,1.07,1.07,0,0,0,.23-.72v-2.5h1.27Z"/><path class="cls-7" d="M606,357.5a1.08,1.08,0,0,0-.56-.14.81.81,0,0,0-.69.34,1.44,1.44,0,0,0-.25.9v2.1h-1.28v-4.36h1.28v.82h0a1.17,1.17,0,0,1,1.15-.89.79.79,0,0,1,.34.05Z"/><path class="cls-7" d="M609.3,360.54a2.6,2.6,0,0,1-1.3.27,2.19,2.19,0,0,1-1.62-.61,2.1,2.1,0,0,1-.61-1.57,2.31,2.31,0,0,1,.66-1.75,2.42,2.42,0,0,1,1.77-.64,2.27,2.27,0,0,1,1.1.2v1.09a1.6,1.6,0,0,0-.95-.32,1.27,1.27,0,0,0-.94.36,1.34,1.34,0,0,0-.35,1,1.32,1.32,0,0,0,.33.95,1.22,1.22,0,0,0,.91.34,1.85,1.85,0,0,0,1-.32Z"/><path class="cls-7" d="M613.45,358.88h-2.87c0,.68.46,1,1.23,1a2.27,2.27,0,0,0,1.27-.35v.93a3.11,3.11,0,0,1-1.56.34,2,2,0,0,1-2.2-2.22,2.37,2.37,0,0,1,.62-1.7,2,2,0,0,1,1.54-.65,1.86,1.86,0,0,1,1.45.56,2.16,2.16,0,0,1,.52,1.54v.54Zm-1.18-.79c0-.66-.27-1-.79-1a.78.78,0,0,0-.58.26,1.26,1.26,0,0,0-.32.72Z"/><path class="cls-7" d="M613.55,359.53a2.42,2.42,0,0,0,1.28.4c.53,0,.79-.14.79-.42s-.22-.37-.65-.5a3,3,0,0,1-1.12-.56,1.17,1.17,0,0,1-.3-.84,1.16,1.16,0,0,1,.52-1,2.35,2.35,0,0,1,1.36-.36,4.07,4.07,0,0,1,1.16.17v1a2.07,2.07,0,0,0-1.12-.3,1,1,0,0,0-.49.1.34.34,0,0,0-.18.29c0,.2.18.36.55.48a8.8,8.8,0,0,1,.89.36,1.1,1.1,0,0,1,.45.43,1.27,1.27,0,0,1-.38,1.66,2.49,2.49,0,0,1-1.45.37,3.72,3.72,0,0,1-1.31-.23Z"/><path class="cls-7" d="M620.23,360.18v2.53H619v-6.37h1.27V357h0a1.71,1.71,0,0,1,2.71-.19,2.4,2.4,0,0,1,.47,1.58,2.67,2.67,0,0,1-.54,1.75,1.77,1.77,0,0,1-1.43.66,1.35,1.35,0,0,1-1.21-.63Zm0-1.41a1.13,1.13,0,0,0,.25.77.85.85,0,0,0,.66.29.86.86,0,0,0,.74-.37,1.77,1.77,0,0,0,.27-1c0-.8-.31-1.2-.94-1.2a.89.89,0,0,0-.71.33,1.34,1.34,0,0,0-.27.86Z"/><path class="cls-7" d="M626.5,357.5a1.15,1.15,0,0,0-.57-.14.81.81,0,0,0-.69.34,1.5,1.5,0,0,0-.25.9v2.1h-1.27v-4.36H625v.82h0a1.16,1.16,0,0,1,1.14-.89.84.84,0,0,1,.35.05Z"/><path class="cls-7" d="M626.22,358.54a2.22,2.22,0,0,1,.65-1.69,2.39,2.39,0,0,1,1.73-.61,2.29,2.29,0,0,1,1.67.6,2.19,2.19,0,0,1,.62,1.63,2.43,2.43,0,0,1-4,1.73,2.21,2.21,0,0,1-.63-1.66Zm1.29,0c0,.87.36,1.3,1.06,1.3s1-.44,1-1.34-.35-1.28-1-1.28a.93.93,0,0,0-.78.35A1.48,1.48,0,0,0,627.51,358.53Z"/><path class="cls-7" d="M635.24,356.34l-1.63,4.36h-1.44l-1.56-4.36H632l.8,2.75a3.28,3.28,0,0,1,.15.75h0a4.12,4.12,0,0,1,.15-.73l.82-2.77Z"/><path class="cls-7" d="M635.1,354.93a.59.59,0,0,1,.21-.47.76.76,0,0,1,.53-.18.77.77,0,0,1,.53.18.62.62,0,0,1,.21.47.6.6,0,0,1-.21.48.76.76,0,0,1-.53.2.74.74,0,0,1-.53-.2.63.63,0,0,1-.21-.48Zm.09,5.77v-4.36h1.27v4.36Z"/><path class="cls-7" d="M641.19,360.7h-1.27v-.61h0a1.51,1.51,0,0,1-1.36.72,1.65,1.65,0,0,1-1.33-.59,2.45,2.45,0,0,1-.49-1.6,2.66,2.66,0,0,1,.55-1.73,1.78,1.78,0,0,1,1.44-.65,1.23,1.23,0,0,1,1.19.61h0v-2.6h1.27v6.45Zm-1.25-2.47a1,1,0,0,0-.27-.73.85.85,0,0,0-.66-.29.87.87,0,0,0-.73.37,1.67,1.67,0,0,0-.27,1,1.49,1.49,0,0,0,.26.93.86.86,0,0,0,.7.32.84.84,0,0,0,.7-.34,1.41,1.41,0,0,0,.27-.89Z"/><path class="cls-7" d="M641.62,354.93a.62.62,0,0,1,.2-.47.79.79,0,0,1,.53-.18.78.78,0,0,1,.54.18.62.62,0,0,1,.21.47.6.6,0,0,1-.21.48.77.77,0,0,1-.54.2.73.73,0,0,1-.52-.2.63.63,0,0,1-.21-.48Zm.09,5.77v-4.36H643v4.36Z"/><path class="cls-7" d="M647.65,360.7h-1.27v-2.43c0-.7-.25-1.06-.76-1.06a.76.76,0,0,0-.6.29,1,1,0,0,0-.24.71v2.49H643.5v-4.36h1.28v.7h0a1.53,1.53,0,0,1,1.41-.8c1,0,1.45.6,1.45,1.79Z"/><path class="cls-7" d="M652.33,360.22a2.46,2.46,0,0,1-.69,1.87,2.78,2.78,0,0,1-2,.66,3.27,3.27,0,0,1-1.41-.25v-1.09a2.72,2.72,0,0,0,1.37.39,1.51,1.51,0,0,0,1.07-.36,1.34,1.34,0,0,0,.38-1v-.37h0a1.5,1.5,0,0,1-1.37.75,1.65,1.65,0,0,1-1.32-.59,2.34,2.34,0,0,1-.49-1.57,2.7,2.7,0,0,1,.54-1.76,1.77,1.77,0,0,1,1.44-.65,1.33,1.33,0,0,1,1.2.62h0v-.52h1.27v3.88Zm-1.26-2a1,1,0,0,0-.26-.73.83.83,0,0,0-.66-.3.87.87,0,0,0-.73.37,1.67,1.67,0,0,0-.27,1,1.38,1.38,0,0,0,.26.9.83.83,0,0,0,.69.33.87.87,0,0,0,.7-.33,1.37,1.37,0,0,0,.27-.87Z"/><path class="cls-14" d="M117.55,153.23h-3.16l-1-3.12h-5l-1,3.12h-3.15l5-13.61h3.41l4.89,13.61Zm-4.87-5.36-1.55-4.72a6.65,6.65,0,0,1-.21-1.19h-.07a5.46,5.46,0,0,1-.24,1.15l-1.56,4.76Z"/><path class="cls-14" d="M120.35,153.23V139.62h4.7q7.24,0,7.25,6.63a6.67,6.67,0,0,1-2,5.07,7.35,7.35,0,0,1-5.24,1.91Zm2.9-11.24v8.87h1.58a4.26,4.26,0,0,0,3.24-1.23,4.64,4.64,0,0,0,1.18-3.34,4.11,4.11,0,0,0-1.23-3.17,4.56,4.56,0,0,0-3.2-1.13Z"/><path class="cls-14" d="M140,153.23V139.62h4.71q7.25,0,7.25,6.63a6.67,6.67,0,0,1-2,5.07,7.36,7.36,0,0,1-5.24,1.91Zm2.9-11.24v8.87h1.59a4.29,4.29,0,0,0,3.24-1.23,4.68,4.68,0,0,0,1.18-3.34,4.11,4.11,0,0,0-1.23-3.17,4.56,4.56,0,0,0-3.2-1.13Z"/><polygon class="cls-14" points="163.33 153.23 155.27 153.23 155.27 139.62 163.01 139.62 163.01 141.99 158.17 141.99 158.17 145.19 162.67 145.19 162.67 147.56 158.17 147.56 158.17 150.86 163.33 150.86 163.33 153.23"/><polygon class="cls-14" points="174.63 153.23 166.64 153.23 166.64 139.62 169.54 139.62 169.54 150.86 174.63 150.86 174.63 153.23"/><rect class="cls-6" x="177.55" y="139.62" width="2.9" height="13.61"/><path class="cls-14" d="M195.86,139.62l-4.73,13.61h-3.28l-4.66-13.61h3.13l2.94,9.62a5.79,5.79,0,0,1,.27,1.34h.06a6.37,6.37,0,0,1,.3-1.38l2.94-9.58Z"/><polygon class="cls-14" points="206.66 153.23 198.6 153.23 198.6 139.62 206.34 139.62 206.34 141.99 201.5 141.99 201.5 145.19 206 145.19 206 147.56 201.5 147.56 201.5 150.86 206.66 150.86 206.66 153.23"/><path class="cls-14" d="M221.2,153.23h-3.34l-2.14-3.54a4.88,4.88,0,0,0-1.08-1.42,1.45,1.45,0,0,0-.89-.32h-.88v5.28H210V139.62h4.77q4.86,0,4.86,3.68a3.66,3.66,0,0,1-.81,2.39,4.26,4.26,0,0,1-2.24,1.39v0a4.81,4.81,0,0,1,2.08,2.07l2.57,4Zm-8.33-11.41v3.92h1.42a2.29,2.29,0,0,0,1.64-.59,2,2,0,0,0,.62-1.49c0-1.22-.73-1.84-2.21-1.84Z"/><path class="cls-14" d="M233.51,139.62l-4.45,8.75v4.86h-2.9v-4.81l-4.33-8.8h3.32l2.28,5.2a9,9,0,0,1,.32,1.07h0a4.93,4.93,0,0,1,.29-1l2.35-5.22Z"/><path class="cls-14" d="M252.53,153.23h-3l-5.76-8.81a8.25,8.25,0,0,1-.65-1.11h0a19.68,19.68,0,0,1,.08,2.18v7.74h-2.75V139.62h3.17l5.55,8.55c.37.57.6.93.68,1.09h0a13.14,13.14,0,0,1-.08-1.88v-7.76h2.75Z"/><polygon class="cls-14" points="264.82 153.23 256.76 153.23 256.76 139.62 264.5 139.62 264.5 141.99 259.66 141.99 259.66 145.19 264.16 145.19 264.16 147.56 259.66 147.56 259.66 150.86 264.82 150.86 264.82 153.23"/><polygon class="cls-14" points="277.66 141.99 273.78 141.99 273.78 153.23 270.87 153.23 270.87 141.99 266.99 141.99 266.99 139.62 277.66 139.62 277.66 141.99"/><path class="cls-14" d="M298.6,139.62,295,153.23h-3.23l-2.32-8.88a8.09,8.09,0,0,1-.22-1.5h0a8.94,8.94,0,0,1-.25,1.5l-2.37,8.88H283.2l-3.63-13.61h3.18l2,9.22a10.59,10.59,0,0,1,.19,1.53H285a8.21,8.21,0,0,1,.27-1.57l2.53-9.18h3.09l2.3,9.29a9.62,9.62,0,0,1,.22,1.44h0a9.38,9.38,0,0,1,.21-1.49l2-9.24Z"/><path class="cls-14" d="M300.57,146.6a7.33,7.33,0,0,1,1.87-5.21,6.42,6.42,0,0,1,4.93-2,6.07,6.07,0,0,1,4.7,1.94,7.12,7.12,0,0,1,1.78,5,7.27,7.27,0,0,1-1.85,5.16,6.31,6.31,0,0,1-4.85,2,6.25,6.25,0,0,1-4.75-1.92,6.88,6.88,0,0,1-1.83-5Zm3.05-.16a5.27,5.27,0,0,0,.95,3.25A3.13,3.13,0,0,0,307.2,151a3.19,3.19,0,0,0,2.66-1.21,5.1,5.1,0,0,0,.95-3.24,5.5,5.5,0,0,0-.93-3.37,3.05,3.05,0,0,0-2.6-1.23,3.19,3.19,0,0,0-2.68,1.27A5.13,5.13,0,0,0,303.62,146.44Z"/><path class="cls-14" d="M328.46,153.23h-3.35L323,149.69a5.26,5.26,0,0,0-1.08-1.42,1.48,1.48,0,0,0-.9-.32h-.88v5.28h-2.9V139.62H322q4.86,0,4.86,3.68a3.66,3.66,0,0,1-.81,2.39,4.27,4.27,0,0,1-2.23,1.39v0a4.86,4.86,0,0,1,2.08,2.07l2.57,4Zm-8.34-11.41v3.92h1.43a2.28,2.28,0,0,0,1.63-.59,2,2,0,0,0,.63-1.49c0-1.22-.74-1.84-2.21-1.84Z"/><path class="cls-14" d="M342,153.23h-3.67l-4.12-5.95a3.51,3.51,0,0,1-.36-.71h-.05v6.66h-2.9V139.62h2.9v6.43h.05a4.92,4.92,0,0,1,.38-.73l3.91-5.7h3.46l-4.87,6.49Z"/><path class="cls-14" d="M607.88,152.63a10.86,10.86,0,0,1-4.74.89,8,8,0,0,1-6-2.25,8.21,8.21,0,0,1-2.21-6,8.82,8.82,0,0,1,2.47-6.45,8.53,8.53,0,0,1,6.36-2.51,11.29,11.29,0,0,1,4.09.64v3.42a7.43,7.43,0,0,0-3.83-1,5.11,5.11,0,0,0-3.9,1.56,5.74,5.74,0,0,0-1.46,4.07,5.57,5.57,0,0,0,1.39,3.94,4.84,4.84,0,0,0,3.75,1.5,7.82,7.82,0,0,0,4-1.08Z"/><path class="cls-14" d="M612.13,153.23V136.59h5.75q8.86,0,8.86,8.11a8.1,8.1,0,0,1-2.48,6.19,9,9,0,0,1-6.4,2.34Zm3.55-13.74v10.84h1.93a5.23,5.23,0,0,0,4-1.5,5.68,5.68,0,0,0,1.44-4.08,5,5,0,0,0-1.5-3.87,5.52,5.52,0,0,0-3.91-1.39Z"/><path class="cls-14" d="M645.65,153.23H642l-7-10.77a11.52,11.52,0,0,1-.8-1.35h0a24.58,24.58,0,0,1,.1,2.66v9.46h-3.37V136.59h3.87l6.79,10.46c.45.7.73,1.14.83,1.32h0a16.35,16.35,0,0,1-.1-2.29v-9.49h3.36Z"/><path class="cls-7" d="M608.28,205.89q0,6.29-5.83,6.28c-3.76,0-5.63-2-5.63-6.11V197.9h3v8.17q0,3.51,2.77,3.51t2.71-3.38v-8.3h3Z"/><path class="cls-7" d="M611.91,209.23a5.64,5.64,0,0,0,2.94.92c1.21,0,1.81-.33,1.81-1,0-.46-.5-.84-1.5-1.15a6.45,6.45,0,0,1-2.56-1.29,2.63,2.63,0,0,1-.69-1.92,2.66,2.66,0,0,1,1.19-2.31,5.34,5.34,0,0,1,3.13-.84,8.68,8.68,0,0,1,2.65.4v2.3a4.92,4.92,0,0,0-2.57-.68,2.19,2.19,0,0,0-1.12.25.73.73,0,0,0-.42.65c0,.46.42.83,1.27,1.11a13.68,13.68,0,0,1,2,.83,2.67,2.67,0,0,1,1,1,2.83,2.83,0,0,1,.35,1.41,2.76,2.76,0,0,1-1.23,2.4,5.77,5.77,0,0,1-3.32.86,8.65,8.65,0,0,1-3-.52Z"/><path class="cls-7" d="M631.32,207.74h-6.6c.11,1.55,1,2.33,2.81,2.33a5.22,5.22,0,0,0,2.92-.82v2.15a7.28,7.28,0,0,1-3.58.77,5,5,0,0,1-3.71-1.35,5.11,5.11,0,0,1-1.33-3.76,5.42,5.42,0,0,1,1.41-3.89,4.66,4.66,0,0,1,3.55-1.5,4.29,4.29,0,0,1,3.32,1.29,5,5,0,0,1,1.21,3.54v1.24Zm-2.73-1.83c0-1.5-.61-2.24-1.82-2.24a1.77,1.77,0,0,0-1.33.61,2.85,2.85,0,0,0-.72,1.63Z"/><path class="cls-7" d="M640.7,204.56a2.62,2.62,0,0,0-1.29-.3,1.87,1.87,0,0,0-1.58.76,3.33,3.33,0,0,0-.59,2.09v4.81h-2.92v-10h2.92v1.88h0a2.67,2.67,0,0,1,2.63-2,2,2,0,0,1,.79.12Z"/><path class="cls-14" d="M615.08,266.25s3.93,2.46,7.64-.06L619,276.34Z"/><path class="cls-15" d="M536,310s1.83,4.26,6.31,4.31l-8.86,6.21Z"/><path class="cls-14" d="M653.07,318.5s-4.14,2.08-3.92,6.56l-6.74-8.47Z"/><path class="cls-14" d="M590.76,325.08s.11-4.63-4-6.54l10.64-2Z"/><path class="cls-16" d="M665.53,239.6s-4.63.16-6.29,4.32l-2.59-10.51Z"/><path class="cls-17" d="M657.18,371.49s2.12-4.12-.7-7.61l10.43,2.88Z"/><line class="cls-18" x1="175.63" y1="361.45" x2="266.28" y2="361.45"/><line class="cls-19" x1="266.28" y1="368.29" x2="175.63" y2="368.29"/><line class="cls-20" x1="140.69" y1="315.29" x2="186.01" y2="236.79"/><line class="cls-21" x1="192.92" y1="242.7" x2="147.6" y2="321.2"/><line class="cls-19" x1="308.77" y1="315.29" x2="263.45" y2="236.79"/><line class="cls-22" x1="256.53" y1="243.15" x2="301.86" y2="321.65"/><line class="cls-23" x1="165.48" y1="335.85" x2="199.05" y2="317.46"/><line class="cls-24" x1="281.5" y1="335.85" x2="247.92" y2="317.46"/><line class="cls-23" x1="222.01" y1="246.77" x2="222.87" y2="273.63"/><path class="cls-14" d="M218.56,266.2s4,2.37,7.63-.23l-3.51,10.23Z"/><path class="cls-15" d="M147.71,313.66s2,4.2,6.45,4.09l-8.64,6.51Z"/><path class="cls-25" d="M185.92,244.09s-1.86-4.24-6.34-4.26l8.81-6.28Z"/><path class="cls-14" d="M255.45,317.24s-4.14,2.08-3.92,6.56l-6.73-8.48Z"/><path class="cls-14" d="M194.54,324.13s.11-4.63-3.95-6.54l10.64-2Z"/><path class="cls-16" d="M268.3,237.58s-4.63-.1-6.53,4l-2-10.64Z"/><path class="cls-25" d="M295.28,318.11s4.63.21,6.63-3.8L303.62,325Z"/><path class="cls-26" d="M259.37,365.19s2.31-4-.35-7.63l10.29,3.35Z"/><path class="cls-16" d="M178.63,372.1s-2.31-4,.35-7.63l-10.29,3.35Z"/><line class="cls-18" x1="385.53" y1="309.61" x2="456.33" y2="309.61"/><line class="cls-19" x1="458.88" y1="316.45" x2="391.19" y2="316.45"/><path class="cls-26" d="M449.14,313.35s2.31-4-.35-7.63l10.29,3.35Z"/><path class="cls-16" d="M395.33,320.27s-2.3-4,.35-7.63L385.39,316Z"/></svg>