<svg xmlns="http://www.w3.org/2000/svg" xmlns:xlink="http://www.w3.org/1999/xlink" id="processonSvg1000" viewBox="78.0 34.0 982.0 1162.0" width="982.0" height="1162.0"><defs id="ProcessOnDefs1001"><marker id="ProcessOnMarker1007" markerUnits="userSpaceOnUse" orient="auto" markerWidth="22.590169943749473" markerHeight="14.679982311945619" viewBox="-2.5 -3.440954801177934 22.590169943749473 14.679982311945619" refX="-2.5" refY="3.8990363547948754"><path id="ProcessOnPath1008" d="M12.0 3.8990363547948754L0.0 7.798072709589751V0.0Z" stroke="#ce2c25" stroke-width="5.0" fill="#ce2c25" transform="matrix(1.0,0.0,0.0,1.0,0.0,0.0)"/></marker></defs><g id="ProcessOnG1002"><path id="ProcessOnPath1003" d="M78.0 34.0H1060.0V1196.0H78.0V34.0Z" fill="none"/><g id="ProcessOnG1004"><g id="ProcessOnG1005"><path id="ProcessOnPath1006" d="M594.0 155.0L594.0 1155.9098300562505" stroke="#ce2c25" stroke-width="5.0" stroke-dasharray="none" fill="none" marker-end="url(#ProcessOnMarker1007)"/></g><g id="ProcessOnG1009" transform="matrix(1.0,0.0,0.0,1.0,544.0,304.0)" opacity="1.0"><path id="ProcessOnPath1010" d="M0.0 50.5C0.0 -16.833333333333332 100.0 -16.833333333333332 100.0 50.5C100.0 117.83333333333333 0.0 117.83333333333333 0.0 50.5Z" stroke="#ce2c25" stroke-width="2.0" stroke-dasharray="none" opacity="1.0" fill="#ce2c25"/><g id="ProcessOnG1011" transform="matrix(1.0,0.0,0.0,1.0,10.0,41.125)"><text id="ProcessOnText1012" fill="#ffffff" font-size="15" x="39.0" y="15.375" font-family="Arial" font-weight="bold" font-style="normal" text-decoration="none" family="Arial" text-anchor="middle" size="15">Jan. 2018</text></g></g><g id="ProcessOnG1013" transform="matrix(1.0,0.0,0.0,1.0,544.0,429.0)" opacity="1.0"><path id="ProcessOnPath1014" d="M0.0 50.5C0.0 -16.833333333333332 100.0 -16.833333333333332 100.0 50.5C100.0 117.83333333333333 0.0 117.83333333333333 0.0 50.5Z" stroke="#ce2c25" stroke-width="2.0" stroke-dasharray="none" opacity="1.0" fill="#ce2c25"/><g id="ProcessOnG1015" transform="matrix(1.0,0.0,0.0,1.0,10.0,41.125)"><text id="ProcessOnText1016" fill="#ffffff" font-size="15" x="39.0" y="15.375" font-family="Arial" font-weight="bold" font-style="normal" text-decoration="none" family="Arial" text-anchor="middle" size="15">Jan. 2018</text></g></g><g id="ProcessOnG1017" transform="matrix(1.0,0.0,0.0,1.0,544.0,552.0)" opacity="1.0"><path id="ProcessOnPath1018" d="M0.0 50.5C0.0 -16.833333333333332 100.0 -16.833333333333332 100.0 50.5C100.0 117.83333333333333 0.0 117.83333333333333 0.0 50.5Z" stroke="#ce2c25" stroke-width="2.0" stroke-dasharray="none" opacity="1.0" fill="#ce2c25"/><g id="ProcessOnG1019" transform="matrix(1.0,0.0,0.0,1.0,10.0,41.125)"><text id="ProcessOnText1020" fill="#ffffff" font-size="15" x="39.0" y="15.375" font-family="Arial" font-weight="bold" font-style="normal" text-decoration="none" family="Arial" text-anchor="middle" size="15">Feb. 2018</text></g></g><g id="ProcessOnG1021" transform="matrix(1.0,0.0,0.0,1.0,544.0,675.0)" opacity="1.0"><path id="ProcessOnPath1022" d="M0.0 50.5C0.0 -16.833333333333332 100.0 -16.833333333333332 100.0 50.5C100.0 117.83333333333333 0.0 117.83333333333333 0.0 50.5Z" stroke="#ce2c25" stroke-width="2.0" stroke-dasharray="none" opacity="1.0" fill="#ce2c25"/><g id="ProcessOnG1023" transform="matrix(1.0,0.0,0.0,1.0,10.0,41.125)"><text id="ProcessOnText1024" fill="#ffffff" font-size="15" x="39.0" y="15.375" font-family="Arial" font-weight="bold" font-style="normal" text-decoration="none" family="Arial" text-anchor="middle" size="15">Mar. 2018</text></g></g><g id="ProcessOnG1025" transform="matrix(1.0,0.0,0.0,1.0,544.0,799.0)" opacity="1.0"><path id="ProcessOnPath1026" d="M0.0 50.5C0.0 -16.833333333333332 100.0 -16.833333333333332 100.0 50.5C100.0 117.83333333333333 0.0 117.83333333333333 0.0 50.5Z" stroke="#ce2c25" stroke-width="2.0" stroke-dasharray="none" opacity="1.0" fill="#ce2c25"/><g id="ProcessOnG1027" transform="matrix(1.0,0.0,0.0,1.0,10.0,41.125)"><text id="ProcessOnText1028" fill="#ffffff" font-size="15" x="39.0" y="15.375" font-family="Arial" font-weight="bold" font-style="normal" text-decoration="none" family="Arial" text-anchor="middle" size="15">Jun. 2018</text></g></g><g id="ProcessOnG1029" transform="matrix(1.0,0.0,0.0,1.0,544.0,921.0)" opacity="1.0"><path id="ProcessOnPath1030" d="M0.0 50.5C0.0 -16.833333333333332 100.0 -16.833333333333332 100.0 50.5C100.0 117.83333333333333 0.0 117.83333333333333 0.0 50.5Z" stroke="#ce2c25" stroke-width="2.0" stroke-dasharray="none" opacity="1.0" fill="#ce2c25"/><g id="ProcessOnG1031" transform="matrix(1.0,0.0,0.0,1.0,10.0,41.125)"><text id="ProcessOnText1032" fill="#ffffff" font-size="15" x="39.0" y="15.375" font-family="Arial" font-weight="bold" font-style="normal" text-decoration="none" family="Arial" text-anchor="middle" size="15">Jun. 2018</text></g></g><g id="ProcessOnG1033" transform="matrix(1.0,0.0,0.0,1.0,544.0,177.0)" opacity="1.0"><path id="ProcessOnPath1034" d="M0.0 50.5C0.0 -16.833333333333332 100.0 -16.833333333333332 100.0 50.5C100.0 117.83333333333333 0.0 117.83333333333333 0.0 50.5Z" stroke="#ce2c25" stroke-width="2.0" stroke-dasharray="none" opacity="1.0" fill="#ce2c25"/><g id="ProcessOnG1035" transform="matrix(1.0,0.0,0.0,1.0,10.0,41.125)"><text id="ProcessOnText1036" fill="#ffffff" font-size="15" x="39.0" y="15.375" font-family="Arial" font-weight="bold" font-style="normal" text-decoration="none" family="Arial" text-anchor="middle" size="15">Dec. 2017</text></g></g><g id="ProcessOnG1037" transform="matrix(1.0,0.0,0.0,1.0,544.0,54.0)" opacity="1.0"><path id="ProcessOnPath1038" d="M0.0 50.5C0.0 -16.833333333333332 100.0 -16.833333333333332 100.0 50.5C100.0 117.83333333333333 0.0 117.83333333333333 0.0 50.5Z" stroke="#ce2c25" stroke-width="2.0" stroke-dasharray="none" opacity="1.0" fill="#ce2c25"/><g id="ProcessOnG1039" transform="matrix(1.0,0.0,0.0,1.0,10.0,41.125)"><text id="ProcessOnText1040" fill="#ffffff" font-size="15" x="39.0" y="15.375" font-family="Arial" font-weight="bold" font-style="normal" text-decoration="none" family="Arial" text-anchor="middle" size="15">Nov. 2017</text></g></g><g id="ProcessOnG1041" transform="matrix(1.0,0.0,0.0,1.0,544.0,1045.0)" opacity="1.0"><path id="ProcessOnPath1042" d="M0.0 50.5C0.0 -16.833333333333332 100.0 -16.833333333333332 100.0 50.5C100.0 117.83333333333333 0.0 117.83333333333333 0.0 50.5Z" stroke="#ce2c25" stroke-width="2.0" stroke-dasharray="none" opacity="1.0" fill="#ce2c25"/><g id="ProcessOnG1043" transform="matrix(1.0,0.0,0.0,1.0,10.0,41.125)"><text id="ProcessOnText1044" fill="#ffffff" font-size="15" x="39.0" y="15.375" font-family="Arial" font-weight="bold" font-style="normal" text-decoration="none" family="Arial" text-anchor="middle" size="15">Sept. 2018</text></g></g><g id="ProcessOnG1045" transform="matrix(1.0,0.0,0.0,1.0,98.0,86.75)" opacity="1.0"><path id="ProcessOnPath1046" d="M0.0 0.0L425.0 0.0L425.0 35.5L0.0 35.5Z" stroke="none" stroke-width="0.0" stroke-dasharray="none" opacity="1.0" fill="none"/><g id="ProcessOnG1047" transform="matrix(1.0,0.0,0.0,1.0,0.0,5.25)"><text id="ProcessOnText1048" fill="#8a8a8a" font-size="20" x="211.5" y="20.5" font-family="Arial" font-weight="normal" font-style="normal" text-decoration="none" family="Arial" text-anchor="middle" size="20">CAN API service version 1.0 official launching</text></g></g><g id="ProcessOnG1049" transform="matrix(1.0,0.0,0.0,1.0,666.5,212.375)" opacity="1.0"><path id="ProcessOnPath1050" d="M0.0 0.0L373.5 0.0L373.5 30.25L0.0 30.25Z" stroke="none" stroke-width="0.0" stroke-dasharray="none" opacity="1.0" fill="none"/><g id="ProcessOnG1051" transform="matrix(1.0,0.0,0.0,1.0,0.0,2.625)"><text id="ProcessOnText1052" fill="#8a8a8a" font-size="20" x="185.75" y="20.5" font-family="Arial" font-weight="normal" font-style="normal" text-decoration="none" family="Arial" text-anchor="middle" size="20">CAN Wallet version 1.0 official launching</text></g></g><g id="ProcessOnG1053" transform="matrix(1.0,0.0,0.0,1.0,109.0,336.75)" opacity="1.0"><path id="ProcessOnPath1054" d="M0.0 0.0L425.0 0.0L425.0 35.5L0.0 35.5Z" stroke="none" stroke-width="0.0" stroke-dasharray="none" opacity="1.0" fill="none"/><g id="ProcessOnG1055" transform="matrix(1.0,0.0,0.0,1.0,0.0,5.25)"><text id="ProcessOnText1056" fill="#8a8a8a" font-size="20" x="211.5" y="20.5" font-family="Arial" font-weight="normal" font-style="normal" text-decoration="none" family="Arial" text-anchor="middle" size="20">CAN Nodes browser development completion</text></g></g><g id="ProcessOnG1057" transform="matrix(1.0,0.0,0.0,1.0,590.5,461.75)" opacity="1.0"><path id="ProcessOnPath1058" d="M0.0 0.0L425.0 0.0L425.0 35.5L0.0 35.5Z" stroke="none" stroke-width="0.0" stroke-dasharray="none" opacity="1.0" fill="none"/><g id="ProcessOnG1059" transform="matrix(1.0,0.0,0.0,1.0,0.0,5.25)"><text id="ProcessOnText1060" fill="#8a8a8a" font-size="20" x="211.5" y="20.5" font-family="Arial" font-weight="normal" font-style="normal" text-decoration="none" family="Arial" text-anchor="middle" size="20">CAN DAN Prototype showing</text></g></g><g id="ProcessOnG1061" transform="matrix(1.0,0.0,0.0,1.0,174.5,584.75)" opacity="1.0"><path id="ProcessOnPath1062" d="M0.0 0.0L425.0 0.0L425.0 35.5L0.0 35.5Z" stroke="none" stroke-width="0.0" stroke-dasharray="none" opacity="1.0" fill="none"/><g id="ProcessOnG1063" transform="matrix(1.0,0.0,0.0,1.0,0.0,5.25)"><text id="ProcessOnText1064" fill="#8a8a8a" font-size="20" x="211.5" y="20.5" font-family="Arial" font-weight="normal" font-style="normal" text-decoration="none" family="Arial" text-anchor="middle" size="20">CAN DCAN Prototype showing</text></g></g><g id="ProcessOnG1065" transform="matrix(1.0,0.0,0.0,1.0,599.5,707.75)" opacity="1.0"><path id="ProcessOnPath1066" d="M0.0 0.0L425.0 0.0L425.0 35.5L0.0 35.5Z" stroke="none" stroke-width="0.0" stroke-dasharray="none" opacity="1.0" fill="none"/><g id="ProcessOnG1067" transform="matrix(1.0,0.0,0.0,1.0,0.0,5.25)"><text id="ProcessOnText1068" fill="#8a8a8a" font-size="20" x="211.5" y="20.5" font-family="Arial" font-weight="normal" font-style="normal" text-decoration="none" family="Arial" text-anchor="middle" size="20">CAN-HD sample units showing</text></g></g><g id="ProcessOnG1069" transform="matrix(1.0,0.0,0.0,1.0,219.0,831.75)" opacity="1.0"><path id="ProcessOnPath1070" d="M0.0 0.0L425.0 0.0L425.0 35.5L0.0 35.5Z" stroke="none" stroke-width="0.0" stroke-dasharray="none" opacity="1.0" fill="none"/><g id="ProcessOnG1071" transform="matrix(1.0,0.0,0.0,1.0,0.0,5.25)"><text id="ProcessOnText1072" fill="#8a8a8a" font-size="20" x="211.5" y="20.5" font-family="Arial" font-weight="normal" font-style="normal" text-decoration="none" family="Arial" text-anchor="middle" size="20">CAN v.1.0 launching</text></g></g><g id="ProcessOnG1073" transform="matrix(1.0,0.0,0.0,1.0,582.5,953.75)" opacity="1.0"><path id="ProcessOnPath1074" d="M0.0 0.0L425.0 0.0L425.0 35.5L0.0 35.5Z" stroke="none" stroke-width="0.0" stroke-dasharray="none" opacity="1.0" fill="none"/><g id="ProcessOnG1075" transform="matrix(1.0,0.0,0.0,1.0,0.0,5.25)"><text id="ProcessOnText1076" fill="#8a8a8a" font-size="20" x="211.5" y="20.5" font-family="Arial" font-weight="normal" font-style="normal" text-decoration="none" family="Arial" text-anchor="middle" size="20">CAN-HD product launching</text></g></g><g id="ProcessOnG1077" transform="matrix(1.0,0.0,0.0,1.0,219.0,1077.75)" opacity="1.0"><path id="ProcessOnPath1078" d="M0.0 0.0L425.0 0.0L425.0 35.5L0.0 35.5Z" stroke="none" stroke-width="0.0" stroke-dasharray="none" opacity="1.0" fill="none"/><g id="ProcessOnG1079" transform="matrix(1.0,0.0,0.0,1.0,0.0,5.25)"><text id="ProcessOnText1080" fill="#8a8a8a" font-size="20" x="211.5" y="20.5" font-family="Arial" font-weight="normal" font-style="normal" text-decoration="none" family="Arial" text-anchor="middle" size="20">CAN v.2.0 launching</text></g></g></g></g></svg>