<?xml version="1.0" encoding="UTF-8"?>
<svg width="73px" height="48px" viewBox="0 0 73 48" version="1.1" xmlns="http://www.w3.org/2000/svg" xmlns:xlink="http://www.w3.org/1999/xlink">
    <!-- Generator: Sketch 49 (51002) - http://www.bohemiancoding.com/sketch -->
    <title>dapp</title>
    <desc>Created with Sketch.</desc>
    <defs></defs>
    <g id="前台" stroke="none" stroke-width="1" fill="none" fill-rule="evenodd">
        <g id="首页" transform="translate(-543.000000, -931.000000)">
            <g id="dapp" transform="translate(538.000000, 910.000000)">
                <rect id="Rectangle-9" x="0" y="0" width="80" height="80"></rect>
                <polygon id="Line-5-Copy" fill="#FFFFFF" fill-rule="nonzero" points="64.3054385 35.0242538 65.0093206 34.313937 69.7425739 39.0043119 69.0386918 39.7146287"></polygon>
                <path d="M44.5,68.5 C38.4248678,68.5 33.5,63.5751322 33.5,57.5 C33.5,51.4248678 38.4248678,46.5 44.5,46.5 C50.5751322,46.5 55.5,51.4248678 55.5,57.5 C55.5,63.5751322 50.5751322,68.5 44.5,68.5 Z M44.5,67.5 C50.0228475,67.5 54.5,63.0228475 54.5,57.5 C54.5,51.9771525 50.0228475,47.5 44.5,47.5 C38.9771525,47.5 34.5,51.9771525 34.5,57.5 C34.5,63.0228475 38.9771525,67.5 44.5,67.5 Z" id="Oval-7-Copy" fill="#FFFFFF" fill-rule="nonzero"></path>
                <polygon id="Line-4-Copy" fill="#FFFFFF" fill-rule="nonzero" points="50.2192111 49.1101612 49.3421014 48.6298712 56.3533049 35.8259489 57.2304147 36.3062388"></polygon>
                <path d="M19.5,49.5 C11.7680135,49.5 5.5,43.2319865 5.5,35.5 C5.5,27.7680135 11.7680135,21.5 19.5,21.5 C27.2319865,21.5 33.5,27.7680135 33.5,35.5 C33.5,43.2319865 27.2319865,49.5 19.5,49.5 Z M19.5,48.5 C26.6797017,48.5 32.5,42.6797017 32.5,35.5 C32.5,28.3202983 26.6797017,22.5 19.5,22.5 C12.3202983,22.5 6.5,28.3202983 6.5,35.5 C6.5,42.6797017 12.3202983,48.5 19.5,48.5 Z" id="Oval-8-Copy-3" fill="#FFFFFF" fill-rule="nonzero"></path>
                <path d="M59.5,37.5 C55.081722,37.5 51.5,33.918278 51.5,29.5 C51.5,25.081722 55.081722,21.5 59.5,21.5 C63.918278,21.5 67.5,25.081722 67.5,29.5 C67.5,33.918278 63.918278,37.5 59.5,37.5 Z M59.5,36.5 C63.3659932,36.5 66.5,33.3659932 66.5,29.5 C66.5,25.6340068 63.3659932,22.5 59.5,22.5 C55.6340068,22.5 52.5,25.6340068 52.5,29.5 C52.5,33.3659932 55.6340068,36.5 59.5,36.5 Z" id="Oval-8-Copy-4" fill="#FFFFFF" fill-rule="nonzero"></path>
                <path d="M72.5,47.5 C69.7385763,47.5 67.5,45.2614237 67.5,42.5 C67.5,39.7385763 69.7385763,37.5 72.5,37.5 C75.2614237,37.5 77.5,39.7385763 77.5,42.5 C77.5,45.2614237 75.2614237,47.5 72.5,47.5 Z M72.5,46.5 C74.709139,46.5 76.5,44.709139 76.5,42.5 C76.5,40.290861 74.709139,38.5 72.5,38.5 C70.290861,38.5 68.5,40.290861 68.5,42.5 C68.5,44.709139 70.290861,46.5 72.5,46.5 Z" id="Oval-8-Copy-5" fill="#FFFFFF" fill-rule="nonzero"></path>
                <polygon id="Line-3-Copy" fill="#FFFFFF" fill-rule="nonzero" points="29.7940344 44.5401575 30.4598425 43.7940344 37.4909091 50.0682554 36.8251011 50.8143785"></polygon>
            </g>
        </g>
    </g>
</svg>