<?xml version="1.0" encoding="UTF-8"?>
<svg width="64px" height="60px" viewBox="0 0 64 60" version="1.1" xmlns="http://www.w3.org/2000/svg" xmlns:xlink="http://www.w3.org/1999/xlink">
    <!-- Generator: Sketch 49 (51002) - http://www.bohemiancoding.com/sketch -->
    <title>近场营销</title>
    <desc>Created with Sketch.</desc>
    <defs></defs>
    <g id="前台" stroke="none" stroke-width="1" fill="none" fill-rule="evenodd">
        <g id="首页" transform="translate(-1116.000000, -920.000000)">
            <g id="近场营销" transform="translate(1108.000000, 910.000000)">
                <rect id="Rectangle-9-Copy-3" x="0" y="0" width="80" height="80"></rect>
                <path d="M14,43 L14,69 L26,69 L26,43 L14,43 Z M13,42 L27,42 L27,70 L13,70 L13,42 Z" id="Rectangle-18" fill="#FFFFFF" fill-rule="nonzero"></path>
                <rect id="Rectangle" fill="#FFFFFF" x="8" y="69" width="64" height="1"></rect>
                <path d="M34,11 L34,69 L46,69 L46,11 L34,11 Z M33,10 L47,10 L47,70 L33,70 L33,10 Z" id="Rectangle-18-Copy" fill="#FFFFFF" fill-rule="nonzero"></path>
                <path d="M54,27 L54,69 L66,69 L66,27 L54,27 Z M53,26 L67,26 L67,70 L53,70 L53,26 Z" id="Rectangle-18-Copy-2" fill="#FFFFFF" fill-rule="nonzero"></path>
            </g>
        </g>
    </g>
</svg>