<?xml version="1.0" encoding="UTF-8"?>
<svg width="72px" height="70px" viewBox="0 0 72 70" version="1.1" xmlns="http://www.w3.org/2000/svg" xmlns:xlink="http://www.w3.org/1999/xlink">
    <!-- Generator: Sketch 49 (51002) - http://www.bohemiancoding.com/sketch -->
    <title>路由wifi</title>
    <desc>Created with Sketch.</desc>
    <defs></defs>
    <g id="前台" stroke="none" stroke-width="1" fill="none" fill-rule="evenodd">
        <g id="首页" transform="translate(-257.000000, -917.000000)">
            <g id="路由wifi" transform="translate(253.000000, 909.000000)">
                <rect id="Rectangle-9-Copy" x="0" y="1" width="80" height="80"></rect>
                <path d="M13,61 C8.581722,61 5,64.581722 5,69 C5,73.418278 8.581722,77 13,77 L67,77 C71.418278,77 75,73.418278 75,69 C75,64.581722 71.418278,61 67,61 L13,61 Z M13,60 L67,60 C71.9705627,60 76,64.0294373 76,69 C76,73.9705627 71.9705627,78 67,78 L13,78 C8.02943725,78 4,73.9705627 4,69 C4,64.0294373 8.02943725,60 13,60 Z" id="Rectangle-7-Copy" fill="#FFFFFF" fill-rule="nonzero"></path>
                <circle id="Oval-3-Copy" fill="#FFFFFF" cx="65" cy="69" r="2"></circle>
                <path d="M54,60 L58,60 L58,28 C58,26.8954305 57.1045695,26 56,26 C54.8954305,26 54,26.8954305 54,28 L54,60 Z M56,25 C57.6568542,25 59,26.3431458 59,28 L59,61 L53,61 L53,28 C53,26.3431458 54.3431458,25 56,25 Z" id="Rectangle-8-Copy" fill="#FFFFFF" fill-rule="nonzero"></path>
                <path d="M75.3700577,27.8700577 L74.3700577,27.8700577 C74.3700577,17.6527898 66.0873256,9.37005769 55.8700577,9.37005769 C45.6527898,9.37005769 37.3700577,17.6527898 37.3700577,27.8700577 C37.3700577,38.0873256 45.6527898,46.3700577 55.8700577,46.3700577 L55.8700577,47.3700577 C45.1005051,47.3700577 36.3700577,38.6396103 36.3700577,27.8700577 C36.3700577,17.1005051 45.1005051,8.37005769 55.8700577,8.37005769 C66.6396103,8.37005769 75.3700577,17.1005051 75.3700577,27.8700577 Z" id="Oval-2-Copy-11" fill="#FFFFFF" fill-rule="nonzero" transform="translate(55.870058, 27.870058) rotate(45.000000) translate(-55.870058, -27.870058) "></path>
                <path d="M67.0563492,27.5563492 L66.0563492,27.5563492 C66.0563492,21.7573593 61.3553391,17.0563492 55.5563492,17.0563492 C49.7573593,17.0563492 45.0563492,21.7573593 45.0563492,27.5563492 C45.0563492,33.3553391 49.7573593,38.0563492 55.5563492,38.0563492 L55.5563492,39.0563492 C49.2050746,39.0563492 44.0563492,33.9076238 44.0563492,27.5563492 C44.0563492,21.2050746 49.2050746,16.0563492 55.5563492,16.0563492 C61.9076238,16.0563492 67.0563492,21.2050746 67.0563492,27.5563492 Z" id="Oval-2-Copy-12" fill="#FFFFFF" fill-rule="nonzero" transform="translate(55.556349, 27.556349) rotate(45.000000) translate(-55.556349, -27.556349) "></path>
            </g>
        </g>
    </g>
</svg>