<?xml version="1.0" encoding="UTF-8"?>
<svg width="68px" height="68px" viewBox="0 0 68 68" version="1.1" xmlns="http://www.w3.org/2000/svg" xmlns:xlink="http://www.w3.org/1999/xlink">
    <!-- Generator: Sketch 49 (51002) - http://www.bohemiancoding.com/sketch -->
    <title>共享cdn</title>
    <desc>Created with Sketch.</desc>
    <defs></defs>
    <g id="前台" stroke="none" stroke-width="1" fill="none" fill-rule="evenodd">
        <g id="首页" transform="translate(-829.000000, -916.000000)">
            <g id="共享cdn" transform="translate(823.000000, 910.000000)">
                <rect id="Rectangle-9-Copy-2" x="0" y="0" width="80" height="80"></rect>
                <path d="M31.8910745,20.8910745 L22.782149,48.217851 L50.1089255,39.1089255 L59.217851,11.782149 L31.8910745,20.8910745 Z M22.3868642,49.4037052 L21.6753518,49.640876 L21.359124,49.3246482 L21.5962948,48.6131358 L22.782149,48.217851 L22.3868642,49.4037052 Z M59.6131358,10.5962948 L60.3246482,10.359124 L60.640876,10.6753518 L60.4037052,11.3868642 L59.217851,11.782149 L59.6131358,10.5962948 Z M31.1005051,20.1005051 L60.7989899,10.2010101 L50.8994949,39.8994949 L21.2010101,49.7989899 L31.1005051,20.1005051 Z" id="Rectangle-16" fill="#FFFFFF" fill-rule="nonzero" transform="translate(41.000000, 30.000000) rotate(45.000000) translate(-41.000000, -30.000000) "></path>
                <path d="M31.8910745,30.8910745 L22.782149,58.217851 L50.1089255,49.1089255 L59.217851,21.782149 L31.8910745,30.8910745 Z M59.6131358,20.5962948 L60.3246482,20.359124 L60.640876,20.6753518 L60.4037052,21.3868642 L59.217851,21.782149 L59.6131358,20.5962948 Z M31.1005051,30.1005051 L60.7989899,20.2010101 L50.8994949,49.8994949 L21.2010101,59.7989899 L31.1005051,30.1005051 Z" id="Rectangle-16-Copy" fill="#FFFFFF" fill-rule="nonzero" transform="translate(41.000000, 40.000000) rotate(45.000000) translate(-41.000000, -40.000000) "></path>
                <path d="M31.8910745,40.8910745 L22.782149,68.217851 L50.1089255,59.1089255 L59.217851,31.782149 L31.8910745,40.8910745 Z M59.6131358,30.5962948 L60.3246482,30.359124 L60.640876,30.6753518 L60.4037052,31.3868642 L59.217851,31.782149 L59.6131358,30.5962948 Z M31.1005051,40.1005051 L60.7989899,30.2010101 L50.8994949,59.8994949 L21.2010101,69.7989899 L31.1005051,40.1005051 Z" id="Rectangle-16-Copy-2" fill="#FFFFFF" fill-rule="nonzero" transform="translate(41.000000, 50.000000) rotate(45.000000) translate(-41.000000, -50.000000) "></path>
                <path d="M72.9974819,7.70710678 L65.7017509,15.0028378 L65,14.2903751 L72.2887495,7.00162561 L66.9945568,7.00162561 L65.9974819,6 L73.9974819,6 L73.9974819,14 L72.9974819,13.003993 L72.9974819,7.70710678 Z" id="Combined-Shape" fill="#FFFFFF"></path>
                <path d="M72.9974819,66.7071068 L65.7017509,74.0028378 L65,73.2903751 L72.2887495,66.0016256 L66.9945568,66.0016256 L65.9974819,65 L73.9974819,65 L73.9974819,73 L72.9974819,72.003993 L72.9974819,66.7071068 Z" id="Combined-Shape-Copy" fill="#FFFFFF" transform="translate(69.498741, 69.501419) scale(1, -1) translate(-69.498741, -69.501419) "></path>
                <path d="M13.9974819,66.7071068 L6.70175095,74.0028378 L6,73.2903751 L13.2887495,66.0016256 L7.99455682,66.0016256 L6.99748192,65 L14.9974819,65 L14.9974819,73 L13.9974819,72.003993 L13.9974819,66.7071068 Z" id="Combined-Shape-Copy-2" fill="#FFFFFF" transform="translate(10.498741, 69.501419) scale(-1, -1) translate(-10.498741, -69.501419) "></path>
                <path d="M13.9974819,7.70710678 L6.70175095,15.0028378 L6,14.2903751 L13.2887495,7.00162561 L7.99455682,7.00162561 L6.99748192,6 L14.9974819,6 L14.9974819,14 L13.9974819,13.003993 L13.9974819,7.70710678 Z" id="Combined-Shape-Copy-3" fill="#FFFFFF" transform="translate(10.498741, 10.501419) scale(-1, 1) translate(-10.498741, -10.501419) "></path>
            </g>
        </g>
    </g>
</svg>